<svg xmlns="http://www.w3.org/2000/svg" version="1.1" xmlns:xlink="http://www.w3.org/1999/xlink" xmlns:svgjs="http://svgjs.dev/svgjs" width="1000" height="1000"><svg width="1000" height="1000" viewBox="0 0 1000 1000" fill="none" xmlns="http://www.w3.org/2000/svg">
<rect width="1000" height="1000" fill="#2F3138"></rect>
<path d="M875 719.879V726.586C869.908 731.665 865.518 737.692 857.932 739.445C852.774 740.643 847.862 739.943 844.107 735.996C830.832 722.025 815.822 710.125 800.878 698.051C796.137 694.219 791.614 690.031 786.949 686.055C785.915 685.101 784.745 684.31 783.478 683.707C782.283 683.199 780.89 681.59 779.685 682.969C778.946 683.832 778.908 685.394 778.803 686.802C777.704 701.702 781.648 716.094 782.89 730.754C783.602 739.378 776.528 747.264 767.188 747.59C757.421 747.935 755.525 747.59 752.415 738.506C747.92 725.436 745.161 712.051 743.037 698.396C739.822 677.699 740.022 656.926 740.458 636.114C740.761 621.415 743.018 606.745 742.933 592.037C742.857 579.332 740.761 566.626 739.453 553.94C738.239 542.231 738.447 530.502 742.525 519.445C745.777 510.668 754.017 507.947 762.637 507.209C773.152 506.366 777.59 510.965 777.381 521.515C777.049 537.871 775.485 554.16 775.153 570.526C774.774 587.333 773.465 604.139 773.503 620.975C773.503 623.849 772.972 627.26 776.139 628.477C779.097 629.608 782.084 628.698 784.882 626.561C794.364 619.231 803.353 611.23 814.437 606.132C824.1 601.734 833.297 602.108 842.258 607.79C848.896 612.025 848.896 619.183 841.613 623.916C833.013 629.512 824.014 634.514 815.196 639.784C810.66 642.548 806.323 645.632 802.215 649.011C799.674 651.071 799.806 652.671 802.291 654.55C809.677 660.126 816.78 666.048 823.673 672.219C831.866 679.558 840.4 686.496 848.621 693.797C855.922 700.274 862.996 707.03 870.192 713.632C872.208 715.353 873.845 717.481 875 719.879ZM257.077 714.781C247.595 705.199 237.373 696.576 227.455 687.617C214.53 675.908 201.293 664.62 187.573 653.85C185.572 652.288 185.676 651.426 187.298 649.845C190.628 646.763 194.289 644.066 198.212 641.806C207.627 636.057 217.252 630.633 226.706 624.941C233.751 620.706 235.495 613.731 230.413 609.419C225.331 605.107 219.034 602.587 212.302 603.133C203.427 603.852 195.633 607.771 188.597 613.165C182.149 618.1 175.739 623.073 169.234 627.912C166.873 629.675 164.247 629.253 161.648 628.142C159.05 627.03 160.321 624.827 160.274 623.14C160.103 617.238 160.321 611.326 160.169 605.423C159.828 591.568 160.368 577.722 161.326 563.934C162.435 547.922 163.45 531.92 162.9 515.89C162.777 512.316 160.918 509.096 156.32 507.966C148.582 506.049 141.935 508.263 135.288 511.722C131.381 513.763 129.267 517.107 128.034 521.122C123.957 534.44 124.64 548.047 126.318 561.557C128.214 577.118 129.267 592.555 128.309 608.317C127.352 624.079 125.711 639.64 126.062 655.383C126.295 672.906 127.842 690.385 130.689 707.672C132.647 719.065 135.595 730.261 139.498 741.131C139.939 742.581 140.714 743.903 141.759 744.991C142.804 746.079 144.089 746.901 145.51 747.389C158.529 751.72 170.808 740.298 168.779 726.625C166.883 713.862 164.171 701.127 164.986 688.077C165.1 686.256 164.095 683.688 166.266 682.931C168.049 682.318 170.059 683.506 171.671 684.905C177.948 690.357 184.159 695.905 190.635 701.098C204.261 712.003 217.897 722.888 230.091 735.45C234.528 740.02 239.573 740.557 245.433 739.158C250.553 737.922 253.644 734.146 257.077 730.716C263.174 724.593 263.174 720.942 257.077 714.781ZM640.364 406.244C634.315 411.936 626.824 415.002 619.276 417.953C604.92 423.588 589.786 426.203 574.814 429.452C565.142 431.521 565.161 431.79 563.692 442.301C562.399 450.874 561.548 459.51 561.141 468.172C560.743 479.239 563.786 489.913 566.195 500.645C568.376 510.342 571.476 519.253 577.355 527.589C581.584 533.597 580.608 538.637 570.784 540.199C562.895 541.454 554.778 541.684 547.373 536.29C541.001 531.662 538.839 525.146 537.435 518.295C535.179 506.873 534.439 495.222 533.33 483.628C532.675 476.777 532.903 469.983 532.467 462.193C532.78 446.699 534.249 430.362 536.079 413.996C537.179 404.146 538.384 394.277 539.284 384.388C540.157 374.806 541.674 365.378 542.926 355.872C543.343 352.72 542.034 350.018 540.726 347.344C538.829 343.512 538.46 340.426 541.361 336.488C544.528 332.205 545.154 326.638 544.907 321.157C544.196 303.91 566.337 297.279 575.848 302.999C580.152 305.587 582.836 309.094 582.864 314.45C582.939 317.126 583.286 319.788 583.898 322.393C584.22 323.878 585.074 324.856 587.046 325.268C596.007 327.04 605.185 327.922 613.862 330.931C623.932 334.409 634.466 336.68 643.01 343.991C649.107 349.184 653.525 355.384 654.673 363.155C657.129 379.75 652.89 394.516 640.364 406.292V406.244ZM614.07 358.335C607.433 355.46 600.7 352.279 593.333 352.806C584.799 352.107 581.869 354.809 577.867 361.324C572.368 370.284 570.357 380.488 569.675 390.827C569.011 400.888 573.022 404.826 583.064 404.357C600.729 403.542 616.962 392.801 620.66 372.612C621.789 366.527 619.162 360.52 614.07 358.335ZM416.358 356.121C409.417 355.288 402.419 354.033 395.289 355.163C388.158 356.294 381.065 356.802 373.925 357.655C370.237 358.105 368.909 356.294 369.545 352.921C370.493 347.891 370.151 342.803 370.55 337.772C371.071 331.065 372.162 324.357 373.138 317.65C375.035 304.858 379.264 292.795 384.138 280.894C386.47 275.202 384.545 270.095 379.463 266.607C372.133 261.567 364.064 261.989 356.004 263.551C349.186 264.883 344.863 268.821 343.677 276.323C343.194 279.313 343.469 282.303 342.833 285.225C340.785 294.567 339.685 304.073 338.187 313.511C336.973 321.176 337.552 328.986 336.357 336.641C335.523 342.036 335.03 347.507 331.796 352.231C326.97 359.264 319.469 361.248 311.988 363.356C304.26 365.521 295.935 365.742 288.804 369.824C283.333 372.957 278.07 377.211 278.137 384.072C278.213 390.779 282.878 395.436 289.089 397.18C294.723 398.702 300.674 398.546 306.223 396.73C312.349 394.932 318.134 392.111 323.338 388.384C325.396 386.851 326.581 386.64 327.131 389.61C327.368 390.808 328.411 391.843 328.667 393.04C331.825 407.672 333.038 422.591 334.28 437.462C335.096 447.217 335.902 457.038 336.177 466.821C336.642 483.11 338.073 499.399 339.401 515.593C340.14 524.523 340.349 533.798 344.692 542.183C347.47 547.568 352.695 550.231 360.944 549.158C365.429 548.574 370.17 543.409 370.426 538.292C371.081 525.079 370.113 511.885 369.317 498.719C368.435 484.231 366.899 469.792 365.761 455.323C365.278 449.162 365.211 442.972 364.69 436.82C363.35 421.144 362.752 405.446 362.898 389.725C362.898 386.784 364.367 385.365 367.269 385.385H382.023C390.775 386.122 401.12 384.57 411.275 380.747C416.671 378.725 420.265 375.64 422.085 370.111C424.038 364.266 421.573 356.744 416.358 356.121ZM723.314 579.859C716.202 569.788 707.82 562.947 694.621 564.633C687.86 565.486 683.062 569.424 683.679 575.049C683.966 578.478 684.751 581.845 686.011 585.043C688.154 590.111 691.17 594.682 693.654 599.54C700.938 613.654 704.07 629.581 702.681 645.437C700.946 667.868 693.075 686.879 675.733 701.261C668.422 707.317 662.78 707.767 658.504 698.138C651.601 682.596 649.088 666 647.656 649.337C646.215 632.511 648.377 615.618 648.471 598.745C648.61 597.655 648.848 596.58 649.183 595.535C650.491 588.885 647.789 580.826 643.01 578.287C636.855 575.02 629.737 574.118 622.974 575.748C612.809 578.048 609.699 585.493 608.836 597.509C607.973 609.524 608.789 621.521 608.571 633.537C608.443 646.012 609.738 658.461 612.43 670.638C615.635 685.863 619.38 700.84 628.445 713.909C640.089 730.687 654.853 738.631 673.125 733.974C693.237 728.848 708.787 716.726 718.431 697.994C730.558 674.49 734.664 649.021 734.778 619.518C735.575 605.363 731.527 591.353 723.314 579.859ZM463.171 668.415C449.054 658.137 433.538 649.978 417.107 644.192C407.464 640.761 399.556 635.357 395.175 625.67C392.852 620.524 393.771 615.657 397.65 613.817C408.383 608.758 418.719 608.183 429.548 614.708C438.935 620.371 448.038 626.858 458.828 629.905C464.726 631.572 470.34 630.518 472.985 626.973C478.485 619.585 479.225 613.913 475.375 607.905C471.013 601.092 464.944 596.253 457.899 592.507C447.469 586.93 436.09 583.5 425.176 579.159C419.923 577.07 414.149 577.329 408.914 578.594C392.283 582.618 377.898 590.581 366.34 603.842C353.264 618.828 354.582 633.124 367.487 647.181C377.529 658.114 390.718 663.854 404.126 669.018C413.409 672.602 422.616 676.224 431.15 681.475C442.955 688.738 444.861 697.419 437.01 708.706C435.634 710.435 433.916 711.855 431.966 712.875C423.232 718.336 413.902 721.278 403.339 720.071C394.037 718.997 388.992 713.057 384.526 705.698C381.17 700.207 377.889 698.78 372.076 700.811C361.807 704.414 356.051 711.351 358.688 720.847C360.66 727.918 365.448 733.983 371.232 738.765C380.648 746.564 391.704 749.612 403.718 749.583C410.583 749.583 412.489 750.071 416.263 749.583C418.406 749.247 420.577 749.046 422.683 748.548C445.667 743.038 464.157 731.55 473.346 708.428C479.936 691.928 477.157 678.648 463.171 668.415ZM593.551 684.081C591.114 663.652 585.339 643.962 581.12 623.935C580.949 623.111 580.797 622.488 579.849 622.201C573.43 620.285 567.02 618.234 560.193 619.892C547.619 622.939 539.019 631.706 531.082 641.116C526.749 646.252 523.298 652.135 519.135 658.143C517.339 651.923 516.132 645.545 515.532 639.094C513.711 622.259 515.333 605.653 517.267 588.99C518.082 581.919 519.163 574.809 518.481 567.661C518.111 564.01 516.973 560.101 513.559 558.443C505.092 554.333 494.984 556.086 489.75 563.905C485.816 569.808 483.643 576.729 483.492 583.845C483.198 595.908 484.136 607.895 485.208 619.911C486.156 630.307 484.667 640.742 483.71 651.177C482.344 665.99 481.149 680.881 481.557 695.809C481.613 698.495 481.391 701.18 480.893 703.82C478.182 718.969 479.945 722.092 492.272 725.254C499.44 727.094 509.975 722.686 513.228 716.104C517.969 706.397 523.174 696.94 528.826 687.722C535.748 676.444 544.139 666.393 553.309 656.485C558.325 664.333 559.718 673.023 560.031 681.446C560.524 694.784 560.705 708.141 561.207 721.489C561.539 730.534 563.805 739.119 569.637 745.961C573.866 750.924 581.129 750.139 584.069 749.602C589.35 748.337 594.565 746.641 596.111 740.643C597.059 737.021 597.059 733.131 597.173 729.346C597.723 714.13 595.371 699.134 593.551 684.081ZM331.531 682.241C329.141 685.537 326.505 688.651 323.945 691.823C317.706 699.565 309.494 702.421 300.24 701.635C286.291 702.593 277.056 695.234 268.778 685.585C262.216 677.92 258.082 669.296 255.398 659.59C250.98 643.684 253.227 628.516 259.191 613.597C262.984 604.187 269.489 596.445 274.951 588.061C276.401 585.838 278.326 583.826 279.331 581.421C285.021 567.929 297.575 566.281 310.082 570.066C320.114 573.104 327.245 580.089 332.924 588.502C342.094 602.07 347.954 617.113 348.655 633.537C349.509 651.972 342.056 667.763 331.531 682.241ZM318.635 642.486C317.943 630.529 313.476 619.111 305.891 609.908C303.463 606.88 300.562 607.215 298.011 609.131C288.823 616.049 281.778 624.779 279.047 636.162C276.563 646.28 279.246 654.3 286.585 658.2C293.697 662.033 301.377 664.908 309.105 660.404C315.79 656.447 317.943 649.452 318.635 642.486ZM532.619 370.169C532.922 389.514 525.697 404.405 515.655 418.203C512.042 423.176 508.344 428.168 503.698 432.183C496.169 438.67 486.81 439.618 477.963 437.51C456.411 432.384 445.402 416.296 439.76 396.011C433.426 373.273 439.475 352.777 452.371 333.882C456.429 327.932 460.81 322.221 464.357 315.925C472.274 301.898 484.791 302.185 495.705 306.535C511.217 312.715 519.495 325.795 525.734 340.34C530.011 350.334 533.235 360.721 532.619 370.207V370.169ZM502.228 377.067C502.228 366.911 498.938 358.182 491.504 348.197C486.896 342.017 484.468 341.787 478.94 347.239C472.777 353.333 467.562 360.108 464.233 368.271C459.009 380.9 463.873 393.328 476.067 396.595C483.51 398.579 491.238 400.428 497.383 392.906C501.346 388.039 502.446 382.606 502.228 377.067Z" fill="white"></path>
</svg><style>@media (prefers-color-scheme: light) { :root { filter: none; } }
@media (prefers-color-scheme: dark) { :root { filter: none; } }
</style></svg>