<svg width="1038" height="202" viewBox="0 0 1038 202" fill="none" xmlns="http://www.w3.org/2000/svg">
<g id="UI">
<g clip-path="url(#clip0_409_2)">
<g id="Property 1=Arrow Chevron L 24">
<path id="Vector" d="M411.333 189L416 192.5L416 195L408 189L416 183V185.5L411.333 189Z" fill="#020202"/>
</g>
<g id="Property 1=Arrow Chevron Double L 24">
<path id="Vector_2" d="M404 161C404.001 160.918 404.021 160.837 404.059 160.764C404.098 160.691 404.153 160.628 404.22 160.58L410.472 156.083C410.583 156.01 410.719 155.984 410.85 156.01C410.981 156.036 411.097 156.112 411.172 156.223L411.722 157.002C411.759 157.057 411.785 157.119 411.799 157.184C411.812 157.249 411.812 157.316 411.799 157.381C411.786 157.446 411.76 157.508 411.723 157.563C411.685 157.618 411.638 157.665 411.582 157.702L407.201 161L411.582 164.248C411.638 164.285 411.685 164.332 411.723 164.387C411.76 164.442 411.786 164.504 411.799 164.569C411.812 164.634 411.812 164.701 411.799 164.766C411.785 164.831 411.759 164.893 411.722 164.948L411.172 165.777C411.097 165.888 410.981 165.964 410.85 165.99C410.719 166.016 410.583 165.99 410.472 165.917L404.22 161.42C404.153 161.372 404.098 161.309 404.059 161.236C404.021 161.163 404.001 161.082 404 161ZM412.422 161.42L418.663 165.917C418.775 165.99 418.911 166.016 419.042 165.99C419.173 165.964 419.288 165.888 419.363 165.777L419.913 164.948C419.951 164.893 419.977 164.831 419.99 164.766C420.003 164.701 420.003 164.634 419.99 164.569C419.977 164.504 419.951 164.442 419.914 164.387C419.877 164.332 419.829 164.285 419.773 164.248L415.402 161L419.773 157.752C419.829 157.715 419.877 157.668 419.914 157.613C419.951 157.558 419.977 157.496 419.99 157.431C420.003 157.366 420.003 157.299 419.99 157.234C419.977 157.169 419.951 157.107 419.913 157.052L419.363 156.223C419.288 156.112 419.173 156.036 419.042 156.01C418.911 155.984 418.775 156.01 418.663 156.083L412.422 160.58C412.353 160.627 412.298 160.69 412.259 160.763C412.221 160.836 412.201 160.917 412.201 161C412.201 161.083 412.221 161.164 412.259 161.237C412.298 161.31 412.353 161.373 412.422 161.42Z" fill="#020202"/>
</g>
<g id="Property 1=Arrow Chevron R 24">
<path id="Vector_3" d="M442.667 189L438 185.5L438 183L446 189L438 195L438 192.5L442.667 189Z" fill="#020202"/>
</g>
<g id="Property 1=Arrow Chevron Double R 24">
<path id="Vector_4" d="M449 161C448.999 161.082 448.979 161.163 448.941 161.236C448.902 161.309 448.847 161.372 448.78 161.42L442.528 165.917C442.417 165.99 442.281 166.016 442.15 165.99C442.019 165.964 441.903 165.888 441.828 165.777L441.278 164.998C441.241 164.943 441.215 164.881 441.201 164.816C441.188 164.751 441.188 164.684 441.201 164.619C441.214 164.554 441.24 164.492 441.277 164.437C441.315 164.382 441.362 164.335 441.418 164.298L445.799 161L441.418 157.752C441.362 157.715 441.315 157.668 441.277 157.613C441.24 157.558 441.214 157.496 441.201 157.431C441.188 157.366 441.188 157.299 441.201 157.234C441.215 157.169 441.241 157.107 441.278 157.052L441.828 156.223C441.903 156.112 442.019 156.036 442.15 156.01C442.281 155.984 442.417 156.01 442.528 156.083L448.78 160.58C448.847 160.628 448.902 160.691 448.941 160.764C448.979 160.837 448.999 160.918 449 161ZM440.578 160.58L434.337 156.083C434.225 156.01 434.089 155.984 433.958 156.01C433.827 156.036 433.712 156.112 433.637 156.223L433.087 157.052C433.049 157.107 433.023 157.169 433.01 157.234C432.997 157.299 432.997 157.366 433.01 157.431C433.023 157.496 433.049 157.558 433.086 157.613C433.123 157.668 433.171 157.715 433.227 157.752L437.598 161L433.227 164.248C433.171 164.285 433.123 164.332 433.086 164.387C433.049 164.442 433.023 164.504 433.01 164.569C432.997 164.634 432.997 164.701 433.01 164.766C433.023 164.831 433.049 164.893 433.087 164.948L433.637 165.777C433.712 165.888 433.827 165.964 433.958 165.99C434.089 166.016 434.225 165.99 434.337 165.917L440.578 161.42C440.647 161.373 440.702 161.31 440.741 161.237C440.779 161.164 440.799 161.083 440.799 161C440.799 160.917 440.779 160.836 440.741 160.763C440.702 160.69 440.647 160.627 440.578 160.58Z" fill="#020202"/>
</g>
<g id="Property 1=Arrow Chevron U 24">
<path id="Vector_5" d="M469 187.333L465.5 192H463L469 184L475 192L472.5 192L469 187.333Z" fill="#020202"/>
</g>
<g id="Property 1=Arrow Chevron Double U 24">
<path id="Vector_6" d="M469 153C469.082 153.001 469.163 153.021 469.236 153.059C469.309 153.098 469.372 153.153 469.42 153.22L473.917 159.472C473.99 159.583 474.016 159.719 473.99 159.85C473.964 159.981 473.888 160.097 473.777 160.172L472.998 160.722C472.943 160.759 472.881 160.785 472.816 160.799C472.751 160.812 472.684 160.812 472.619 160.799C472.554 160.786 472.492 160.76 472.437 160.723C472.382 160.685 472.335 160.638 472.298 160.582L469 156.201L465.752 160.582C465.715 160.638 465.668 160.685 465.613 160.723C465.558 160.76 465.496 160.786 465.431 160.799C465.366 160.812 465.299 160.812 465.234 160.799C465.169 160.785 465.107 160.759 465.052 160.722L464.223 160.172C464.112 160.097 464.036 159.981 464.01 159.85C463.984 159.719 464.01 159.583 464.083 159.472L468.58 153.22C468.628 153.153 468.691 153.098 468.764 153.059C468.837 153.021 468.918 153.001 469 153ZM468.58 161.422L464.083 167.663C464.01 167.775 463.984 167.911 464.01 168.042C464.036 168.173 464.112 168.288 464.223 168.363L465.052 168.913C465.107 168.951 465.169 168.977 465.234 168.99C465.299 169.003 465.366 169.003 465.431 168.99C465.496 168.977 465.558 168.951 465.613 168.914C465.668 168.877 465.715 168.829 465.752 168.773L469 164.402L472.248 168.773C472.285 168.829 472.332 168.877 472.387 168.914C472.442 168.951 472.504 168.977 472.569 168.99C472.634 169.003 472.701 169.003 472.766 168.99C472.831 168.977 472.893 168.951 472.948 168.913L473.777 168.363C473.888 168.288 473.964 168.173 473.99 168.042C474.016 167.911 473.99 167.775 473.917 167.663L469.42 161.422C469.373 161.353 469.31 161.298 469.237 161.259C469.164 161.221 469.083 161.201 469 161.201C468.917 161.201 468.836 161.221 468.763 161.259C468.69 161.298 468.627 161.353 468.58 161.422Z" fill="#020202"/>
</g>
<g id="Property 1=Arrow Chevron D 24">
<path id="Vector_7" d="M497 190.667L500.5 186H503L497 194L491 186H493.5L497 190.667Z" fill="#020202"/>
</g>
<g id="Property 1=Arrow Chevron Double D 24">
<path id="Vector_8" d="M497 169C496.918 168.999 496.837 168.979 496.764 168.941C496.691 168.902 496.628 168.847 496.58 168.78L492.083 162.528C492.01 162.417 491.984 162.281 492.01 162.15C492.036 162.019 492.112 161.903 492.223 161.828L493.002 161.278C493.057 161.241 493.119 161.215 493.184 161.201C493.249 161.188 493.316 161.188 493.381 161.201C493.446 161.214 493.508 161.24 493.563 161.277C493.618 161.315 493.665 161.362 493.702 161.418L497 165.799L500.248 161.418C500.285 161.362 500.332 161.315 500.387 161.277C500.442 161.24 500.504 161.214 500.569 161.201C500.634 161.188 500.701 161.188 500.766 161.201C500.831 161.215 500.893 161.241 500.948 161.278L501.777 161.828C501.888 161.903 501.964 162.019 501.99 162.15C502.016 162.281 501.99 162.417 501.917 162.528L497.42 168.78C497.372 168.847 497.309 168.902 497.236 168.941C497.163 168.979 497.082 168.999 497 169ZM497.42 160.578L501.917 154.337C501.99 154.225 502.016 154.089 501.99 153.958C501.964 153.827 501.888 153.712 501.777 153.637L500.948 153.087C500.893 153.049 500.831 153.023 500.766 153.01C500.701 152.997 500.634 152.997 500.569 153.01C500.504 153.023 500.442 153.049 500.387 153.086C500.332 153.123 500.285 153.171 500.248 153.227L497 157.598L493.752 153.227C493.715 153.171 493.668 153.123 493.613 153.086C493.558 153.049 493.496 153.023 493.431 153.01C493.366 152.997 493.299 152.997 493.234 153.01C493.169 153.023 493.107 153.049 493.052 153.087L492.223 153.637C492.112 153.712 492.036 153.827 492.01 153.958C491.984 154.089 492.01 154.225 492.083 154.337L496.58 160.578C496.627 160.647 496.69 160.702 496.763 160.741C496.836 160.779 496.917 160.799 497 160.799C497.083 160.799 497.164 160.779 497.237 160.741C497.31 160.702 497.373 160.647 497.42 160.578Z" fill="#020202"/>
</g>
<g id="Property 1=Arrow L 24">
<path id="Vector_9" d="M408.2 133.4C407.933 133.2 407.933 132.8 408.2 132.6L415.2 127.101C415.53 126.854 416 127.089 416 127.501V138.499C416 138.911 415.53 139.146 415.2 138.899L408.2 133.4Z" fill="#020202"/>
</g>
<g id="Property 1=Arrow R 24">
<path id="Vector_10" d="M445.8 132.6C446.067 132.8 446.067 133.2 445.8 133.4L438.8 138.899C438.47 139.146 438 138.911 438 138.499L438 127.501C438 127.089 438.47 126.854 438.8 127.101L445.8 132.6Z" fill="#020202"/>
</g>
<g id="Property 1=Arrow U 24">
<path id="Vector_11" d="M468.6 128.2C468.8 127.933 469.2 127.933 469.4 128.2L474.899 135.2C475.146 135.53 474.911 136 474.499 136L463.501 136C463.089 136 462.854 135.53 463.101 135.2L468.6 128.2Z" fill="#020202"/>
</g>
<g id="Property 1=Arrow D 24">
<path id="Vector_12" d="M497.4 137.8C497.2 138.067 496.8 138.067 496.6 137.8L491.101 130.8C490.854 130.47 491.089 130 491.501 130L502.499 130C502.911 130 503.146 130.47 502.899 130.8L497.4 137.8Z" fill="#020202"/>
</g>
<g id="Property 1=Info 16">
<path id="Vector_13" fill-rule="evenodd" clip-rule="evenodd" d="M1009 14C1011.76 14 1014 11.7615 1014 9C1014 6.23854 1011.76 4 1009 4C1006.24 4 1004 6.23854 1004 9C1004 11.7615 1006.24 14 1009 14ZM1009.62 6.5C1009.62 6.15485 1009.35 5.875 1009 5.875C1008.65 5.875 1008.38 6.15485 1008.38 6.5C1008.38 6.84515 1008.65 7.125 1009 7.125C1009.35 7.125 1009.62 6.84515 1009.62 6.5ZM1009.62 8.99901C1009.62 8.65385 1009.35 8.37401 1009 8.37401C1008.65 8.37401 1008.38 8.65385 1008.38 8.99901V11.5C1008.38 11.8452 1008.65 12.125 1009 12.125C1009.35 12.125 1009.62 11.8452 1009.62 11.5V8.99901Z" fill="#020202"/>
</g>
<g id="Property 1=Bookmark 24">
<path id="Vector_14" d="M407 7.0011C407 5.89653 407.895 5.0011 409 5.0011H417C418.105 5.0011 419 5.89653 419 7.0011V19.9969C419 20.8878 417.923 21.334 417.293 20.704L414.414 17.8253C413.633 17.0443 412.367 17.0443 411.586 17.8253L408.707 20.704C408.077 21.334 407 20.8878 407 19.9969V7.0011Z" fill="#020202"/>
</g>
<g id="Property 1=Info 24">
<path id="Vector_15" fill-rule="evenodd" clip-rule="evenodd" d="M441 21C445.418 21 449 17.4183 449 13C449 8.58167 445.418 5 441 5C436.582 5 433 8.58167 433 13C433 17.4183 436.582 21 441 21ZM442 9C442 8.44775 441.552 8 441 8C440.448 8 440 8.44775 440 9C440 9.55225 440.448 10 441 10C441.552 10 442 9.55225 442 9ZM442 12.9984C442 12.4462 441.552 11.9984 441 11.9984C440.448 11.9984 440 12.4462 440 12.9984V17C440 17.5522 440.448 18 441 18C441.552 18 442 17.5522 442 17V12.9984Z" fill="#020202"/>
</g>
<g id="Property 1=Star 24">
<path id="Vector_16" d="M469 5.5L471.719 10.1023L477 11.2295L473.4 15.2011L473.944 20.5L469 18.3523L464.056 20.5L464.6 15.2011L461 11.2295L466.281 10.1023L469 5.5Z" fill="#020202"/>
</g>
<g id="Property 1=Home 24">
<path id="Vector_17" fill-rule="evenodd" clip-rule="evenodd" d="M505 13L503 15V19C503 20.1046 502.105 21 501 21H493C491.895 21 491 20.1046 491 19V15L489 13L497 5L505 13ZM493 14.1716L491.828 13L497 7.82843L502.172 13L501 14.1716V18.5C501 18.7761 500.776 19 500.5 19H493.5C493.224 19 493 18.7761 493 18.5V14.1716Z" fill="#020202"/>
</g>
<g id="Property 1=User 24">
<g id="Vector_18">
<path fill-rule="evenodd" clip-rule="evenodd" d="M525 12.9986C526.657 12.9986 528 11.6555 528 9.9986C528 8.34174 526.657 6.9986 525 6.9986C523.343 6.9986 522 8.34174 522 9.9986C522 11.6555 523.343 12.9986 525 12.9986ZM525 14.9986C527.761 14.9986 530 12.76 530 9.9986C530 7.23717 527.761 4.9986 525 4.9986C522.239 4.9986 520 7.23717 520 9.9986C520 12.76 522.239 14.9986 525 14.9986Z" fill="#020202"/>
<path d="M520.83 16.9986H529.17C529.966 16.9986 530.729 17.3149 531.292 17.8779L532.854 19.4399C533.049 19.6351 533.049 19.9516 532.854 20.1468L532.146 20.8549C531.951 21.0502 531.634 21.0502 531.439 20.8549L529.878 19.2931C529.69 19.1055 529.435 19 529.17 19H520.83C520.565 19 520.31 19.1055 520.123 19.2931L518.561 20.8549C518.366 21.0502 518.049 21.0502 517.854 20.8549L517.146 20.1468C516.951 19.9516 516.951 19.6351 517.146 19.4399L518.708 17.8779C519.271 17.3149 520.034 16.9986 520.83 16.9986Z" fill="#020202"/>
</g>
</g>
<g id="Property 1=Fav 24">
<path id="Vector_19" d="M560.924 12.0696C560.365 15.7433 556.65 18.6823 553.23 19.9601C553.101 20.0227 552.902 20.003 552.77 19.9601C549.317 18.6823 545.602 15.7114 545.076 12.0696C544.813 10.3446 545.24 8.7473 546.26 7.59726C547.18 6.57502 548.463 6 549.843 6C551.027 6 552.112 6.41528 553 7.21392C553.888 6.41528 554.973 6 556.157 6C557.505 6 558.82 6.57502 559.74 7.59726C560.76 8.7473 561.187 10.3446 560.924 12.0696Z" fill="#020202"/>
</g>
<g id="Property 1=Cart 24">
<g id="Vector_20">
<path d="M551.859 37.8536L551.152 37.1464C550.957 36.9512 550.64 36.9512 550.445 37.1464L548.149 39.4431C547.953 39.6383 547.953 39.9549 548.149 40.1502L548.856 40.8573C549.051 41.0525 549.367 41.0525 549.563 40.8573L551.859 38.5607C552.055 38.3654 552.055 38.0488 551.859 37.8536Z" fill="#020202"/>
<path d="M554.149 37.8536L554.856 37.1464C555.051 36.9512 555.368 36.9512 555.563 37.1464L557.859 39.4431C558.055 39.6383 558.055 39.9549 557.859 40.1502L557.152 40.8573C556.957 41.0525 556.64 41.0525 556.445 40.8573L554.149 38.5607C553.953 38.3654 553.953 38.0488 554.149 37.8536Z" fill="#020202"/>
<path fill-rule="evenodd" clip-rule="evenodd" d="M547.003 42C545.084 42 543.658 43.7773 544.075 45.6508L545.186 50.6508C545.491 52.0234 546.708 53 548.114 53H557.886C559.292 53 560.509 52.0234 560.814 50.6508L561.925 45.6508C562.342 43.7773 560.916 42 558.997 42H547.003ZM548.678 46.2289L549.654 46.012C549.924 45.9521 550.191 46.1221 550.251 46.3916L550.728 48.5405C550.788 48.81 550.618 49.0771 550.349 49.137L549.372 49.3539C549.103 49.4138 548.836 49.2439 548.776 48.9743L548.298 46.8255C548.238 46.5559 548.408 46.2888 548.678 46.2289ZM557.322 46.2289L556.346 46.012C556.076 45.9521 555.809 46.1221 555.749 46.3916L555.272 48.5405C555.212 48.81 555.382 49.0771 555.652 49.137L556.628 49.3539C556.897 49.4138 557.164 49.2439 557.224 48.9743L557.702 46.8255C557.762 46.5559 557.592 46.2888 557.322 46.2289ZM553.502 46L552.502 46C552.226 46 552.002 46.2239 552.002 46.5L552.002 48.5C552.002 48.7761 552.226 49 552.502 49H553.502C553.778 49 554.002 48.7761 554.002 48.5L554.002 46.5C554.002 46.2239 553.778 46 553.502 46Z" fill="#020202"/>
</g>
</g>
<g id="Property 1=Search 24">
<path id="Vector_21" fill-rule="evenodd" clip-rule="evenodd" d="M585.19 50.6045C584.022 51.4797 582.571 51.9982 580.998 51.9982C577.132 51.9982 573.998 48.8641 573.998 44.9982C573.998 41.1322 577.132 37.9982 580.998 37.9982C584.864 37.9982 587.998 41.1322 587.998 44.9982C587.998 46.5705 587.48 48.0217 586.605 49.1903L589.855 52.4412C590.051 52.6365 590.051 52.953 589.855 53.1483L589.148 53.8554C588.953 54.0507 588.636 54.0507 588.441 53.8554L585.19 50.6045Z" fill="#020202"/>
</g>
<g id="Property 1=Map 24">
<g id="Vector_22">
<path d="M600 40.3469C600 40.1553 600.155 40 600.347 40C600.481 40 600.602 40.0771 600.663 40.1964C600.956 40.775 601.321 41.3436 601.697 41.8661C602.55 43.0544 603.515 44.0867 603.992 44.575C604.259 44.8489 604.624 45 605 45C605.376 45 605.74 44.8494 606.006 44.5762C606.483 44.0885 607.449 43.0554 608.303 41.8658C608.48 41.62 608.654 41.364 608.82 41.1015C609.232 40.4496 609.925 40 610.696 40H613L604 51H602C600.895 51 600 50.1046 600 49V40.3469Z" fill="#020202"/>
<path d="M606.5 51H616C617.105 51 618 50.1046 618 49V48H609L606.5 51Z" fill="#020202"/>
<path d="M618 46V42C618 40.8954 617.105 40 616 40H615.5L610.5 46H618Z" fill="#020202"/>
<path fill-rule="evenodd" clip-rule="evenodd" d="M602.172 34.1293C602.922 33.4062 603.939 33 605 33C606.061 33 607.078 33.4062 607.828 34.1293C608.579 34.8525 609 35.8334 609 36.856C609 38.9091 606.213 41.9332 605.291 42.8776C605.215 42.9557 605.11 43 605 43C604.89 43 604.785 42.9557 604.709 42.8776C603.787 41.9341 601 38.9088 601 36.856C601 35.8333 601.421 34.8524 602.172 34.1293ZM605 39C606.105 39 607 38.1046 607 37C607 35.8954 606.105 35 605 35C603.895 35 603 35.8954 603 37C603 38.1046 603.895 39 605 39Z" fill="#020202"/>
</g>
</g>
<g id="Property 1=Wallet 24">
<path id="Vector_23" fill-rule="evenodd" clip-rule="evenodd" d="M638.93 37.2404C635.67 38.5569 632.159 39.6461 629.032 41.25C628.417 41.591 628 42.2472 628 43.0006V51.0006C628 52.1052 628.895 53.0006 630 53.0006H644C645.105 53.0006 646 52.1052 646 51.0006V43.0006C646 41.896 645.105 41.0006 644 41.0006L643.23 39.0747C642.551 37.3785 640.624 36.5563 638.93 37.2404ZM644 44.0006C644 43.4483 643.552 43.0006 643 43.0006H631C630.448 43.0006 630 43.4483 630 44.0006V50.0006C630 50.5529 630.448 51.0006 631 51.0006H643C643.552 51.0006 644 50.5529 644 50.0006H642C640.895 50.0006 640 49.1052 640 48.0006V46.0006C640 44.896 640.895 44.0006 642 44.0006H644ZM644 46.0006V48.0006H642.5C642.224 48.0006 642 47.7768 642 47.5006V46.5006C642 46.2245 642.224 46.0006 642.5 46.0006H644Z" fill="#020202"/>
</g>
<g id="Property 1=Card 24">
<g id="Vector_24">
<path d="M657 39C656.448 39 656 39.4477 656 40V42H674V40C674 39.4477 673.552 39 673 39H657Z" fill="#020202"/>
<path fill-rule="evenodd" clip-rule="evenodd" d="M656 50C656 50.5523 656.448 51 657 51H673C673.552 51 674 50.5523 674 50V44H656V50ZM658.5 47C658.224 47 658 47.2239 658 47.5V48.5C658 48.7761 658.224 49 658.5 49H661.5C661.776 49 662 48.7761 662 48.5V47.5C662 47.2239 661.776 47 661.5 47H658.5Z" fill="#020202"/>
</g>
</g>
<g id="Property 1=Bank 24">
<g id="Vector_25">
<path d="M693 37L685 41H701L693 37Z" fill="#020202"/>
<path d="M685 51.5C685 51.2239 685.224 51 685.5 51H700.5C700.776 51 701 51.2239 701 51.5V52.5C701 52.7761 700.776 53 700.5 53H685.5C685.224 53 685 52.7761 685 52.5V51.5Z" fill="#020202"/>
<path d="M687 43.5C687 43.2239 687.224 43 687.5 43H688.5C688.776 43 689 43.2239 689 43.5V48.5C689 48.7761 688.776 49 688.5 49H687.5C687.224 49 687 48.7761 687 48.5V43.5Z" fill="#020202"/>
<path d="M692 43.5C692 43.2239 692.224 43 692.5 43H693.5C693.776 43 694 43.2239 694 43.5V48.5C694 48.7761 693.776 49 693.5 49H692.5C692.224 49 692 48.7761 692 48.5V43.5Z" fill="#020202"/>
<path d="M697 43.5C697 43.2239 697.224 43 697.5 43H698.5C698.776 43 699 43.2239 699 43.5V48.5C699 48.7761 698.776 49 698.5 49H697.5C697.224 49 697 48.7761 697 48.5V43.5Z" fill="#020202"/>
</g>
</g>
<g id="Property 1=Paragraph 24">
<g id="Vector_26">
<path d="M741 38.5C741 38.2239 741.224 38 741.5 38H756.5C756.776 38 757 38.2239 757 38.5V39.5C757 39.7761 756.776 40 756.5 40H741.5C741.224 40 741 39.7761 741 39.5V38.5Z" fill="#020202"/>
<path d="M741 42.5C741 42.2239 741.224 42 741.5 42H756.5C756.776 42 757 42.2239 757 42.5V43.5C757 43.7761 756.776 44 756.5 44H741.5C741.224 44 741 43.7761 741 43.5V42.5Z" fill="#020202"/>
<path d="M741 46.5C741 46.2239 741.224 46 741.5 46H756.5C756.776 46 757 46.2239 757 46.5V47.5C757 47.7761 756.776 48 756.5 48H741.5C741.224 48 741 47.7761 741 47.5V46.5Z" fill="#020202"/>
<path d="M741 50.5C741 50.2239 741.224 50 741.5 50H752.5C752.776 50 753 50.2239 753 50.5V51.5C753 51.7761 752.776 52 752.5 52H741.5C741.224 52 741 51.7761 741 51.5V50.5Z" fill="#020202"/>
</g>
</g>
<g id="Property 1=Filters 24">
<g id="Vector_27">
<path d="M741 66.5C741 66.2239 741.224 66 741.5 66H742.5C742.776 66 743 66.2239 743 66.5V67.5C743 67.7761 742.776 68 742.5 68H741.5C741.224 68 741 67.7761 741 67.5V66.5Z" fill="#020202"/>
<path d="M741 72.5C741 72.2239 741.224 72 741.5 72H748.5C748.776 72 749 72.2239 749 72.5V73.5C749 73.7761 748.776 74 748.5 74H741.5C741.224 74 741 73.7761 741 73.5V72.5Z" fill="#020202"/>
<path d="M755 72.5C755 72.2239 755.224 72 755.5 72H756.5C756.776 72 757 72.2239 757 72.5V73.5C757 73.7761 756.776 74 756.5 74H755.5C755.224 74 755 73.7761 755 73.5V72.5Z" fill="#020202"/>
<path d="M749 66.5C749 66.2239 749.224 66 749.5 66H756.5C756.776 66 757 66.2239 757 66.5V67.5C757 67.7761 756.776 68 756.5 68H749.5C749.224 68 749 67.7761 749 67.5V66.5Z" fill="#020202"/>
<path d="M741 78.5C741 78.2239 741.224 78 741.5 78H742.5C742.776 78 743 78.2239 743 78.5V79.5C743 79.7761 742.776 80 742.5 80H741.5C741.224 80 741 79.7761 741 79.5V78.5Z" fill="#020202"/>
<path d="M749 78.5C749 78.2239 749.224 78 749.5 78H756.5C756.776 78 757 78.2239 757 78.5V79.5C757 79.7761 756.776 80 756.5 80H749.5C749.224 80 749 79.7761 749 79.5V78.5Z" fill="#020202"/>
<path d="M744 66C744 65.4477 744.448 65 745 65H747C747.552 65 748 65.4477 748 66V68C748 68.5523 747.552 69 747 69H745C744.448 69 744 68.5523 744 68V66Z" fill="#020202"/>
<path d="M744 78C744 77.4477 744.448 77 745 77H747C747.552 77 748 77.4477 748 78V80C748 80.5523 747.552 81 747 81H745C744.448 81 744 80.5523 744 80V78Z" fill="#020202"/>
<path d="M750 72C750 71.4477 750.448 71 751 71H753C753.552 71 754 71.4477 754 72V74C754 74.5523 753.552 75 753 75H751C750.448 75 750 74.5523 750 74V72Z" fill="#020202"/>
</g>
</g>
<g id="Property 1=Ukrposhta 24">
<path id="Vector_28" d="M558.02 74.1835L552.721 72.9834C551.356 72.6751 550.398 71.4445 550.435 70.0448C550.472 68.6451 551.492 67.4664 552.872 67.2299C554.251 66.9934 555.606 67.7651 556.106 69.0727C556.607 70.3804 556.113 71.8595 554.929 72.605C554.906 72.6219 554.895 72.6503 554.9 72.678C554.906 72.7057 554.927 72.7278 554.954 72.7349L557.311 73.2686C557.367 73.2816 557.426 73.2606 557.461 73.215C558.603 71.7063 558.821 69.6914 558.029 67.973C557.237 66.2546 555.564 65.1121 553.675 65.0007H553.455C551.254 64.9663 549.22 66.1676 548.186 68.1115C547.153 70.0555 547.295 72.4145 548.554 74.2202L553.269 80.9548C553.289 80.9832 553.322 81 553.358 81C553.393 81 553.426 80.9832 553.447 80.9548L558.087 74.3614C558.112 74.3309 558.119 74.2896 558.105 74.253C558.091 74.2163 558.058 74.1899 558.02 74.1835Z" fill="#020202"/>
</g>
<g id="Property 1=Phone 24">
<g id="Vector_29">
<path d="M722 51C722 51.5523 721.552 52 721 52C720.448 52 720 51.5523 720 51C720 50.4477 720.448 50 721 50C721.552 50 722 50.4477 722 51Z" fill="#020202"/>
<path fill-rule="evenodd" clip-rule="evenodd" d="M716 36C715.448 36 715 36.4477 715 37V53C715 53.5523 715.448 54 716 54H726C726.552 54 727 53.5523 727 53V37C727 36.4477 726.552 36 726 36H716ZM716.5 37C716.224 37 716 37.2239 716 37.5V52.5C716 52.7761 716.224 53 716.5 53H725.5C725.776 53 726 52.7761 726 52.5V37.5C726 37.2239 725.776 37 725.5 37H724L723.293 37.7071C723.105 37.8946 722.851 38 722.586 38H719.414C719.149 38 718.895 37.8946 718.707 37.7071L718 37H716.5Z" fill="#020202"/>
</g>
</g>
<g id="Property 1=Menu Dots 24">
<g id="Vector_30">
<path d="M405 44C405 43.4477 405.448 43 406 43L408 43C408.552 43 409 43.4477 409 44V46C409 46.5523 408.552 47 408 47H406C405.448 47 405 46.5523 405 46V44Z" fill="#020202"/>
<path d="M411 44C411 43.4477 411.448 43 412 43L414 43C414.552 43 415 43.4477 415 44V46C415 46.5523 414.552 47 414 47H412C411.448 47 411 46.5523 411 46V44Z" fill="#020202"/>
<path d="M417 44C417 43.4477 417.448 43 418 43L420 43C420.552 43 421 43.4477 421 44V46C421 46.5523 420.552 47 420 47H418C417.448 47 417 46.5523 417 46V44Z" fill="#020202"/>
</g>
</g>
<g id="Property 1=Update 24">
<path id="Vector_31" d="M580.5 18C581.881 18 583.131 17.4404 584.036 16.5355L585.45 17.9498C584.183 19.2165 582.433 20 580.5 20C576.634 20 573.5 16.866 573.5 13C573.5 9.13401 576.634 6 580.5 6C583.046 6 585.275 7.35958 586.5 9.39242L586.5 7L588.5 7L588.5 13L582.5 13V11L585.084 11C584.312 9.2341 582.55 8 580.5 8C577.739 8 575.5 10.2386 575.5 13C575.5 15.7614 577.739 18 580.5 18Z" fill="#020202"/>
</g>
<g id="Property 1=Key 24">
<path id="Vector_32" fill-rule="evenodd" clip-rule="evenodd" d="M605 17C606.864 17 608.43 15.7252 608.874 14H612V15.5C612 15.7761 612.224 16 612.5 16H615.5C615.776 16 616 15.7761 616 15.5V14H616.5C616.776 14 617 13.7761 617 13.5V12.5C617 12.2239 616.776 12 616.5 12H608.874C608.43 10.2748 606.864 9 605 9C602.791 9 601 10.7909 601 13C601 15.2091 602.791 17 605 17ZM605 15C606.105 15 607 14.1046 607 13C607 11.8954 606.105 11 605 11C603.895 11 603 11.8954 603 13C603 14.1046 603.895 15 605 15Z" fill="#020202"/>
</g>
<g id="Property 1=Email 24">
<path id="Vector_33" fill-rule="evenodd" clip-rule="evenodd" d="M633 7H641C642.105 7 643 7.89543 643 9V14C643 14.5523 642.552 15 642 15C641.448 15 641 14.5523 641 14V13C641 10.7909 639.209 9 637 9C634.791 9 633 10.7909 633 13C633 15.2091 634.791 17 637 17C638.046 17 638.999 16.5982 639.712 15.9404C640.262 16.5886 641.083 17 642 17C643.657 17 645 15.6569 645 14V9C645 6.79086 643.209 5 641 5H633C630.791 5 629 6.79086 629 9V17C629 19.2091 630.791 21 633 21H640.5C640.776 21 641 20.7761 641 20.5V19.5C641 19.2239 640.776 19 640.5 19H633C631.895 19 631 18.1046 631 17V9C631 7.89543 631.895 7 633 7ZM639 13C639 11.8954 638.105 11 637 11C635.895 11 635 11.8954 635 13C635 14.1046 635.895 15 637 15C638.105 15 639 14.1046 639 13Z" fill="#020202"/>
</g>
<g id="Property 1=Eye 24">
<g id="Vector_34">
<path fill-rule="evenodd" clip-rule="evenodd" d="M659.212 13.0002C659.916 14.1398 661.08 15.0793 662.562 15.592C665.826 16.7206 669.289 15.4218 670.788 12.9998C670.084 11.8602 668.92 10.9207 667.438 10.408C664.174 9.27936 660.711 10.5782 659.212 13.0002ZM668.092 8.51786C663.688 6.99521 658.734 8.94419 657.027 12.871C656.991 12.954 656.991 13.046 657.027 13.129C657.896 15.1273 659.668 16.7073 661.908 17.4821C666.312 19.0048 671.266 17.0558 672.973 13.129C673.009 13.046 673.009 12.954 672.973 12.871C672.104 10.8727 670.332 9.29272 668.092 8.51786Z" fill="#020202"/>
<path d="M667 13C667 14.1046 666.105 15 665 15C663.895 15 663 14.1046 663 13C663 11.8954 663.895 11 665 11C666.105 11 667 11.8954 667 13Z" fill="#020202"/>
</g>
</g>
<g id="Property 1=Eye Slash 24">
<g id="Vector_35">
<path d="M698.408 6.14935C698.608 5.95022 698.93 5.95022 699.13 6.14935L699.851 6.87047C700.05 7.0696 700.05 7.39246 699.851 7.59159L687.592 19.8507C687.393 20.0498 687.07 20.0498 686.871 19.8507L686.149 19.1295C685.95 18.9304 685.95 18.6075 686.149 18.4084L698.408 6.14935Z" fill="#020202"/>
<path d="M694.289 8.85419C694.57 8.57323 694.425 8.09875 694.03 8.05575C690.238 7.64302 686.471 9.54946 685.027 12.871C684.991 12.954 684.991 13.046 685.027 13.129C685.442 14.0823 686.062 14.9405 686.84 15.6614C687.029 15.8367 687.322 15.8218 687.504 15.6394L688.205 14.939C688.417 14.7264 688.394 14.3768 688.175 14.1713C687.795 13.816 687.472 13.4218 687.212 13.0002C688.328 11.1972 690.532 10.0166 692.933 9.99658C693.069 9.99544 693.2 9.94344 693.296 9.84718L694.289 8.85419Z" fill="#020202"/>
<path d="M692.704 16.1528C692.8 16.0566 692.931 16.0046 693.067 16.0034C695.468 15.9834 697.672 14.8028 698.788 12.9998C698.528 12.5782 698.205 12.1841 697.825 11.8287C697.606 11.6232 697.583 11.2736 697.795 11.061L698.496 10.3606C698.678 10.1782 698.971 10.1633 699.16 10.3386C699.938 11.0595 700.558 11.9177 700.973 12.871C701.009 12.954 701.009 13.046 700.973 13.129C699.529 16.4506 695.762 18.357 691.97 17.9443C691.575 17.9013 691.43 17.4268 691.711 17.1458L692.704 16.1528Z" fill="#020202"/>
</g>
</g>
<g id="Property 1=Attachment 24">
<path id="Vector_36" fill-rule="evenodd" clip-rule="evenodd" d="M720.549 6.24422C722.254 4.58526 725.006 4.58526 726.71 6.24422C728.43 7.91789 728.43 10.6429 726.71 12.3166L721.944 16.9558C720.898 17.9742 719.213 17.9742 718.166 16.9558C717.105 15.9226 717.105 14.2361 718.166 13.203L722.812 8.68142C723.207 8.2962 723.84 8.30475 724.226 8.70051C724.611 9.09626 724.602 9.72937 724.207 10.1146L719.561 14.6362C719.306 14.8841 719.306 15.2747 719.561 15.5226C719.831 15.7853 720.279 15.7853 720.549 15.5226L725.315 10.8834C726.228 9.99493 726.228 8.56588 725.315 7.67739C724.387 6.7742 722.872 6.7742 721.944 7.67739L717.178 12.3166C715.607 13.8456 715.607 16.3132 717.178 17.8422C718.764 19.3859 721.346 19.3859 722.932 17.8422L724.957 15.8714C725.155 15.6787 725.472 15.683 725.664 15.8809L726.362 16.5975C726.554 16.7954 726.55 17.1119 726.352 17.3045L724.327 19.2754C721.965 21.5749 718.146 21.5749 715.783 19.2754C713.406 16.9612 713.406 13.1976 715.783 10.8834L720.549 6.24422Z" fill="#020202"/>
</g>
<g id="Property 1=Time 24">
<path id="Vector_37" d="M748 6.5C748 6.22386 748.224 6 748.5 6H749.5C749.776 6 750 6.22386 750 6.5V12.2676C750.598 12.6134 751 13.2597 751 14C751 14.1792 750.976 14.3528 750.932 14.518L754.854 18.4393C755.049 18.6346 755.049 18.9512 754.854 19.1464L754.146 19.8536C753.951 20.0488 753.635 20.0488 753.439 19.8536L749.518 15.9323C749.353 15.9764 749.179 16 749 16C747.895 16 747 15.1046 747 14C747 13.2597 747.402 12.6134 748 12.2676V6.5Z" fill="#020202"/>
</g>
<g id="Property 1=Ukraine 24">
<path id="Vector_38" d="M785.769 11.4798L786 11.1551L785.995 11.0385L785.9 10.9219L785.858 10.726L785.789 10.6523L783.917 10.0935H783.87L783.528 10.1607L783.137 9.72126L783.044 9.69048L782.384 9.83601L782.324 9.87706L782.285 9.93677L781.364 9.82202L781.206 9.52628L781.223 9.27347L781.213 9.22589L780.88 8.55699L780.721 8.53274L780.661 8.59711L780.337 8.65401L780.192 8.60177L779.974 8.16238L779.993 8.11201L780.159 7.98793L780.197 7.89278L780.171 7.75191L780.152 7.70899L779.694 7.1502L779.637 7.11661L779.025 7H778.977L778.571 7.12408L778.334 7.0765L778.252 7.09516L777.811 7.45805L777.067 7.34796L777.007 7.36009L776.724 7.51309L776.685 7.55134L776.38 8.10268L776.376 8.18851L776.47 8.39842L776.46 8.44413L775.711 8.24822L775.637 8.25755L775.577 8.293L775.364 8.28833L775.301 8.18572L775.231 8.13814L775.033 8.10455L774.951 8.13068L774.793 8.27621L774.745 8.26222L774.699 8.19785H774.582L774.397 8.02339L774.256 8.03086L774.217 8.07657L774.047 8.04765L773.944 8.09803L773.908 8.1652L773.839 8.05325L773.776 8.00754L770.872 7.38903L770.786 7.41329L770.713 7.47766L770.683 7.54016L770.443 7.73327L770.161 7.69782L770.051 7.78365L769.983 8.43575L769.996 8.49266L770.231 8.92739L770.137 9.05427L770.235 9.30243L770.2 9.46009L768.772 10.7596L768.741 10.8408L768.787 11.3753L768.71 11.3399H768.617L768.592 11.3539L768.545 11.4304L768.537 11.5451L768.019 12.214L768 12.2737V12.3456L768.026 12.4146L768.686 13.1021L768.734 13.1283L768.935 13.174L768.993 13.1693L769.16 13.1049L770.843 13.7785H770.915L773.442 12.854L774.423 13.4464L774.488 13.4585L774.997 13.7356L775.105 14.4185L775.138 14.4782L775.352 14.662L775.335 14.8821L775.347 14.939L775.841 15.8011L775.675 15.7768L775.597 15.8011L775.57 15.8225L775.378 15.7917H775.354L775.152 15.8104L775.114 15.8318L775.023 15.6742L774.851 15.6788L774.685 16.011L774.677 16.0781L774.734 16.2983L774.672 16.4821L774.273 16.8049L774.242 16.8524L774.19 17.0344L774.089 17.0941L774.041 17.1659L774.007 17.3973L774.05 17.4924L774.314 17.6687L774.393 17.6827L775.284 17.4486L775.55 17.4896V17.2032L775.596 17.0623L775.779 16.8879L775.882 16.914H775.942L776.134 16.845L776.182 16.8039L776.803 15.8151L777.451 15.7218L777.784 15.6266L777.857 15.5548L777.873 15.5193L777.919 15.579L778.056 15.6649L777.929 15.6462L777.818 15.7087L777.695 16.0697L777.751 16.2078L778.266 16.4158L778.314 16.4205L779.127 16.3366L779.56 16.5297V16.5558L778.425 17.2965L778.381 17.3991L778.403 17.5111L778.472 17.5848L779.262 17.8068L779.518 18.0718L779.377 18.6185L779.415 18.7211L779.8 18.9813L780.054 19L780.466 18.8423L780.514 18.792L780.66 18.4412L781.37 18.1781L781.43 18.1184L781.44 18.0895L781.73 17.8842L782.556 17.9197L782.638 17.8814L782.719 17.776L782.736 17.7023L782.724 17.6305L782.791 17.4392L782.839 17.3963L782.868 17.3394L782.882 17.2443L782.82 17.1388L782.738 17.1099L782.687 17.1053L781.295 17.3394L780.952 16.7591L780.883 16.7116L780.754 16.6901L780.697 16.6164L780.629 16.5782L780.257 16.5371L780.283 16.4634L780.106 16.3319L780.295 16.2936L780.432 16.3561L780.483 16.3636L780.893 16.3179L780.956 16.2843L781.193 15.9736L781.201 15.9643V15.9764L781.069 16.2106L781.09 16.3561L781.246 16.4186L781.337 16.4112L781.612 16.2321L781.653 16.1294L781.627 16.0054L782.167 15.4941L782.236 15.5109L782.301 15.5063L782.764 15.301L782.819 15.4064L782.973 15.4326L783.638 14.8187L784.312 14.6153L784.381 14.5267L784.419 13.9511L785.182 13.4949L785.624 13.4809L785.715 13.4137L785.902 12.8596L785.893 12.7784L785.794 12.618L785.813 12.4697L785.806 12.4193L785.669 12.0946L785.69 12.0135L785.884 11.8082L785.661 11.6291L785.774 11.5004L785.769 11.4798Z" fill="#020202"/>
</g>
<g id="Property 1=Cash Delivery 24">
<g id="Vector_39">
<path d="M774 46.2344V45.4946H777.993C778.073 45.4187 778.13 45.3397 778.163 45.2575C778.203 45.1752 778.223 45.0804 778.223 44.9729C778.223 44.7136 778.126 44.4986 777.933 44.3279C777.747 44.1509 777.474 44.0623 777.115 44.0623C776.802 44.0623 776.542 44.1414 776.336 44.2995C776.136 44.4512 775.97 44.6725 775.837 44.9634L774.499 44.8401C774.659 44.271 774.958 43.822 775.398 43.4932C775.844 43.1644 776.396 43 777.055 43C777.581 43 778.03 43.0822 778.403 43.2466C778.775 43.4047 779.058 43.6292 779.251 43.9201C779.451 44.2046 779.551 44.5429 779.551 44.935C779.551 45.0488 779.534 45.1563 779.501 45.2575C779.474 45.3523 779.441 45.4313 779.401 45.4946H780V46.2344H774Z" fill="#020202"/>
<path d="M776.945 50C776.446 50 776.013 49.9273 775.647 49.7818C775.281 49.6301 774.998 49.4182 774.799 49.1463C774.599 48.8681 774.499 48.5425 774.499 48.1694C774.499 48.0619 774.509 47.967 774.529 47.8848C774.549 47.7963 774.572 47.7204 774.599 47.6572H774V46.9173H780V47.6572H775.977C775.937 47.7204 775.9 47.79 775.867 47.8659C775.84 47.9354 775.827 48.0145 775.827 48.103C775.827 48.3433 775.927 48.5425 776.126 48.7005C776.333 48.8523 776.596 48.9282 776.915 48.9282C777.221 48.9282 777.491 48.8618 777.724 48.729C777.963 48.5899 778.14 48.4033 778.253 48.1694L779.681 48.2453C779.534 48.7891 779.215 49.2191 778.722 49.5352C778.236 49.8451 777.644 50 776.945 50Z" fill="#020202"/>
<path fill-rule="evenodd" clip-rule="evenodd" d="M781.8 53C783.6 53 785 51.6 785 49.8V40.2C785 38.4 783.6 37 781.8 37H772.2C770.4 37 769 38.4 769 40.2V49.8C769 51.6 770.4 53 772.2 53H781.8ZM781.8 51C782.495 51 783 50.4954 783 49.8V40.2C783 39.5046 782.495 39 781.8 39H780V41.4963C780 41.8376 779.666 42.0786 779.342 41.9706L777.158 41.2427C777.055 41.2085 776.945 41.2085 776.842 41.2427L774.658 41.9706C774.334 42.0786 774 41.8376 774 41.4963V39H772.2C771.505 39 771 39.5046 771 40.2V49.8C771 50.4954 771.505 51 772.2 51H781.8Z" fill="#020202"/>
</g>
</g>
<g id="Property 1=Box 24">
<path id="Vector_40" fill-rule="evenodd" clip-rule="evenodd" d="M776.499 62.1351C776.809 61.9556 777.191 61.9556 777.501 62.1351L786.001 67.0561C786.31 67.2349 786.5 67.5647 786.5 67.9215V78.0784C786.5 78.4353 786.31 78.7651 786.001 78.9439L777.501 83.8649C777.191 84.0443 776.809 84.0443 776.499 83.8649L767.999 78.9439C767.69 78.7651 767.5 78.4353 767.5 78.0784V67.9215C767.5 67.5647 767.69 67.2349 767.999 67.0561L776.499 62.1351ZM779.969 74.6262L783.531 72.5637V69.0637L778.781 66.3137L775.219 68.3762L779.969 71.1262V74.6262ZM772.25 77.5925V79.655L768.688 77.5925V75.53L772.25 77.5925Z" fill="#020202"/>
</g>
<g id="Property 1=Item 24">
<g id="Vector_41">
<path fill-rule="evenodd" clip-rule="evenodd" d="M772 98C771.448 98 771 98.4477 771 99V109C771 109.552 771.448 110 772 110H782C782.552 110 783 109.552 783 109V99C783 98.4477 782.552 98 782 98H772ZM773.5 104C773.224 104 773 104.224 773 104.5V107.5C773 107.776 773.224 108 773.5 108H780.5C780.776 108 781 107.776 781 107.5V104.5C781 104.224 780.776 104 780.5 104H773.5Z" fill="#020202"/>
<path fill-rule="evenodd" clip-rule="evenodd" d="M772 92C771.448 92 771 92.4477 771 93V96C771 96.5523 771.448 97 772 97H782C782.552 97 783 96.5523 783 96V93C783 92.4477 782.552 92 782 92H772ZM776 94C776 93.4477 776.448 93 777 93C777.552 93 778 93.4477 778 94H779C779.552 94 780 94.4477 780 95C780 95.5523 779.552 96 779 96H775C774.448 96 774 95.5523 774 95C774 94.4477 774.448 94 775 94H776Z" fill="#020202"/>
<path d="M774 105.5C774 105.224 774.224 105 774.5 105H779.5C779.776 105 780 105.224 780 105.5V106.5C780 106.776 779.776 107 779.5 107H774.5C774.224 107 774 106.776 774 106.5V105.5Z" fill="#020202"/>
</g>
</g>
<g id="Property 1=Check 16">
<path id="Vector_42" d="M1015 26.7087C1015 26.7741 1014.99 26.8388 1014.96 26.8989C1014.93 26.9591 1014.9 27.0135 1014.85 27.0589L1009.71 32.204C1009.62 32.2978 1009.51 32.3722 1009.38 32.423C1009.26 32.4738 1009.13 32.5 1009 32.5C1008.87 32.5 1008.74 32.4738 1008.62 32.423C1008.49 32.3722 1008.38 32.2978 1008.29 32.204L1005.15 29.0614C1005.1 29.016 1005.07 28.9616 1005.04 28.9015C1005.01 28.8413 1005 28.7766 1005 28.7112C1005 28.576 1005.05 28.4464 1005.15 28.351L1005.85 27.6505C1005.9 27.6036 1005.95 27.5664 1006.01 27.541C1006.07 27.5156 1006.14 27.5025 1006.2 27.5025C1006.27 27.5025 1006.34 27.5156 1006.4 27.541C1006.46 27.5664 1006.51 27.6036 1006.56 27.6505L1009 30.0927L1013.44 25.648C1013.49 25.6011 1013.54 25.5639 1013.6 25.5385C1013.66 25.5131 1013.73 25.5 1013.8 25.5C1013.86 25.5 1013.93 25.5131 1013.99 25.5385C1014.05 25.5639 1014.1 25.6011 1014.15 25.648L1014.85 26.3484C1014.95 26.4439 1015 26.5734 1015 26.7087Z" fill="#020202"/>
</g>
<g id="Property 1=Close 16">
<path id="Vector_43" d="M1012.86 46.5588C1013.05 46.3635 1013.05 46.047 1012.86 45.8517L1012.15 45.1446C1011.95 44.9493 1011.64 44.9493 1011.44 45.1446L1009 47.5858L1006.56 45.1446C1006.36 44.9493 1006.05 44.9493 1005.85 45.1446L1005.14 45.8517C1004.95 46.047 1004.95 46.3635 1005.14 46.5588L1007.59 49L1005.14 51.4412C1004.95 51.6365 1004.95 51.953 1005.14 52.1483L1005.85 52.8554C1006.05 53.0507 1006.36 53.0507 1006.56 52.8554L1009 50.4142L1011.44 52.8554C1011.64 53.0507 1011.95 53.0507 1012.15 52.8554L1012.86 52.1483C1013.05 51.9531 1013.05 51.6365 1012.86 51.4412L1010.41 49L1012.86 46.5588Z" fill="#020202"/>
</g>
<g id="Property 1=Plus 16">
<path id="Vector_44" d="M1030 48V44.5C1030 44.2239 1029.78 44 1029.5 44H1028.5C1028.22 44 1028 44.2239 1028 44.5V48H1024.5C1024.22 48 1024 48.2239 1024 48.5V49.5C1024 49.7761 1024.22 50 1024.5 50H1028V53.5C1028 53.7761 1028.22 54 1028.5 54H1029.5C1029.78 54 1030 53.7761 1030 53.5V50H1033.5C1033.78 50 1034 49.7761 1034 49.5V48.5C1034 48.2239 1033.78 48 1033.5 48H1030Z" fill="#020202"/>
</g>
<g id="Property 1=Delivery 16">
<g id="Vector_45">
<path d="M1005.5 64C1005.22 64 1005 64.2239 1005 64.5V65.5C1005 65.7761 1005.22 66 1005.5 66H1012.5C1012.78 66 1013 65.7761 1013 65.5V64.5C1013 64.2239 1012.78 64 1012.5 64H1005.5Z" fill="#020202"/>
<path d="M1007.5 68C1007.22 68 1007 68.2239 1007 68.5V69.5C1007 69.7761 1007.22 70 1007.5 70H1014.5C1014.78 70 1015 69.7761 1015 69.5V68.5C1015 68.2239 1014.78 68 1014.5 68H1007.5Z" fill="#020202"/>
<path d="M1003.5 72C1003.22 72 1003 72.2239 1003 72.5V73.5C1003 73.7761 1003.22 74 1003.5 74H1010.5C1010.78 74 1011 73.7761 1011 73.5V72.5C1011 72.2239 1010.78 72 1010.5 72H1003.5Z" fill="#020202"/>
</g>
</g>
<g id="Property 1=Check 24">
<path id="Vector_46" d="M448 41.2087C448 41.2741 447.986 41.3388 447.96 41.3989C447.935 41.4591 447.897 41.5135 447.85 41.5589L439.71 49.704C439.617 49.7978 439.506 49.8722 439.385 49.923C439.263 49.9738 439.132 50 439 50C438.868 50 438.737 49.9738 438.615 49.923C438.494 49.8722 438.383 49.7978 438.29 49.704L434.15 45.5614C434.103 45.516 434.065 45.4616 434.04 45.4015C434.014 45.3413 434 45.2766 434 45.2112C434 45.076 434.054 44.9464 434.15 44.851L434.85 44.1505C434.896 44.1036 434.952 44.0664 435.013 44.041C435.074 44.0156 435.139 44.0025 435.205 44.0025C435.271 44.0025 435.336 44.0156 435.397 44.041C435.458 44.0664 435.514 44.1036 435.56 44.1505L439 47.5927L446.44 40.148C446.486 40.1011 446.542 40.0639 446.603 40.0385C446.664 40.0131 446.729 40 446.795 40C446.861 40 446.926 40.0131 446.987 40.0385C447.048 40.0639 447.104 40.1011 447.15 40.148L447.85 40.8484C447.946 40.9439 448 41.0734 448 41.2087Z" fill="#020202"/>
</g>
<g id="Property 1=Check 48">
<path id="Vector_47" d="M39 17.4173C38.9992 17.5482 38.9723 17.6776 38.9208 17.7979C38.8693 17.9182 38.7942 18.027 38.7 18.1178L22.42 34.408C22.2341 34.5956 22.0129 34.7445 21.7692 34.8461C21.5254 34.9477 21.264 35 21 35C20.736 35 20.4746 34.9477 20.2308 34.8461C19.9871 34.7445 19.7659 34.5956 19.58 34.408L11.3 26.1228C11.2058 26.032 11.1307 25.9232 11.0792 25.8029C11.0277 25.6826 11.0008 25.5532 11 25.4224C11.0007 25.1519 11.1086 24.8928 11.3 24.7019L12.7 23.301C12.793 23.2072 12.9036 23.1328 13.0254 23.082C13.1473 23.0312 13.278 23.005 13.41 23.005C13.542 23.005 13.6727 23.0312 13.7946 23.082C13.9164 23.1328 14.027 23.2072 14.12 23.301L21 30.1854L35.88 15.296C35.973 15.2022 36.0836 15.1278 36.2054 15.077C36.3273 15.0262 36.458 15 36.59 15C36.722 15 36.8527 15.0262 36.9746 15.077C37.0964 15.1278 37.207 15.2022 37.3 15.296L38.7 16.6969C38.8914 16.8878 38.9993 17.1469 39 17.4173Z" fill="#020202"/>
</g>
<g id="Property 1=Assortment 48">
<g id="Vector_48">
<path fill-rule="evenodd" clip-rule="evenodd" d="M81.987 30C79.779 30 77.989 31.7909 77.989 34C77.989 36.2091 79.779 38 81.987 38C84.1951 38 85.9851 36.2091 85.9851 34C85.9851 31.7909 84.1951 30 81.987 30ZM73.991 34C73.991 29.5817 77.571 26 81.987 26C86.4031 26 89.9831 29.5817 89.9831 34C89.9831 38.4183 86.4031 42 81.987 42C77.571 42 73.991 38.4183 73.991 34Z" fill="#020202"/>
<path fill-rule="evenodd" clip-rule="evenodd" d="M61.0767 26.9714C62.814 25.6762 65.1781 25.6762 66.9153 26.9714L69.9777 29.2546C71.7022 30.5403 72.4 32.7916 71.7549 34.829L70.5852 38.5232C69.9376 40.5685 68.059 42 65.8887 42H62.1034C59.933 42 58.0545 40.5685 57.4069 38.5232L56.2372 34.829C55.5921 32.7916 56.2899 30.5403 58.0144 29.2546L61.0767 26.9714ZM64.5264 30.1788C64.2067 29.9404 63.7854 29.9404 63.4656 30.1788L60.4033 32.462C60.0709 32.7098 59.9079 33.1769 60.0485 33.621L61.2182 37.3152C61.3563 37.7514 61.7312 38 62.1034 38H65.8887C66.2609 38 66.6357 37.7514 66.7739 37.3152L67.9436 33.621C68.0842 33.1769 67.9212 32.7098 67.5887 32.462L64.5264 30.1788Z" fill="#020202"/>
<path fill-rule="evenodd" clip-rule="evenodd" d="M60.3729 9.5015C62.3739 7.4995 65.6181 7.4995 67.6191 9.5015L70.4913 12.3751C72.4923 14.3771 72.4923 17.6229 70.4913 19.6249L67.6191 22.4985C65.6181 24.5005 62.3739 24.5005 60.3729 22.4985L57.5007 19.6249C55.4997 17.6229 55.4998 14.3771 57.5007 12.3751L60.3729 9.5015ZM64.7921 12.3299C64.3524 11.89 63.6396 11.89 63.1999 12.3299L60.3278 15.2035C59.8881 15.6434 59.8881 16.3566 60.3278 16.7965L63.1999 19.6701C63.6396 20.11 64.3524 20.11 64.7921 19.6701L67.6643 16.7965C68.1039 16.3566 68.1039 15.6434 67.6643 15.2035L64.7921 12.3299Z" fill="#020202"/>
<path fill-rule="evenodd" clip-rule="evenodd" d="M77.6014 11.0213C79.494 7.65956 84.4801 7.65955 86.3727 11.0213L89.3691 16.3439C91.2762 19.7315 88.5835 23.5 84.9835 23.5H78.9906C75.3906 23.5 72.6979 19.7315 74.605 16.3439L77.6014 11.0213ZM81.9871 12.5C81.5708 12.5 81.2491 12.6927 81.0849 12.9844L78.0884 18.3069C77.9449 18.5619 77.9615 18.8172 78.1098 19.0513C78.2632 19.2936 78.5606 19.5 78.9906 19.5H84.9835C85.4136 19.5 85.7109 19.2936 85.8644 19.0513C86.0126 18.8172 86.0292 18.5619 85.8857 18.3069L82.8893 12.9844C82.7251 12.6927 82.4033 12.5 81.9871 12.5Z" fill="#020202"/>
</g>
</g>
<g id="Property 1=Location 48">
<path id="Vector_49" fill-rule="evenodd" clip-rule="evenodd" d="M118.961 35.2394C119.3 35.6675 119.633 36.0883 119.955 36.5007H119.983C120.226 36.8147 120.608 37 121.014 37C121.42 37 121.801 36.8147 122.044 36.5007C122.36 36.0963 122.687 35.6838 123.019 35.2641C126.277 31.1518 130.086 26.3439 129.999 21.5921C129.895 16.6741 126.113 13 121 13C115.887 13 112.091 16.6743 112.001 21.5921C111.915 26.3349 115.709 31.1292 118.961 35.2394ZM121 26C123.209 26 125 24.2091 125 22C125 19.7909 123.209 18 121 18C118.791 18 117 19.7909 117 22C117 24.2091 118.791 26 121 26Z" fill="#020202"/>
</g>
<g id="Property 1=Star 48">
<path id="Vector_50" d="M167.673 13.7412C168.273 12.7529 169.727 12.7529 170.327 13.7412L173.555 19.0654C173.776 19.4293 174.141 19.6861 174.562 19.7737L180.773 21.0656C181.943 21.3089 182.401 22.711 181.593 23.5787L177.399 28.0876C177.101 28.408 176.957 28.8385 177.002 29.2705L177.64 35.3211C177.762 36.4755 176.576 37.3327 175.493 36.8741L169.611 34.3843C169.221 34.2193 168.779 34.2193 168.389 34.3843L162.507 36.8741C161.424 37.3327 160.238 36.4755 160.36 35.3211L160.998 29.2705C161.043 28.8385 160.899 28.408 160.601 28.0876L156.407 23.5787C155.599 22.711 156.057 21.3089 157.227 21.0656L163.438 19.7737C163.859 19.6861 164.224 19.4293 164.445 19.0654L167.673 13.7412Z" fill="#020202"/>
</g>
<g id="Property 1=Plus 24">
<path id="Vector_51" d="M470 44V38.5C470 38.2239 469.776 38 469.5 38H468.5C468.224 38 468 38.2239 468 38.5V44H462.5C462.224 44 462 44.2239 462 44.5V45.5C462 45.7761 462.224 46 462.5 46H468V51.5C468 51.7761 468.224 52 468.5 52H469.5C469.776 52 470 51.7761 470 51.5V46H475.5C475.776 46 476 45.7761 476 45.5V44.5C476 44.2239 475.776 44 475.5 44H470Z" fill="#020202"/>
</g>
<g id="Property 1=Minus 24">
<path id="Vector_52" d="M490.5 44C490.224 44 490 44.2239 490 44.5V45.5C490 45.7761 490.224 46 490.5 46H503.5C503.776 46 504 45.7761 504 45.5V44.5C504 44.2239 503.776 44 503.5 44H490.5Z" fill="#020202"/>
</g>
<g id="Property 1=Close 24">
<path id="Vector_53" d="M530.855 40.5588C531.051 40.3635 531.051 40.0469 530.855 39.8517L530.148 39.1446C529.953 38.9493 529.636 38.9493 529.441 39.1446L525 43.5858L520.559 39.1446C520.364 38.9493 520.047 38.9493 519.852 39.1446L519.145 39.8517C518.949 40.0469 518.949 40.3635 519.145 40.5588L523.586 45L519.145 49.4412C518.949 49.6364 518.949 49.953 519.145 50.1483L519.852 50.8554C520.047 51.0506 520.364 51.0507 520.559 50.8554L525 46.4142L529.441 50.8554C529.637 51.0507 529.953 51.0507 530.148 50.8554L530.855 50.1483C531.051 49.953 531.051 49.6364 530.855 49.4412L526.414 45L530.855 40.5588Z" fill="#020202"/>
</g>
<g id="Property 1=Facebook 24">
<path id="Vector_54" d="M416.606 73.9342L417.042 71.066H414.311V69.2071C414.293 68.9926 414.323 68.7768 414.398 68.5754C414.473 68.374 414.592 68.192 414.745 68.0427C414.899 67.8934 415.083 67.7805 415.286 67.7123C415.488 67.644 415.702 67.622 415.914 67.648H417.2V65.2095C416.477 65.0865 415.746 65.0196 415.013 65.0096C414.506 64.9716 413.997 65.0466 413.522 65.2293C413.046 65.412 412.617 65.6979 412.263 66.0668C411.909 66.4357 411.639 66.8787 411.474 67.3643C411.308 67.8499 411.25 68.3664 411.303 68.8773V71.066H408.8V73.9342H411.264V81H414.331V73.9342H416.606Z" fill="#020202"/>
</g>
<g id="Property 1=NP 24">
<path id="Vector_55" fill-rule="evenodd" clip-rule="evenodd" d="M446.423 69.411C446.478 69.3939 446.549 69.4281 446.621 69.5223C446.621 69.5223 446.621 69.5223 449.858 72.6769C450.047 72.8652 450.047 73.1504 449.858 73.2902C449.858 73.2902 449.858 73.2902 446.621 76.4933C446.549 76.5874 446.478 76.6102 446.423 76.5817C446.369 76.5532 446.334 76.4705 446.334 76.3507V69.6164C446.334 69.4995 446.369 69.4282 446.423 69.411ZM435.577 76.589C435.522 76.6061 435.451 76.5719 435.379 76.4777C435.379 76.4777 435.379 76.4777 432.142 73.3231C431.953 73.1348 431.953 72.8496 432.142 72.7098C432.142 72.7098 432.142 72.7098 435.379 69.5067C435.451 69.4126 435.522 69.3898 435.577 69.4183C435.631 69.4468 435.666 69.5295 435.666 69.6493V76.3836C435.666 76.5005 435.631 76.5718 435.577 76.589ZM444.499 67.3835C441.293 64.1435 441.293 64.1435 441.293 64.1435C441.146 63.9522 440.865 63.9522 440.674 64.1435C437.524 67.3835 437.524 67.3835 437.524 67.3835C437.434 67.451 437.389 67.5297 437.411 67.5747C437.434 67.6309 437.501 67.6647 437.614 67.6647H438.908C439.144 67.6647 439.335 67.8561 439.335 68.0922V70.7134C439.335 70.9495 439.526 71.1409 439.763 71.1409H442.237C442.474 71.1409 442.665 70.9495 442.665 70.7134V68.0922C442.665 67.8561 442.856 67.6647 443.092 67.6647H444.352C444.465 67.6647 444.555 67.6309 444.577 67.5747C444.611 67.5297 444.589 67.451 444.499 67.3835ZM437.499 78.6165C440.705 81.8565 440.705 81.8565 440.705 81.8565C440.852 82.0478 441.133 82.0478 441.324 81.8565C444.474 78.6165 444.474 78.6165 444.474 78.6165C444.564 78.549 444.609 78.4703 444.587 78.4253C444.564 78.3691 444.497 78.3353 444.384 78.3353H443.09C442.854 78.3353 442.663 78.1439 442.663 77.9078V75.2866C442.663 75.0505 442.471 74.8591 442.235 74.8591H439.76C439.524 74.8591 439.333 75.0505 439.333 75.2866V77.9078C439.333 78.1439 439.142 78.3353 438.905 78.3353H437.645C437.533 78.3353 437.443 78.3691 437.42 78.4253C437.387 78.4703 437.409 78.549 437.499 78.6165Z" fill="#020202"/>
</g>
<g id="Property 1=Lifecell 24">
<path id="Vector_56" fill-rule="evenodd" clip-rule="evenodd" d="M476.589 68.2095C475.92 67.1692 475.109 66.3175 474.161 65.656C473.214 64.9941 472.129 64.522 470.913 64.2405C468.916 63.7793 466.976 63.9874 465.104 64.813C464.07 65.269 463.155 65.8977 462.367 66.6975C461.383 67.6968 460.672 68.8282 460.239 70.0918L460.228 70.1259C460.213 70.1704 460.199 70.2157 460.185 70.2607C459.741 71.7215 460.156 72.5288 460.809 71.8525C460.834 71.8237 460.861 71.7949 460.887 71.7661C460.897 71.7543 460.907 71.7438 460.916 71.7316C461.68 70.7852 462.896 69.9963 462.896 69.9963L462.896 69.9967C463.206 69.7842 463.527 69.5857 463.862 69.4011C464.244 69.1807 464.643 68.9783 465.016 68.8417C465.016 68.8417 465.362 68.6859 465.454 68.2112L465.46 68.185C465.46 68.1802 465.461 68.1763 465.462 68.1711C465.524 67.7762 465.954 66.6897 467.169 66.6186C467.55 66.5666 467.928 66.6338 468.262 66.79C468.848 67.0649 469.298 67.6147 469.389 68.2771C469.461 68.8037 469.334 69.3003 469.061 69.6934C469.046 69.7157 469.029 69.7384 469.011 69.7615L468.995 69.7825C468.766 70.0731 468.454 70.2982 468.081 70.4247C467.858 70.5068 467.63 70.5478 467.413 70.5539H467.412C467.276 70.5714 467.124 70.5539 466.972 70.5173C466.801 70.4828 466.644 70.4261 466.509 70.3514C466.275 70.2428 466.084 70.1202 466.014 70.0569C465.958 70.0067 465.899 69.9792 465.841 69.9653C465.712 69.9448 465.607 69.9688 465.531 70.0015L465.528 70.0024C465.486 70.0207 465.453 70.0416 465.429 70.0587C465.138 70.2978 464.861 70.5487 464.599 70.8109C463.909 71.5252 463.331 72.3355 463.059 72.736C462.916 72.9629 462.779 73.1955 462.65 73.4346C462.53 73.6558 462.42 73.8797 462.317 74.1061C462.156 74.4639 462.003 74.8488 461.867 75.2624L461.848 75.3192L461.824 75.3977L461.8 75.4749C460.964 78.2981 462.47 79.9273 463.731 78.2252C463.8 78.1174 463.871 78.0109 463.943 77.9049L463.945 77.9014C465.267 75.6469 467.98 74.0193 467.98 74.0193H467.981C468.147 73.915 468.315 73.8147 468.484 73.7182L468.485 73.7174L468.517 73.6999C468.982 73.4381 469.46 73.2025 469.952 72.9974C470.389 72.8054 470.854 72.6265 471.24 72.534C471.24 72.534 471.692 72.4179 471.813 71.8703L471.813 71.8699C471.9 71.4772 472.189 70.9021 472.842 70.5932C472.996 70.5155 473.157 70.4579 473.319 70.4226C473.494 70.3842 473.669 70.3702 473.84 70.3781L473.841 70.3776C473.953 70.3759 474.046 70.3881 474.126 70.4112C474.954 70.5687 475.634 71.239 475.732 72.1221C475.852 73.1929 475.097 74.1598 474.017 74.2933C473.478 74.3601 472.99 74.2436 472.574 73.9334C472.107 73.7418 471.748 73.8648 471.619 73.9246C471.212 74.1432 470.821 74.3863 470.447 74.6524C469.752 75.1612 469.199 75.6922 468.98 75.9113C468.5 76.4022 468.074 76.9231 467.705 77.4742L467.646 77.565L467.631 77.5894C467.251 78.1859 466.847 78.9495 466.515 79.8732C466.489 79.9448 466.464 80.0164 466.44 80.0892C466.085 81.2743 466.856 81.7464 467.747 81.9184C467.747 81.9184 468.446 82.051 469.452 81.9781C469.511 81.9733 469.564 81.9681 469.609 81.9633C469.863 81.9328 470.118 81.9061 470.37 81.8638C472.106 81.5723 473.641 80.8581 474.951 79.6978C476.601 78.237 477.595 76.4166 477.904 74.2545C478.213 72.0889 477.779 70.0591 476.589 68.2099" fill="#020202"/>
</g>
<g id="Property 1=Kyivstar 24">
<g id="Vector_57">
<path fill-rule="evenodd" clip-rule="evenodd" d="M496.96 64.45C497.59 64.45 498.105 64.9648 498.105 65.594V69.8466C498.105 70.4759 497.59 70.9907 496.96 70.9907C496.33 70.9907 495.814 70.4759 495.814 69.8466V65.594C495.814 64.9648 496.33 64.45 496.96 64.45Z" fill="#020202"/>
<path fill-rule="evenodd" clip-rule="evenodd" d="M488.058 70.8276C488.259 70.209 488.93 69.8673 489.55 70.0683L493.737 71.4269C494.356 71.6279 494.698 72.2984 494.497 72.9171C494.296 73.5357 493.624 73.8774 493.005 73.6764L488.818 72.3179C488.199 72.1168 487.856 71.4463 488.058 70.8276Z" fill="#020202"/>
<path fill-rule="evenodd" clip-rule="evenodd" d="M491.474 81.3253C490.947 80.943 490.829 80.1997 491.212 79.6735L493.799 76.1168C494.182 75.5906 494.926 75.4728 495.453 75.8552C495.98 76.2375 496.098 76.9808 495.715 77.507L493.128 81.0637C492.745 81.59 492 81.7077 491.474 81.3253Z" fill="#020202"/>
<path fill-rule="evenodd" clip-rule="evenodd" d="M502.527 81.3252C502 81.7075 501.255 81.5897 500.873 81.0635L498.285 77.5069C497.902 76.9806 498.02 76.2373 498.547 75.855C499.074 75.4727 499.818 75.5904 500.201 76.1166L502.789 79.6733C503.172 80.1995 503.054 80.9429 502.527 81.3252Z" fill="#020202"/>
<path fill-rule="evenodd" clip-rule="evenodd" d="M505.942 70.8274C506.144 71.446 505.801 72.1166 505.182 72.3176L500.995 73.6761C500.376 73.8771 499.704 73.5354 499.503 72.9168C499.301 72.2982 499.644 71.6276 500.263 71.4266L504.45 70.0681C505.069 69.8671 505.741 70.2088 505.942 70.8274Z" fill="#020202"/>
</g>
</g>
<g id="Property 1=Vodafone 24">
<path id="Vector_58" fill-rule="evenodd" clip-rule="evenodd" d="M534 73C534 77.9706 529.971 82 525 82C520.029 82 516 77.9706 516 73C516 68.0294 520.029 64 525 64C529.971 64 534 68.0294 534 73ZM520.045 72.5301C520.056 75.8984 522.613 77.9956 525.07 77.9875C528.104 77.9771 529.9 75.4828 529.892 73.2113C529.885 70.9398 528.648 69.294 525.925 68.6307C525.917 68.5826 525.914 68.534 525.914 68.4853C525.908 66.7668 527.203 65.2521 528.831 64.9144C528.678 64.8624 528.427 64.8434 528.188 64.8434C526.326 64.8497 524.276 65.6458 522.775 66.8863C521.239 68.1562 520.038 70.3025 520.045 72.5301Z" fill="#020202"/>
</g>
<g id="Property 1=Instagram">
<path id="Vector_59" d="M413 94.4414C415.136 94.4414 415.389 94.4496 416.233 94.4881C417.013 94.5237 417.436 94.654 417.718 94.7635C418.092 94.9087 418.358 95.082 418.638 95.362C418.918 95.6419 419.091 95.9084 419.236 96.2818C419.346 96.5637 419.476 96.9873 419.512 97.7673C419.55 98.6109 419.559 98.8639 419.559 101C419.559 103.136 419.55 103.389 419.512 104.233C419.476 105.013 419.346 105.436 419.236 105.718C419.091 106.092 418.918 106.358 418.638 106.638C418.358 106.918 418.092 107.091 417.718 107.236C417.436 107.346 417.013 107.476 416.233 107.512C415.389 107.55 415.136 107.559 413 107.559C410.864 107.559 410.611 107.55 409.767 107.512C408.987 107.476 408.564 107.346 408.282 107.236C407.908 107.091 407.642 106.918 407.362 106.638C407.082 106.358 406.909 106.092 406.764 105.718C406.654 105.436 406.524 105.013 406.488 104.233C406.45 103.389 406.441 103.136 406.441 101C406.441 98.8639 406.45 98.6109 406.488 97.7673C406.524 96.9873 406.654 96.5637 406.764 96.2818C406.909 95.9084 407.082 95.6419 407.362 95.362C407.642 95.082 407.908 94.9087 408.282 94.7635C408.564 94.654 408.987 94.5237 409.767 94.4881C410.611 94.4496 410.864 94.4414 413 94.4414ZM413 93C410.827 93 410.555 93.0092 409.702 93.0481C408.85 93.087 408.269 93.2222 407.76 93.42C407.234 93.6244 406.787 93.898 406.343 94.3427C405.898 94.7875 405.624 95.2336 405.42 95.7597C405.222 96.2686 405.087 96.8501 405.048 97.7016C405.009 98.5549 405 98.8273 405 101C405 103.173 405.009 103.445 405.048 104.298C405.087 105.15 405.222 105.731 405.42 106.24C405.624 106.766 405.898 107.213 406.343 107.657C406.787 108.102 407.234 108.376 407.76 108.58C408.269 108.778 408.85 108.913 409.702 108.952C410.555 108.991 410.827 109 413 109C415.173 109 415.445 108.991 416.298 108.952C417.15 108.913 417.731 108.778 418.24 108.58C418.766 108.376 419.213 108.102 419.657 107.657C420.102 107.213 420.376 106.766 420.58 106.24C420.778 105.731 420.913 105.15 420.952 104.298C420.991 103.445 421 103.173 421 101C421 98.8273 420.991 98.5549 420.952 97.7016C420.913 96.8501 420.778 96.2686 420.58 95.7597C420.376 95.2336 420.102 94.7875 419.657 94.3427C419.213 93.898 418.766 93.6244 418.24 93.42C417.731 93.2222 417.15 93.087 416.298 93.0481C415.445 93.0092 415.173 93 413 93ZM413 96.8919C410.731 96.8919 408.892 98.7312 408.892 101C408.892 103.269 410.731 105.108 413 105.108C415.269 105.108 417.108 103.269 417.108 101C417.108 98.7312 415.269 96.8919 413 96.8919ZM413 103.667C411.527 103.667 410.333 102.473 410.333 101C410.333 99.5272 411.527 98.3333 413 98.3333C414.473 98.3333 415.667 99.5272 415.667 101C415.667 102.473 414.473 103.667 413 103.667ZM417.27 95.7696C416.74 95.7696 416.31 96.1994 416.31 96.7296C416.31 97.2598 416.74 97.6896 417.27 97.6896C417.801 97.6896 418.23 97.2598 418.23 96.7296C418.23 96.1994 417.801 95.7696 417.27 95.7696Z" fill="#020202"/>
</g>
<g id="Property 1=LinkedIn 24">
<path id="Vector_60" d="M446.633 106.633H444.262V102.92C444.262 102.035 444.246 100.895 443.029 100.895C441.794 100.895 441.605 101.86 441.605 102.856V106.633H439.235V98.9979H441.511V100.041H441.542C441.77 99.6519 442.099 99.3315 442.495 99.1143C442.89 98.8971 443.337 98.7913 443.788 98.808C446.191 98.808 446.634 100.389 446.634 102.445L446.633 106.633ZM436.56 97.9543C436.288 97.9543 436.022 97.8737 435.795 97.7226C435.569 97.5714 435.393 97.3566 435.289 97.1052C435.184 96.8538 435.157 96.5772 435.21 96.3103C435.263 96.0434 435.394 95.7983 435.587 95.6058C435.779 95.4134 436.024 95.2823 436.291 95.2292C436.558 95.1761 436.834 95.2033 437.086 95.3073C437.337 95.4114 437.552 95.5877 437.703 95.8139C437.854 96.0402 437.935 96.3061 437.935 96.5783C437.935 96.7589 437.9 96.9378 437.831 97.1048C437.762 97.2717 437.66 97.4234 437.532 97.5512C437.405 97.6789 437.253 97.7803 437.086 97.8495C436.919 97.9186 436.74 97.9543 436.56 97.9543ZM437.745 106.633H435.372V98.9979H437.745V106.633ZM447.815 93.0011H434.181C433.871 92.9976 433.573 93.1171 433.352 93.3334C433.13 93.5496 433.004 93.8449 433 94.1544V107.845C433.004 108.155 433.13 108.451 433.351 108.667C433.573 108.883 433.871 109.003 434.181 109H447.815C448.125 109.004 448.424 108.884 448.646 108.668C448.868 108.451 448.996 108.156 449 107.845V94.1534C448.996 93.8433 448.868 93.5477 448.646 93.3314C448.424 93.1152 448.125 92.996 447.815 93.0001" fill="#020202"/>
</g>
<g id="Property 1=Telegram 24">
<path id="Vector_61" fill-rule="evenodd" clip-rule="evenodd" d="M462.1 100.073C466.395 98.1916 469.259 96.9511 470.692 96.3518C474.783 94.6405 475.634 94.3433 476.188 94.3334C476.31 94.3313 476.582 94.3617 476.759 94.5057C476.908 94.6273 476.949 94.7916 476.968 94.9069C476.988 95.0222 477.012 95.2849 476.993 95.4901C476.771 97.8327 475.812 103.517 475.324 106.141C475.117 107.251 474.711 107.624 474.317 107.66C473.461 107.739 472.812 107.092 471.983 106.545C470.686 105.691 469.954 105.159 468.695 104.324C467.24 103.361 468.183 102.831 469.012 101.965C469.229 101.738 472.999 98.2906 473.072 97.9778C473.081 97.9387 473.09 97.7929 473.003 97.7159C472.917 97.6389 472.79 97.6652 472.698 97.6861C472.568 97.7158 470.497 99.0926 466.484 101.816C465.896 102.222 465.363 102.42 464.886 102.41C464.36 102.399 463.348 102.111 462.596 101.865C461.673 101.563 460.94 101.404 461.004 100.892C461.037 100.625 461.402 100.352 462.1 100.073Z" fill="#020202"/>
</g>
<g id="Property 1=YouTube 24">
<path id="Vector_62" fill-rule="evenodd" clip-rule="evenodd" d="M503.251 95.7343C503.939 95.9183 504.482 96.4605 504.666 97.1489C505 98.3967 505 101 505 101C505 101 505 103.603 504.666 104.851C504.482 105.539 503.939 106.082 503.251 106.266C502.003 106.6 497 106.6 497 106.6C497 106.6 491.997 106.6 490.749 106.266C490.061 106.082 489.518 105.539 489.334 104.851C489 103.603 489 101 489 101C489 101 489 98.3967 489.334 97.1489C489.518 96.4605 490.061 95.9183 490.749 95.7343C491.997 95.4 497 95.4 497 95.4C497 95.4 502.003 95.4 503.251 95.7343ZM499.545 101L495.364 103.364V98.6363L499.545 101Z" fill="#020202"/>
</g>
<g id="Property 1=Viber 24">
<g id="Vector_63">
<path d="M531.581 93.7557C531.136 93.343 529.336 92.0307 525.326 92.0129C525.326 92.0129 520.598 91.7266 518.293 93.8497C517.01 95.1384 516.558 97.0241 516.511 99.3619C516.463 101.7 516.401 106.081 520.607 107.269H520.611L520.608 109.082C520.608 109.082 520.581 109.816 521.063 109.965C521.645 110.147 521.986 109.589 522.542 108.988C522.847 108.658 523.268 108.173 523.586 107.802C526.462 108.045 528.674 107.49 528.926 107.407C529.506 107.218 532.793 106.795 533.327 102.415C533.879 97.8992 533.06 95.043 531.581 93.7557ZM532.068 102.091C531.617 105.749 528.952 105.979 528.46 106.137C528.251 106.204 526.309 106.69 523.865 106.53C523.865 106.53 522.045 108.735 521.476 109.309C521.387 109.398 521.283 109.434 521.213 109.417C521.115 109.393 521.089 109.276 521.09 109.106C521.091 108.863 521.105 106.094 521.105 106.094C517.547 105.102 517.755 101.373 517.795 99.4202C517.836 97.4676 518.201 95.868 519.286 94.7921C521.236 93.0188 525.252 93.2838 525.252 93.2838C528.644 93.2987 530.269 94.3243 530.646 94.6679C531.897 95.7437 532.535 98.3182 532.068 102.09V102.091Z" fill="#020202"/>
<path d="M526.976 99.4874C526.918 99.4874 526.862 99.465 526.82 99.4248C526.778 99.3846 526.753 99.3296 526.75 99.2713C526.712 98.4985 526.349 98.1201 525.609 98.0801C525.55 98.0754 525.495 98.0478 525.456 98.0031C525.418 97.9584 525.398 97.9002 525.401 97.8409C525.404 97.7816 525.43 97.7258 525.474 97.6856C525.517 97.6454 525.575 97.6238 525.634 97.6255C526.61 97.6796 527.153 98.2395 527.203 99.2486C527.204 99.2785 527.2 99.3084 527.19 99.3366C527.18 99.3647 527.165 99.3906 527.145 99.4128C527.125 99.435 527.1 99.453 527.074 99.4658C527.047 99.4786 527.017 99.4859 526.988 99.4874H526.976Z" fill="#020202"/>
<path d="M528.14 99.8792H528.135C528.075 99.8778 528.018 99.8525 527.976 99.8088C527.935 99.7652 527.912 99.7067 527.913 99.6464C527.931 98.8682 527.709 98.238 527.237 97.7199C526.764 97.2019 526.119 96.921 525.261 96.8577C525.2 96.8533 525.145 96.8252 525.105 96.7794C525.066 96.7336 525.046 96.674 525.051 96.6137C525.055 96.5534 525.083 96.4973 525.129 96.4577C525.174 96.4182 525.234 96.3985 525.294 96.4029C526.26 96.4739 527.026 96.8134 527.571 97.4117C528.116 98.01 528.387 98.7669 528.367 99.6558C528.365 99.7154 528.341 99.7721 528.299 99.8139C528.256 99.8556 528.199 99.8791 528.14 99.8792Z" fill="#020202"/>
<path d="M529.331 100.346C529.271 100.346 529.214 100.323 529.171 100.28C529.129 100.238 529.105 100.18 529.104 100.12C529.094 98.7284 528.695 97.6652 527.884 96.8706C527.083 96.0872 526.071 95.6853 524.876 95.6767C524.846 95.6766 524.816 95.6706 524.789 95.659C524.761 95.6475 524.737 95.6306 524.716 95.6094C524.673 95.5665 524.649 95.5085 524.65 95.4482C524.65 95.3878 524.674 95.3299 524.717 95.2874C524.759 95.2448 524.817 95.221 524.877 95.2213H524.879C526.195 95.231 527.312 95.6761 528.2 96.5448C529.088 97.4135 529.546 98.6177 529.558 100.118C529.558 100.178 529.535 100.236 529.493 100.279C529.451 100.322 529.393 100.346 529.333 100.347L529.331 100.346Z" fill="#020202"/>
<path d="M525.666 102.31C525.666 102.31 525.985 102.337 526.157 102.124L526.491 101.702C526.653 101.492 527.042 101.358 527.424 101.572C527.709 101.735 527.987 101.913 528.255 102.105C528.508 102.292 529.026 102.726 529.028 102.726C529.275 102.935 529.332 103.243 529.164 103.567C529.164 103.569 529.163 103.572 529.163 103.574C528.977 103.896 528.742 104.187 528.466 104.435C528.463 104.436 528.463 104.438 528.46 104.44C528.22 104.641 527.984 104.755 527.753 104.783C527.719 104.789 527.684 104.791 527.649 104.789C527.547 104.79 527.446 104.775 527.349 104.743L527.341 104.732C526.985 104.631 526.389 104.378 525.397 103.829C524.823 103.514 524.277 103.152 523.764 102.745C523.507 102.541 523.261 102.323 523.029 102.091L522.955 102.016C522.947 102.008 522.939 102 522.93 101.992C522.699 101.758 522.482 101.512 522.279 101.254C521.874 100.739 521.513 100.19 521.2 99.6141C520.653 98.6179 520.401 98.0204 520.3 97.6617L520.289 97.6542C520.258 97.5567 520.242 97.4547 520.243 97.3522C520.241 97.3175 520.244 97.2827 520.25 97.2485C520.278 97.0163 520.393 96.7794 520.592 96.5378C520.594 96.5348 520.595 96.5348 520.597 96.5316C520.844 96.2543 521.133 96.0183 521.454 95.8325C521.456 95.8325 521.459 95.8309 521.461 95.8309C521.784 95.6621 522.09 95.7193 522.298 95.966C522.3 95.9676 522.732 96.4881 522.917 96.7423C523.108 97.0118 523.285 97.2907 523.448 97.578C523.66 97.9607 523.527 98.3527 523.318 98.5142L522.897 98.8502C522.685 99.0226 522.713 99.3426 522.713 99.3426C522.713 99.3426 523.336 101.712 525.666 102.31Z" fill="#020202"/>
</g>
</g>
<g id="Property 1=WhatsApp 24">
<g id="Vector_64">
<path d="M561.994 100.595C561.909 98.2959 560.932 96.1184 559.266 94.5169C557.6 92.9154 555.374 92.0136 553.053 92H553.009C551.446 91.9989 549.91 92.401 548.551 93.1669C547.193 93.9329 546.059 95.0362 545.261 96.3682C544.463 97.7003 544.029 99.2153 544.001 100.764C543.974 102.313 544.353 103.842 545.103 105.201L544.307 109.922C544.306 109.932 544.307 109.942 544.309 109.951C544.312 109.96 544.317 109.969 544.323 109.976C544.33 109.984 544.338 109.99 544.347 109.994C544.356 109.998 544.366 110 544.375 110H544.389L549.1 108.961C550.317 109.541 551.65 109.841 553.001 109.841C553.087 109.841 553.172 109.841 553.258 109.841C554.446 109.807 555.615 109.541 556.698 109.057C557.782 108.573 558.758 107.881 559.57 107.022C560.382 106.162 561.014 105.152 561.43 104.048C561.846 102.945 562.038 101.772 561.994 100.595ZM553.213 108.289C553.142 108.289 553.071 108.289 553.001 108.289C551.807 108.291 550.631 108.008 549.571 107.464L549.33 107.339L546.135 108.087L546.725 104.884L546.588 104.654C545.934 103.549 545.582 102.294 545.566 101.013C545.55 99.7322 545.871 98.4691 546.498 97.3485C547.124 96.2279 548.034 95.2883 549.139 94.6224C550.243 93.9565 551.503 93.5871 552.795 93.5507C552.867 93.5507 552.939 93.5507 553.012 93.5507C554.962 93.5564 556.833 94.3214 558.22 95.681C559.607 97.0405 560.4 98.8857 560.427 100.819C560.455 102.752 559.715 104.619 558.367 106.017C557.019 107.415 555.171 108.232 553.222 108.292L553.213 108.289Z" fill="#020202"/>
<path d="M549.871 96.614C549.76 96.6162 549.65 96.6404 549.549 96.6853C549.447 96.7303 549.356 96.7949 549.28 96.8755C549.065 97.0935 548.466 97.6183 548.431 98.7202C548.396 99.8221 549.173 100.912 549.282 101.065C549.39 101.218 550.767 103.598 553.034 104.564C554.367 105.133 554.951 105.23 555.33 105.23C555.486 105.23 555.604 105.214 555.727 105.207C556.142 105.182 557.08 104.706 557.284 104.188C557.489 103.671 557.503 103.218 557.449 103.128C557.395 103.037 557.247 102.972 557.024 102.856C556.802 102.741 555.709 102.162 555.503 102.08C555.427 102.045 555.345 102.024 555.262 102.018C555.207 102.021 555.154 102.037 555.107 102.064C555.06 102.092 555.021 102.131 554.992 102.177C554.81 102.402 554.391 102.892 554.25 103.033C554.219 103.068 554.182 103.096 554.139 103.116C554.097 103.136 554.051 103.146 554.004 103.147C553.917 103.143 553.833 103.121 553.756 103.081C553.094 102.802 552.491 102.403 551.977 101.905C551.497 101.436 551.09 100.899 550.769 100.312C550.645 100.084 550.769 99.966 550.882 99.8592C550.995 99.7524 551.116 99.605 551.233 99.4774C551.329 99.3684 551.409 99.2466 551.471 99.1155C551.502 99.0547 551.519 98.987 551.517 98.9184C551.516 98.8499 551.498 98.7827 551.464 98.7229C551.41 98.6089 551.008 97.488 550.819 97.0383C550.666 96.6538 550.483 96.6412 550.323 96.6294C550.192 96.6204 550.041 96.6158 549.891 96.6113H549.871" fill="#020202"/>
</g>
</g>
<g id="Property 1=X 24">
<path id="Vector_65" d="M586.176 92.8182H588.936L582.906 99.7496L590 109.182H584.446L580.095 103.461L575.117 109.182H572.355L578.805 101.768L572 92.8182H577.695L581.628 98.047L586.176 92.8182ZM585.207 107.52H586.737L576.864 94.3924H575.223L585.207 107.52Z" fill="#020202"/>
</g>
<g id="Property 1=Pinterest 24">
<path id="Vector_66" d="M600 101.001C600.047 98.4464 600.949 96.313 602.707 94.6029C604.465 92.8928 606.563 92.0238 609 92C611.624 92.0468 613.775 92.9432 615.451 94.6893C617.127 96.4354 617.977 98.54 618 101.001C617.953 103.532 617.051 105.66 615.293 107.383C613.534 109.104 611.437 109.977 609 110C608.156 110 607.313 109.87 606.469 109.613C606.634 109.355 606.797 109.062 606.961 108.734C607.148 108.336 607.382 107.586 607.665 106.484C607.736 106.18 607.842 105.769 607.982 105.253C608.146 105.534 608.427 105.791 608.826 106.027C609.881 106.519 610.994 106.472 612.166 105.886C613.384 105.182 614.228 104.094 614.696 102.618C615.117 101.071 615.066 99.6345 614.538 98.3111C614.01 96.9862 613.067 96.0322 611.708 95.4453C609.999 94.9536 608.333 95.0061 606.717 95.6037C605.101 96.2014 603.975 97.2281 603.341 98.6804C603.176 99.219 603.078 99.7533 603.042 100.281C603.006 100.809 603.024 101.324 603.094 101.828C603.165 102.332 603.341 102.784 603.622 103.181C603.903 103.579 604.279 103.886 604.747 104.096C604.865 104.143 604.958 104.143 605.028 104.096C605.122 104.049 605.215 103.862 605.309 103.534C605.402 103.207 605.438 102.983 605.415 102.866C605.392 102.819 605.345 102.736 605.275 102.619C604.783 101.821 604.618 100.985 604.783 100.106C604.947 99.2276 605.311 98.4824 605.873 97.874C606.74 97.1 607.754 96.6787 608.913 96.6082C610.072 96.5376 611.064 96.8552 611.883 97.5572C612.328 98.072 612.616 98.6934 612.743 99.4206C612.871 100.148 612.873 100.845 612.743 101.512C612.613 102.18 612.384 102.807 612.057 103.394C611.47 104.308 610.779 104.776 609.983 104.8C609.515 104.776 609.134 104.595 608.84 104.254C608.546 103.914 608.459 103.521 608.577 103.077C608.624 102.819 608.765 102.315 608.999 101.565C609.233 100.814 609.362 100.252 609.386 99.8778C609.315 98.9864 608.905 98.5292 608.155 98.5062C607.568 98.5767 607.136 98.841 606.853 99.2968C606.57 99.7526 606.419 100.276 606.396 100.861C606.467 101.542 606.572 102.01 606.713 102.268C606.455 103.322 606.256 104.167 606.115 104.799C606.068 104.963 605.939 105.467 605.728 106.311C605.517 107.155 605.4 107.8 605.377 108.244V109.229C603.713 108.455 602.4 107.337 601.44 105.871C600.48 104.406 600 102.782 600 101.001Z" fill="#020202"/>
</g>
<g id="Property 1=TikTok 24">
<path id="Vector_67" d="M641.777 95.0226C641.163 94.4246 640.754 93.6243 640.601 92.7454C640.581 92.6285 640.565 92.5093 640.554 92.3924V91.9945H637.452V104.307C637.447 105.741 636.281 106.903 634.844 106.903C634.422 106.903 634.024 106.802 633.671 106.624C633.239 106.407 632.877 106.075 632.623 105.663C632.37 105.252 632.236 104.779 632.237 104.296C632.237 102.857 633.403 101.688 634.844 101.688C635.121 101.688 635.386 101.731 635.635 101.809V98.6576C635.377 98.6216 635.114 98.6036 634.853 98.6036C631.701 98.6104 629.15 101.162 629.15 104.307C629.15 106.281 630.153 108.018 631.677 109.041C632.615 109.672 633.72 110.008 634.851 110.005C638 110.005 640.552 107.454 640.552 104.307V98.0147C641.805 98.9114 643.309 99.3926 644.85 99.3904V96.3084C644.376 96.3084 643.906 96.232 643.461 96.0814C643.148 95.9757 642.557 95.7869 641.775 95.0226H641.777Z" fill="#020202"/>
</g>
</g>
<rect x="1" y="1" width="1036" height="200" rx="5" stroke="black" stroke-dasharray="10 5"/>
</g>
<defs>
<clipPath id="clip0_409_2">
<rect x="1" y="1" width="1036" height="200" rx="5" fill="white"/>
</clipPath>
</defs>
</svg>
