<svg width="1802" height="402" viewBox="0 0 1802 402" fill="none" xmlns="http://www.w3.org/2000/svg">
<g id="UI">
<rect x="1" y="1" width="1800" height="400" rx="5" stroke="black" stroke-dasharray="10 5"/>
<g id="arrow_chevron_left">
<path id="Vector" d="M811.333 189L816 192.5L816 195L808 189L816 183V185.5L811.333 189Z" fill="#020202"/>
</g>
<g id="arrow_chevron_left_double">
<path id="Vector_2" d="M804 161C804.001 160.918 804.021 160.837 804.059 160.764C804.098 160.691 804.153 160.628 804.22 160.58L810.472 156.083C810.583 156.01 810.719 155.984 810.85 156.01C810.981 156.036 811.097 156.112 811.172 156.223L811.722 157.002C811.759 157.057 811.785 157.119 811.799 157.184C811.812 157.249 811.812 157.316 811.799 157.381C811.786 157.446 811.76 157.508 811.723 157.563C811.685 157.618 811.638 157.665 811.582 157.702L807.201 161L811.582 164.248C811.638 164.285 811.685 164.332 811.723 164.387C811.76 164.442 811.786 164.504 811.799 164.569C811.812 164.634 811.812 164.701 811.799 164.766C811.785 164.831 811.759 164.893 811.722 164.948L811.172 165.777C811.097 165.888 810.981 165.964 810.85 165.99C810.719 166.016 810.583 165.99 810.472 165.917L804.22 161.42C804.153 161.372 804.098 161.309 804.059 161.236C804.021 161.163 804.001 161.082 804 161ZM812.422 161.42L818.663 165.917C818.775 165.99 818.911 166.016 819.042 165.99C819.173 165.964 819.288 165.888 819.363 165.777L819.913 164.948C819.951 164.893 819.977 164.831 819.99 164.766C820.003 164.701 820.003 164.634 819.99 164.569C819.977 164.504 819.951 164.442 819.914 164.387C819.877 164.332 819.829 164.285 819.773 164.248L815.402 161L819.773 157.752C819.829 157.715 819.877 157.668 819.914 157.613C819.951 157.558 819.977 157.496 819.99 157.431C820.003 157.366 820.003 157.299 819.99 157.234C819.977 157.169 819.951 157.107 819.913 157.052L819.363 156.223C819.288 156.112 819.173 156.036 819.042 156.01C818.911 155.984 818.775 156.01 818.663 156.083L812.422 160.58C812.353 160.627 812.298 160.69 812.259 160.763C812.221 160.836 812.201 160.917 812.201 161C812.201 161.083 812.221 161.164 812.259 161.237C812.298 161.31 812.353 161.373 812.422 161.42Z" fill="#020202"/>
</g>
<g id="arrow_chevron_right">
<path id="Vector_3" d="M842.667 189L838 185.5L838 183L846 189L838 195L838 192.5L842.667 189Z" fill="#020202"/>
</g>
<g id="arrow_chevron_right_double">
<path id="Vector_4" d="M849 161C848.999 161.082 848.979 161.163 848.941 161.236C848.902 161.309 848.847 161.372 848.78 161.42L842.528 165.917C842.417 165.99 842.281 166.016 842.15 165.99C842.019 165.964 841.903 165.888 841.828 165.777L841.278 164.998C841.241 164.943 841.215 164.881 841.201 164.816C841.188 164.751 841.188 164.684 841.201 164.619C841.214 164.554 841.24 164.492 841.277 164.437C841.315 164.382 841.362 164.335 841.418 164.298L845.799 161L841.418 157.752C841.362 157.715 841.315 157.668 841.277 157.613C841.24 157.558 841.214 157.496 841.201 157.431C841.188 157.366 841.188 157.299 841.201 157.234C841.215 157.169 841.241 157.107 841.278 157.052L841.828 156.223C841.903 156.112 842.019 156.036 842.15 156.01C842.281 155.984 842.417 156.01 842.528 156.083L848.78 160.58C848.847 160.628 848.902 160.691 848.941 160.764C848.979 160.837 848.999 160.918 849 161ZM840.578 160.58L834.337 156.083C834.225 156.01 834.089 155.984 833.958 156.01C833.827 156.036 833.712 156.112 833.637 156.223L833.087 157.052C833.049 157.107 833.023 157.169 833.01 157.234C832.997 157.299 832.997 157.366 833.01 157.431C833.023 157.496 833.049 157.558 833.086 157.613C833.123 157.668 833.171 157.715 833.227 157.752L837.598 161L833.227 164.248C833.171 164.285 833.123 164.332 833.086 164.387C833.049 164.442 833.023 164.504 833.01 164.569C832.997 164.634 832.997 164.701 833.01 164.766C833.023 164.831 833.049 164.893 833.087 164.948L833.637 165.777C833.712 165.888 833.827 165.964 833.958 165.99C834.089 166.016 834.225 165.99 834.337 165.917L840.578 161.42C840.647 161.373 840.702 161.31 840.741 161.237C840.779 161.164 840.799 161.083 840.799 161C840.799 160.917 840.779 160.836 840.741 160.763C840.702 160.69 840.647 160.627 840.578 160.58Z" fill="#020202"/>
</g>
<g id="arrow_chevron_up">
<path id="Vector_5" d="M869 187.333L865.5 192H863L869 184L875 192L872.5 192L869 187.333Z" fill="#020202"/>
</g>
<g id="arrow_chevron_up_double">
<path id="Vector_6" d="M869 153C869.082 153.001 869.163 153.021 869.236 153.059C869.309 153.098 869.372 153.153 869.42 153.22L873.917 159.472C873.99 159.583 874.016 159.719 873.99 159.85C873.964 159.981 873.888 160.097 873.777 160.172L872.998 160.722C872.943 160.759 872.881 160.785 872.816 160.799C872.751 160.812 872.684 160.812 872.619 160.799C872.554 160.786 872.492 160.76 872.437 160.723C872.382 160.685 872.335 160.638 872.298 160.582L869 156.201L865.752 160.582C865.715 160.638 865.668 160.685 865.613 160.723C865.558 160.76 865.496 160.786 865.431 160.799C865.366 160.812 865.299 160.812 865.234 160.799C865.169 160.785 865.107 160.759 865.052 160.722L864.223 160.172C864.112 160.097 864.036 159.981 864.01 159.85C863.984 159.719 864.01 159.583 864.083 159.472L868.58 153.22C868.628 153.153 868.691 153.098 868.764 153.059C868.837 153.021 868.918 153.001 869 153ZM868.58 161.422L864.083 167.663C864.01 167.775 863.984 167.911 864.01 168.042C864.036 168.173 864.112 168.288 864.223 168.363L865.052 168.913C865.107 168.951 865.169 168.977 865.234 168.99C865.299 169.003 865.366 169.003 865.431 168.99C865.496 168.977 865.558 168.951 865.613 168.914C865.668 168.877 865.715 168.829 865.752 168.773L869 164.402L872.248 168.773C872.285 168.829 872.332 168.877 872.387 168.914C872.442 168.951 872.504 168.977 872.569 168.99C872.634 169.003 872.701 169.003 872.766 168.99C872.831 168.977 872.893 168.951 872.948 168.913L873.777 168.363C873.888 168.288 873.964 168.173 873.99 168.042C874.016 167.911 873.99 167.775 873.917 167.663L869.42 161.422C869.373 161.353 869.31 161.298 869.237 161.259C869.164 161.221 869.083 161.201 869 161.201C868.917 161.201 868.836 161.221 868.763 161.259C868.69 161.298 868.627 161.353 868.58 161.422Z" fill="#020202"/>
</g>
<g id="arrow_chevron_down">
<path id="Vector_7" d="M897 190.667L900.5 186H903L897 194L891 186H893.5L897 190.667Z" fill="#020202"/>
</g>
<g id="arrow_chevron_down_double">
<path id="Vector_8" d="M897 169C896.918 168.999 896.837 168.979 896.764 168.941C896.691 168.902 896.628 168.847 896.58 168.78L892.083 162.528C892.01 162.417 891.984 162.281 892.01 162.15C892.036 162.019 892.112 161.903 892.223 161.828L893.002 161.278C893.057 161.241 893.119 161.215 893.184 161.201C893.249 161.188 893.316 161.188 893.381 161.201C893.446 161.214 893.508 161.24 893.563 161.277C893.618 161.315 893.665 161.362 893.702 161.418L897 165.799L900.248 161.418C900.285 161.362 900.332 161.315 900.387 161.277C900.442 161.24 900.504 161.214 900.569 161.201C900.634 161.188 900.701 161.188 900.766 161.201C900.831 161.215 900.893 161.241 900.948 161.278L901.777 161.828C901.888 161.903 901.964 162.019 901.99 162.15C902.016 162.281 901.99 162.417 901.917 162.528L897.42 168.78C897.372 168.847 897.309 168.902 897.236 168.941C897.163 168.979 897.082 168.999 897 169ZM897.42 160.578L901.917 154.337C901.99 154.225 902.016 154.089 901.99 153.958C901.964 153.827 901.888 153.712 901.777 153.637L900.948 153.087C900.893 153.049 900.831 153.023 900.766 153.01C900.701 152.997 900.634 152.997 900.569 153.01C900.504 153.023 900.442 153.049 900.387 153.086C900.332 153.123 900.285 153.171 900.248 153.227L897 157.598L893.752 153.227C893.715 153.171 893.668 153.123 893.613 153.086C893.558 153.049 893.496 153.023 893.431 153.01C893.366 152.997 893.299 152.997 893.234 153.01C893.169 153.023 893.107 153.049 893.052 153.087L892.223 153.637C892.112 153.712 892.036 153.827 892.01 153.958C891.984 154.089 892.01 154.225 892.083 154.337L896.58 160.578C896.627 160.647 896.69 160.702 896.763 160.741C896.836 160.779 896.917 160.799 897 160.799C897.083 160.799 897.164 160.779 897.237 160.741C897.31 160.702 897.373 160.647 897.42 160.578Z" fill="#020202"/>
</g>
<g id="arrow_left">
<path id="Vector_9" d="M808.2 133.4C807.933 133.2 807.933 132.8 808.2 132.6L815.2 127.101C815.53 126.854 816 127.089 816 127.501V138.499C816 138.911 815.53 139.146 815.2 138.899L808.2 133.4Z" fill="#020202"/>
</g>
<g id="arrow_right">
<path id="Vector_10" d="M845.8 132.6C846.067 132.8 846.067 133.2 845.8 133.4L838.8 138.899C838.47 139.146 838 138.911 838 138.499L838 127.501C838 127.089 838.47 126.854 838.8 127.101L845.8 132.6Z" fill="#020202"/>
</g>
<g id="arrow_up">
<path id="Vector_11" d="M868.6 128.2C868.8 127.933 869.2 127.933 869.4 128.2L874.899 135.2C875.146 135.53 874.911 136 874.499 136L863.501 136C863.089 136 862.854 135.53 863.101 135.2L868.6 128.2Z" fill="#020202"/>
</g>
<g id="arrow_down">
<path id="Vector_12" d="M897.4 137.8C897.2 138.067 896.8 138.067 896.6 137.8L891.101 130.8C890.854 130.47 891.089 130 891.501 130L902.499 130C902.911 130 903.146 130.47 902.899 130.8L897.4 137.8Z" fill="#020202"/>
</g>
<g id="info_16">
<path id="Vector_13" fill-rule="evenodd" clip-rule="evenodd" d="M1409 14C1411.76 14 1414 11.7615 1414 9C1414 6.23854 1411.76 4 1409 4C1406.24 4 1404 6.23854 1404 9C1404 11.7615 1406.24 14 1409 14ZM1409.62 6.5C1409.62 6.15485 1409.35 5.875 1409 5.875C1408.65 5.875 1408.38 6.15485 1408.38 6.5C1408.38 6.84515 1408.65 7.125 1409 7.125C1409.35 7.125 1409.62 6.84515 1409.62 6.5ZM1409.62 8.99901C1409.62 8.65385 1409.35 8.37401 1409 8.37401C1408.65 8.37401 1408.38 8.65385 1408.38 8.99901V11.5C1408.38 11.8452 1408.65 12.125 1409 12.125C1409.35 12.125 1409.62 11.8452 1409.62 11.5V8.99901Z" fill="#020202"/>
</g>
<g id="bookmark">
<path id="Vector_14" d="M807 7.0011C807 5.89653 807.895 5.0011 809 5.0011H817C818.105 5.0011 819 5.89653 819 7.0011V19.9969C819 20.8878 817.923 21.334 817.293 20.704L814.414 17.8253C813.633 17.0443 812.367 17.0443 811.586 17.8253L808.707 20.704C808.077 21.334 807 20.8878 807 19.9969V7.0011Z" fill="#020202"/>
</g>
<g id="info">
<path id="Vector_15" fill-rule="evenodd" clip-rule="evenodd" d="M841 21C845.418 21 849 17.4183 849 13C849 8.58167 845.418 5 841 5C836.582 5 833 8.58167 833 13C833 17.4183 836.582 21 841 21ZM842 9C842 8.44775 841.552 8 841 8C840.448 8 840 8.44775 840 9C840 9.55225 840.448 10 841 10C841.552 10 842 9.55225 842 9ZM842 12.9984C842 12.4462 841.552 11.9984 841 11.9984C840.448 11.9984 840 12.4462 840 12.9984V17C840 17.5522 840.448 18 841 18C841.552 18 842 17.5522 842 17V12.9984Z" fill="#020202"/>
</g>
<g id="star">
<path id="Vector_16" d="M869 5.5L871.719 10.1023L877 11.2295L873.4 15.2011L873.944 20.5L869 18.3523L864.056 20.5L864.6 15.2011L861 11.2295L866.281 10.1023L869 5.5Z" fill="#020202"/>
</g>
<g id="home">
<path id="Vector_17" fill-rule="evenodd" clip-rule="evenodd" d="M905 13L903 15V19C903 20.1046 902.105 21 901 21H893C891.895 21 891 20.1046 891 19V15L889 13L897 5L905 13ZM893 14.1716L891.828 13L897 7.82843L902.172 13L901 14.1716V18.5C901 18.7761 900.776 19 900.5 19H893.5C893.224 19 893 18.7761 893 18.5V14.1716Z" fill="#020202"/>
</g>
<g id="user">
<g id="Vector_18">
<path fill-rule="evenodd" clip-rule="evenodd" d="M925 12.9986C926.657 12.9986 928 11.6555 928 9.9986C928 8.34174 926.657 6.9986 925 6.9986C923.343 6.9986 922 8.34174 922 9.9986C922 11.6555 923.343 12.9986 925 12.9986ZM925 14.9986C927.761 14.9986 930 12.76 930 9.9986C930 7.23717 927.761 4.9986 925 4.9986C922.239 4.9986 920 7.23717 920 9.9986C920 12.76 922.239 14.9986 925 14.9986Z" fill="#020202"/>
<path d="M920.83 16.9986H929.17C929.966 16.9986 930.729 17.3149 931.292 17.8779L932.854 19.4399C933.049 19.6351 933.049 19.9516 932.854 20.1468L932.146 20.8549C931.951 21.0502 931.634 21.0502 931.439 20.8549L929.878 19.2931C929.69 19.1055 929.435 19 929.17 19H920.83C920.565 19 920.31 19.1055 920.123 19.2931L918.561 20.8549C918.366 21.0502 918.049 21.0502 917.854 20.8549L917.146 20.1468C916.951 19.9516 916.951 19.6351 917.146 19.4399L918.708 17.8779C919.271 17.3149 920.034 16.9986 920.83 16.9986Z" fill="#020202"/>
</g>
</g>
<g id="favourite">
<path id="Vector_19" d="M960.924 12.0696C960.365 15.7433 956.65 18.6823 953.23 19.9601C953.101 20.0227 952.902 20.003 952.77 19.9601C949.317 18.6823 945.602 15.7114 945.076 12.0696C944.813 10.3446 945.24 8.7473 946.26 7.59726C947.18 6.57502 948.463 6 949.843 6C951.027 6 952.112 6.41528 953 7.21392C953.888 6.41528 954.973 6 956.157 6C957.505 6 958.82 6.57502 959.74 7.59726C960.76 8.7473 961.187 10.3446 960.924 12.0696Z" fill="#020202"/>
</g>
<g id="cart">
<g id="Vector_20">
<path d="M951.859 37.8536L951.152 37.1464C950.957 36.9512 950.64 36.9512 950.445 37.1464L948.149 39.4431C947.953 39.6383 947.953 39.9549 948.149 40.1502L948.856 40.8573C949.051 41.0525 949.367 41.0525 949.563 40.8573L951.859 38.5607C952.055 38.3654 952.055 38.0488 951.859 37.8536Z" fill="#020202"/>
<path d="M954.149 37.8536L954.856 37.1464C955.051 36.9512 955.368 36.9512 955.563 37.1464L957.859 39.4431C958.055 39.6383 958.055 39.9549 957.859 40.1502L957.152 40.8573C956.957 41.0525 956.64 41.0525 956.445 40.8573L954.149 38.5607C953.953 38.3654 953.953 38.0488 954.149 37.8536Z" fill="#020202"/>
<path fill-rule="evenodd" clip-rule="evenodd" d="M947.003 42C945.084 42 943.658 43.7773 944.075 45.6508L945.186 50.6508C945.491 52.0234 946.708 53 948.114 53H957.886C959.292 53 960.509 52.0234 960.814 50.6508L961.925 45.6508C962.342 43.7773 960.916 42 958.997 42H947.003ZM948.678 46.2289L949.654 46.012C949.924 45.9521 950.191 46.1221 950.251 46.3916L950.728 48.5405C950.788 48.81 950.618 49.0771 950.349 49.137L949.372 49.3539C949.103 49.4138 948.836 49.2439 948.776 48.9743L948.298 46.8255C948.238 46.5559 948.408 46.2888 948.678 46.2289ZM957.322 46.2289L956.346 46.012C956.076 45.9521 955.809 46.1221 955.749 46.3916L955.272 48.5405C955.212 48.81 955.382 49.0771 955.652 49.137L956.628 49.3539C956.897 49.4138 957.164 49.2439 957.224 48.9743L957.702 46.8255C957.762 46.5559 957.592 46.2888 957.322 46.2289ZM953.502 46L952.502 46C952.226 46 952.002 46.2239 952.002 46.5L952.002 48.5C952.002 48.7761 952.226 49 952.502 49H953.502C953.778 49 954.002 48.7761 954.002 48.5L954.002 46.5C954.002 46.2239 953.778 46 953.502 46Z" fill="#020202"/>
</g>
</g>
<g id="search">
<path id="Vector_21" fill-rule="evenodd" clip-rule="evenodd" d="M985.19 50.6046C984.022 51.4798 982.571 51.9982 980.998 51.9982C977.132 51.9982 973.998 48.8642 973.998 44.9982C973.998 41.1322 977.132 37.9982 980.998 37.9982C984.864 37.9982 987.998 41.1322 987.998 44.9982C987.998 46.5705 987.48 48.0218 986.605 49.1903L989.855 52.4412C990.051 52.6365 990.051 52.9531 989.855 53.1483L989.148 53.8554C988.953 54.0507 988.636 54.0507 988.441 53.8554L985.19 50.6046Z" fill="#020202"/>
</g>
<g id="map">
<g id="Vector_22">
<path d="M1000 40.3469C1000 40.1553 1000.16 40 1000.35 40C1000.48 40 1000.6 40.0771 1000.66 40.1964C1000.96 40.775 1001.32 41.3436 1001.7 41.8661C1002.55 43.0544 1003.52 44.0867 1003.99 44.575C1004.26 44.8489 1004.62 45 1005 45C1005.38 45 1005.74 44.8494 1006.01 44.5762C1006.48 44.0885 1007.45 43.0554 1008.3 41.8658C1008.48 41.62 1008.65 41.364 1008.82 41.1015C1009.23 40.4496 1009.93 40 1010.7 40H1013L1004 51H1002C1000.9 51 1000 50.1046 1000 49V40.3469Z" fill="#020202"/>
<path d="M1006.5 51H1016C1017.1 51 1018 50.1046 1018 49V48H1009L1006.5 51Z" fill="#020202"/>
<path d="M1018 46V42C1018 40.8954 1017.1 40 1016 40H1015.5L1010.5 46H1018Z" fill="#020202"/>
<path fill-rule="evenodd" clip-rule="evenodd" d="M1002.17 34.1293C1002.92 33.4062 1003.94 33 1005 33C1006.06 33 1007.08 33.4062 1007.83 34.1293C1008.58 34.8525 1009 35.8334 1009 36.856C1009 38.9091 1006.21 41.9332 1005.29 42.8776C1005.22 42.9557 1005.11 43 1005 43C1004.89 43 1004.78 42.9557 1004.71 42.8776C1003.79 41.9341 1001 38.9088 1001 36.856C1001 35.8333 1001.42 34.8524 1002.17 34.1293ZM1005 39C1006.1 39 1007 38.1046 1007 37C1007 35.8954 1006.1 35 1005 35C1003.9 35 1003 35.8954 1003 37C1003 38.1046 1003.9 39 1005 39Z" fill="#020202"/>
</g>
</g>
<g id="wallet">
<path id="Vector_23" fill-rule="evenodd" clip-rule="evenodd" d="M1038.93 37.2404C1035.67 38.5569 1032.16 39.6461 1029.03 41.25C1028.42 41.591 1028 42.2472 1028 43.0006V51.0006C1028 52.1052 1028.9 53.0006 1030 53.0006H1044C1045.1 53.0006 1046 52.1052 1046 51.0006V43.0006C1046 41.896 1045.1 41.0006 1044 41.0006L1043.23 39.0747C1042.55 37.3785 1040.62 36.5563 1038.93 37.2404ZM1044 44.0006C1044 43.4483 1043.55 43.0006 1043 43.0006H1031C1030.45 43.0006 1030 43.4483 1030 44.0006V50.0006C1030 50.5529 1030.45 51.0006 1031 51.0006H1043C1043.55 51.0006 1044 50.5529 1044 50.0006H1042C1040.9 50.0006 1040 49.1052 1040 48.0006V46.0006C1040 44.896 1040.9 44.0006 1042 44.0006H1044ZM1044 46.0006V48.0006H1042.5C1042.22 48.0006 1042 47.7768 1042 47.5006V46.5006C1042 46.2245 1042.22 46.0006 1042.5 46.0006H1044Z" fill="#020202"/>
</g>
<g id="card">
<g id="Vector_24">
<path d="M1057 39C1056.45 39 1056 39.4477 1056 40V42H1074V40C1074 39.4477 1073.55 39 1073 39H1057Z" fill="#020202"/>
<path fill-rule="evenodd" clip-rule="evenodd" d="M1056 50C1056 50.5523 1056.45 51 1057 51H1073C1073.55 51 1074 50.5523 1074 50V44H1056V50ZM1058.5 47C1058.22 47 1058 47.2239 1058 47.5V48.5C1058 48.7761 1058.22 49 1058.5 49H1061.5C1061.78 49 1062 48.7761 1062 48.5V47.5C1062 47.2239 1061.78 47 1061.5 47H1058.5Z" fill="#020202"/>
</g>
</g>
<g id="bank">
<g id="Vector_25">
<path d="M1093 37L1085 41H1101L1093 37Z" fill="#020202"/>
<path d="M1085 51.5C1085 51.2239 1085.22 51 1085.5 51H1100.5C1100.78 51 1101 51.2239 1101 51.5V52.5C1101 52.7761 1100.78 53 1100.5 53H1085.5C1085.22 53 1085 52.7761 1085 52.5V51.5Z" fill="#020202"/>
<path d="M1087 43.5C1087 43.2239 1087.22 43 1087.5 43H1088.5C1088.78 43 1089 43.2239 1089 43.5V48.5C1089 48.7761 1088.78 49 1088.5 49H1087.5C1087.22 49 1087 48.7761 1087 48.5V43.5Z" fill="#020202"/>
<path d="M1092 43.5C1092 43.2239 1092.22 43 1092.5 43H1093.5C1093.78 43 1094 43.2239 1094 43.5V48.5C1094 48.7761 1093.78 49 1093.5 49H1092.5C1092.22 49 1092 48.7761 1092 48.5V43.5Z" fill="#020202"/>
<path d="M1097 43.5C1097 43.2239 1097.22 43 1097.5 43H1098.5C1098.78 43 1099 43.2239 1099 43.5V48.5C1099 48.7761 1098.78 49 1098.5 49H1097.5C1097.22 49 1097 48.7761 1097 48.5V43.5Z" fill="#020202"/>
</g>
</g>
<g id="paragraph">
<g id="Vector_26">
<path d="M1141 38.5C1141 38.2239 1141.22 38 1141.5 38H1156.5C1156.78 38 1157 38.2239 1157 38.5V39.5C1157 39.7761 1156.78 40 1156.5 40H1141.5C1141.22 40 1141 39.7761 1141 39.5V38.5Z" fill="#020202"/>
<path d="M1141 42.5C1141 42.2239 1141.22 42 1141.5 42H1156.5C1156.78 42 1157 42.2239 1157 42.5V43.5C1157 43.7761 1156.78 44 1156.5 44H1141.5C1141.22 44 1141 43.7761 1141 43.5V42.5Z" fill="#020202"/>
<path d="M1141 46.5C1141 46.2239 1141.22 46 1141.5 46H1156.5C1156.78 46 1157 46.2239 1157 46.5V47.5C1157 47.7761 1156.78 48 1156.5 48H1141.5C1141.22 48 1141 47.7761 1141 47.5V46.5Z" fill="#020202"/>
<path d="M1141 50.5C1141 50.2239 1141.22 50 1141.5 50H1152.5C1152.78 50 1153 50.2239 1153 50.5V51.5C1153 51.7761 1152.78 52 1152.5 52H1141.5C1141.22 52 1141 51.7761 1141 51.5V50.5Z" fill="#020202"/>
</g>
</g>
<g id="Filters 24">
<g id="Vector_27">
<path d="M1141 66.5C1141 66.2239 1141.22 66 1141.5 66H1142.5C1142.78 66 1143 66.2239 1143 66.5V67.5C1143 67.7761 1142.78 68 1142.5 68H1141.5C1141.22 68 1141 67.7761 1141 67.5V66.5Z" fill="#020202"/>
<path d="M1141 72.5C1141 72.2239 1141.22 72 1141.5 72H1148.5C1148.78 72 1149 72.2239 1149 72.5V73.5C1149 73.7761 1148.78 74 1148.5 74H1141.5C1141.22 74 1141 73.7761 1141 73.5V72.5Z" fill="#020202"/>
<path d="M1155 72.5C1155 72.2239 1155.22 72 1155.5 72H1156.5C1156.78 72 1157 72.2239 1157 72.5V73.5C1157 73.7761 1156.78 74 1156.5 74H1155.5C1155.22 74 1155 73.7761 1155 73.5V72.5Z" fill="#020202"/>
<path d="M1149 66.5C1149 66.2239 1149.22 66 1149.5 66H1156.5C1156.78 66 1157 66.2239 1157 66.5V67.5C1157 67.7761 1156.78 68 1156.5 68H1149.5C1149.22 68 1149 67.7761 1149 67.5V66.5Z" fill="#020202"/>
<path d="M1141 78.5C1141 78.2239 1141.22 78 1141.5 78H1142.5C1142.78 78 1143 78.2239 1143 78.5V79.5C1143 79.7761 1142.78 80 1142.5 80H1141.5C1141.22 80 1141 79.7761 1141 79.5V78.5Z" fill="#020202"/>
<path d="M1149 78.5C1149 78.2239 1149.22 78 1149.5 78H1156.5C1156.78 78 1157 78.2239 1157 78.5V79.5C1157 79.7761 1156.78 80 1156.5 80H1149.5C1149.22 80 1149 79.7761 1149 79.5V78.5Z" fill="#020202"/>
<path d="M1144 66C1144 65.4477 1144.45 65 1145 65H1147C1147.55 65 1148 65.4477 1148 66V68C1148 68.5523 1147.55 69 1147 69H1145C1144.45 69 1144 68.5523 1144 68V66Z" fill="#020202"/>
<path d="M1144 78C1144 77.4477 1144.45 77 1145 77H1147C1147.55 77 1148 77.4477 1148 78V80C1148 80.5523 1147.55 81 1147 81H1145C1144.45 81 1144 80.5523 1144 80V78Z" fill="#020202"/>
<path d="M1150 72C1150 71.4477 1150.45 71 1151 71H1153C1153.55 71 1154 71.4477 1154 72V74C1154 74.5523 1153.55 75 1153 75H1151C1150.45 75 1150 74.5523 1150 74V72Z" fill="#020202"/>
</g>
</g>
<g id="ukrposhta">
<path id="Vector_28" d="M958.02 74.1835L952.721 72.9834C951.356 72.6751 950.398 71.4445 950.435 70.0448C950.472 68.6451 951.492 67.4664 952.872 67.2299C954.251 66.9934 955.606 67.7651 956.106 69.0727C956.607 70.3804 956.113 71.8595 954.929 72.605C954.906 72.6219 954.895 72.6503 954.9 72.678C954.906 72.7057 954.927 72.7278 954.954 72.7349L957.311 73.2686C957.367 73.2816 957.426 73.2606 957.461 73.215C958.603 71.7063 958.821 69.6914 958.029 67.973C957.237 66.2546 955.564 65.1121 953.675 65.0007H953.455C951.254 64.9663 949.22 66.1676 948.186 68.1115C947.153 70.0555 947.295 72.4145 948.554 74.2202L953.269 80.9548C953.289 80.9832 953.322 81 953.358 81C953.393 81 953.426 80.9832 953.447 80.9548L958.087 74.3614C958.112 74.3309 958.119 74.2896 958.105 74.253C958.091 74.2163 958.058 74.1899 958.02 74.1835Z" fill="#020202"/>
</g>
<g id="phone">
<g id="Vector_29">
<path d="M1122 51C1122 51.5523 1121.55 52 1121 52C1120.45 52 1120 51.5523 1120 51C1120 50.4477 1120.45 50 1121 50C1121.55 50 1122 50.4477 1122 51Z" fill="#020202"/>
<path fill-rule="evenodd" clip-rule="evenodd" d="M1116 36C1115.45 36 1115 36.4477 1115 37V53C1115 53.5523 1115.45 54 1116 54H1126C1126.55 54 1127 53.5523 1127 53V37C1127 36.4477 1126.55 36 1126 36H1116ZM1116.5 37C1116.22 37 1116 37.2239 1116 37.5V52.5C1116 52.7761 1116.22 53 1116.5 53H1125.5C1125.78 53 1126 52.7761 1126 52.5V37.5C1126 37.2239 1125.78 37 1125.5 37H1124L1123.29 37.7071C1123.11 37.8946 1122.85 38 1122.59 38H1119.41C1119.15 38 1118.89 37.8946 1118.71 37.7071L1118 37H1116.5Z" fill="#020202"/>
</g>
</g>
<g id="menu_dots">
<g id="Vector_30">
<path d="M805 44C805 43.4477 805.448 43 806 43L808 43C808.552 43 809 43.4477 809 44V46C809 46.5523 808.552 47 808 47H806C805.448 47 805 46.5523 805 46V44Z" fill="#020202"/>
<path d="M811 44C811 43.4477 811.448 43 812 43L814 43C814.552 43 815 43.4477 815 44V46C815 46.5523 814.552 47 814 47H812C811.448 47 811 46.5523 811 46V44Z" fill="#020202"/>
<path d="M817 44C817 43.4477 817.448 43 818 43L820 43C820.552 43 821 43.4477 821 44V46C821 46.5523 820.552 47 820 47H818C817.448 47 817 46.5523 817 46V44Z" fill="#020202"/>
</g>
</g>
<g id="update">
<path id="Vector_31" d="M980.5 18C981.881 18 983.131 17.4404 984.036 16.5355L985.45 17.9498C984.183 19.2165 982.433 20 980.5 20C976.634 20 973.5 16.866 973.5 13C973.5 9.13401 976.634 6 980.5 6C983.046 6 985.275 7.35958 986.5 9.39242L986.5 7L988.5 7L988.5 13L982.5 13V11L985.084 11C984.312 9.2341 982.55 8 980.5 8C977.739 8 975.5 10.2386 975.5 13C975.5 15.7614 977.739 18 980.5 18Z" fill="#020202"/>
</g>
<g id="key">
<path id="Vector_32" fill-rule="evenodd" clip-rule="evenodd" d="M1005 17C1006.86 17 1008.43 15.7252 1008.87 14H1012V15.5C1012 15.7761 1012.22 16 1012.5 16H1015.5C1015.78 16 1016 15.7761 1016 15.5V14H1016.5C1016.78 14 1017 13.7761 1017 13.5V12.5C1017 12.2239 1016.78 12 1016.5 12H1008.87C1008.43 10.2748 1006.86 9 1005 9C1002.79 9 1001 10.7909 1001 13C1001 15.2091 1002.79 17 1005 17ZM1005 15C1006.1 15 1007 14.1046 1007 13C1007 11.8954 1006.1 11 1005 11C1003.9 11 1003 11.8954 1003 13C1003 14.1046 1003.9 15 1005 15Z" fill="#020202"/>
</g>
<g id="email">
<path id="Vector_33" fill-rule="evenodd" clip-rule="evenodd" d="M1033 7H1041C1042.1 7 1043 7.89543 1043 9V14C1043 14.5523 1042.55 15 1042 15C1041.45 15 1041 14.5523 1041 14V13C1041 10.7909 1039.21 9 1037 9C1034.79 9 1033 10.7909 1033 13C1033 15.2091 1034.79 17 1037 17C1038.05 17 1039 16.5982 1039.71 15.9404C1040.26 16.5886 1041.08 17 1042 17C1043.66 17 1045 15.6569 1045 14V9C1045 6.79086 1043.21 5 1041 5H1033C1030.79 5 1029 6.79086 1029 9V17C1029 19.2091 1030.79 21 1033 21H1040.5C1040.78 21 1041 20.7761 1041 20.5V19.5C1041 19.2239 1040.78 19 1040.5 19H1033C1031.9 19 1031 18.1046 1031 17V9C1031 7.89543 1031.9 7 1033 7ZM1039 13C1039 11.8954 1038.1 11 1037 11C1035.9 11 1035 11.8954 1035 13C1035 14.1046 1035.9 15 1037 15C1038.1 15 1039 14.1046 1039 13Z" fill="#020202"/>
</g>
<g id="eye">
<g id="Vector_34">
<path fill-rule="evenodd" clip-rule="evenodd" d="M1059.21 13.0002C1059.92 14.1398 1061.08 15.0793 1062.56 15.592C1065.83 16.7206 1069.29 15.4218 1070.79 12.9998C1070.08 11.8602 1068.92 10.9207 1067.44 10.408C1064.17 9.27936 1060.71 10.5782 1059.21 13.0002ZM1068.09 8.51786C1063.69 6.99521 1058.73 8.94419 1057.03 12.871C1056.99 12.954 1056.99 13.046 1057.03 13.129C1057.9 15.1273 1059.67 16.7073 1061.91 17.4821C1066.31 19.0048 1071.27 17.0558 1072.97 13.129C1073.01 13.046 1073.01 12.954 1072.97 12.871C1072.1 10.8727 1070.33 9.29272 1068.09 8.51786Z" fill="#020202"/>
<path d="M1067 13C1067 14.1046 1066.1 15 1065 15C1063.9 15 1063 14.1046 1063 13C1063 11.8954 1063.9 11 1065 11C1066.1 11 1067 11.8954 1067 13Z" fill="#020202"/>
</g>
</g>
<g id="eye_slash">
<g id="Vector_35">
<path d="M1098.41 6.14935C1098.61 5.95022 1098.93 5.95022 1099.13 6.14935L1099.85 6.87047C1100.05 7.0696 1100.05 7.39246 1099.85 7.59159L1087.59 19.8507C1087.39 20.0498 1087.07 20.0498 1086.87 19.8507L1086.15 19.1295C1085.95 18.9304 1085.95 18.6075 1086.15 18.4084L1098.41 6.14935Z" fill="#020202"/>
<path d="M1094.29 8.85419C1094.57 8.57323 1094.43 8.09875 1094.03 8.05575C1090.24 7.64302 1086.47 9.54946 1085.03 12.871C1084.99 12.954 1084.99 13.046 1085.03 13.129C1085.44 14.0823 1086.06 14.9405 1086.84 15.6614C1087.03 15.8367 1087.32 15.8218 1087.5 15.6394L1088.2 14.939C1088.42 14.7264 1088.39 14.3768 1088.17 14.1713C1087.8 13.816 1087.47 13.4218 1087.21 13.0002C1088.33 11.1972 1090.53 10.0166 1092.93 9.99658C1093.07 9.99544 1093.2 9.94344 1093.3 9.84718L1094.29 8.85419Z" fill="#020202"/>
<path d="M1092.7 16.1528C1092.8 16.0566 1092.93 16.0046 1093.07 16.0034C1095.47 15.9834 1097.67 14.8028 1098.79 12.9998C1098.53 12.5782 1098.2 12.1841 1097.83 11.8287C1097.61 11.6232 1097.58 11.2736 1097.8 11.061L1098.5 10.3606C1098.68 10.1782 1098.97 10.1633 1099.16 10.3386C1099.94 11.0595 1100.56 11.9177 1100.97 12.871C1101.01 12.954 1101.01 13.046 1100.97 13.129C1099.53 16.4506 1095.76 18.357 1091.97 17.9443C1091.57 17.9013 1091.43 17.4268 1091.71 17.1458L1092.7 16.1528Z" fill="#020202"/>
</g>
</g>
<g id="attachment">
<path id="Vector_36" fill-rule="evenodd" clip-rule="evenodd" d="M1120.55 6.24422C1122.25 4.58526 1125.01 4.58526 1126.71 6.24422C1128.43 7.91789 1128.43 10.6429 1126.71 12.3166L1121.94 16.9558C1120.9 17.9742 1119.21 17.9742 1118.17 16.9558C1117.1 15.9226 1117.1 14.2361 1118.17 13.203L1122.81 8.68142C1123.21 8.2962 1123.84 8.30475 1124.23 8.70051C1124.61 9.09626 1124.6 9.72937 1124.21 10.1146L1119.56 14.6362C1119.31 14.8841 1119.31 15.2747 1119.56 15.5226C1119.83 15.7853 1120.28 15.7853 1120.55 15.5226L1125.32 10.8834C1126.23 9.99493 1126.23 8.56588 1125.32 7.67739C1124.39 6.7742 1122.87 6.7742 1121.94 7.67739L1117.18 12.3166C1115.61 13.8456 1115.61 16.3132 1117.18 17.8422C1118.76 19.3859 1121.35 19.3859 1122.93 17.8422L1124.96 15.8714C1125.15 15.6787 1125.47 15.683 1125.66 15.8809L1126.36 16.5975C1126.55 16.7954 1126.55 17.1119 1126.35 17.3045L1124.33 19.2754C1121.96 21.5749 1118.15 21.5749 1115.78 19.2754C1113.41 16.9612 1113.41 13.1976 1115.78 10.8834L1120.55 6.24422Z" fill="#020202"/>
</g>
<g id="time">
<path id="Vector_37" d="M1148 6.5C1148 6.22386 1148.22 6 1148.5 6H1149.5C1149.78 6 1150 6.22386 1150 6.5V12.2676C1150.6 12.6134 1151 13.2597 1151 14C1151 14.1792 1150.98 14.3528 1150.93 14.518L1154.85 18.4393C1155.05 18.6346 1155.05 18.9512 1154.85 19.1464L1154.15 19.8536C1153.95 20.0488 1153.63 20.0488 1153.44 19.8536L1149.52 15.9323C1149.35 15.9764 1149.18 16 1149 16C1147.9 16 1147 15.1046 1147 14C1147 13.2597 1147.4 12.6134 1148 12.2676V6.5Z" fill="#020202"/>
</g>
<g id="ukraine">
<path id="Vector_38" d="M1185.77 11.4798L1186 11.1551L1186 11.0385L1185.9 10.9219L1185.86 10.726L1185.79 10.6523L1183.92 10.0935H1183.87L1183.53 10.1607L1183.14 9.72126L1183.04 9.69048L1182.38 9.83601L1182.32 9.87706L1182.29 9.93677L1181.36 9.82202L1181.21 9.52628L1181.22 9.27347L1181.21 9.22589L1180.88 8.55699L1180.72 8.53274L1180.66 8.59711L1180.34 8.65401L1180.19 8.60177L1179.97 8.16238L1179.99 8.11201L1180.16 7.98793L1180.2 7.89278L1180.17 7.75191L1180.15 7.70899L1179.69 7.1502L1179.64 7.11661L1179.02 7H1178.98L1178.57 7.12408L1178.33 7.0765L1178.25 7.09516L1177.81 7.45805L1177.07 7.34796L1177.01 7.36009L1176.72 7.51309L1176.69 7.55134L1176.38 8.10268L1176.38 8.18851L1176.47 8.39842L1176.46 8.44413L1175.71 8.24822L1175.64 8.25755L1175.58 8.293L1175.36 8.28833L1175.3 8.18572L1175.23 8.13814L1175.03 8.10455L1174.95 8.13068L1174.79 8.27621L1174.74 8.26222L1174.7 8.19785H1174.58L1174.4 8.02339L1174.26 8.03086L1174.22 8.07657L1174.05 8.04765L1173.94 8.09803L1173.91 8.1652L1173.84 8.05325L1173.78 8.00754L1170.87 7.38903L1170.79 7.41329L1170.71 7.47766L1170.68 7.54016L1170.44 7.73327L1170.16 7.69782L1170.05 7.78365L1169.98 8.43575L1170 8.49266L1170.23 8.92739L1170.14 9.05427L1170.24 9.30243L1170.2 9.46009L1168.77 10.7596L1168.74 10.8408L1168.79 11.3753L1168.71 11.3399H1168.62L1168.59 11.3539L1168.54 11.4304L1168.54 11.5451L1168.02 12.214L1168 12.2737V12.3456L1168.03 12.4146L1168.69 13.1021L1168.73 13.1283L1168.94 13.174L1168.99 13.1693L1169.16 13.1049L1170.84 13.7785H1170.91L1173.44 12.854L1174.42 13.4464L1174.49 13.4585L1175 13.7356L1175.1 14.4185L1175.14 14.4782L1175.35 14.662L1175.34 14.8821L1175.35 14.939L1175.84 15.8011L1175.68 15.7768L1175.6 15.8011L1175.57 15.8225L1175.38 15.7917H1175.35L1175.15 15.8104L1175.11 15.8318L1175.02 15.6742L1174.85 15.6788L1174.68 16.011L1174.68 16.0781L1174.73 16.2983L1174.67 16.4821L1174.27 16.8049L1174.24 16.8524L1174.19 17.0344L1174.09 17.0941L1174.04 17.1659L1174.01 17.3973L1174.05 17.4924L1174.31 17.6687L1174.39 17.6827L1175.28 17.4486L1175.55 17.4896V17.2032L1175.6 17.0623L1175.78 16.8879L1175.88 16.914H1175.94L1176.13 16.845L1176.18 16.8039L1176.8 15.8151L1177.45 15.7218L1177.78 15.6266L1177.86 15.5548L1177.87 15.5193L1177.92 15.579L1178.06 15.6649L1177.93 15.6462L1177.82 15.7087L1177.7 16.0697L1177.75 16.2078L1178.27 16.4158L1178.31 16.4205L1179.13 16.3366L1179.56 16.5297V16.5558L1178.42 17.2965L1178.38 17.3991L1178.4 17.5111L1178.47 17.5848L1179.26 17.8068L1179.52 18.0718L1179.38 18.6185L1179.42 18.7211L1179.8 18.9813L1180.05 19L1180.47 18.8423L1180.51 18.792L1180.66 18.4412L1181.37 18.1781L1181.43 18.1184L1181.44 18.0895L1181.73 17.8842L1182.56 17.9197L1182.64 17.8814L1182.72 17.776L1182.74 17.7023L1182.72 17.6305L1182.79 17.4392L1182.84 17.3963L1182.87 17.3394L1182.88 17.2443L1182.82 17.1388L1182.74 17.1099L1182.69 17.1053L1181.3 17.3394L1180.95 16.7591L1180.88 16.7116L1180.75 16.6901L1180.7 16.6164L1180.63 16.5782L1180.26 16.5371L1180.28 16.4634L1180.11 16.3319L1180.3 16.2936L1180.43 16.3561L1180.48 16.3636L1180.89 16.3179L1180.96 16.2843L1181.19 15.9736L1181.2 15.9643V15.9764L1181.07 16.2106L1181.09 16.3561L1181.25 16.4186L1181.34 16.4112L1181.61 16.2321L1181.65 16.1294L1181.63 16.0054L1182.17 15.4941L1182.24 15.5109L1182.3 15.5063L1182.76 15.301L1182.82 15.4064L1182.97 15.4326L1183.64 14.8187L1184.31 14.6153L1184.38 14.5267L1184.42 13.9511L1185.18 13.4949L1185.62 13.4809L1185.71 13.4137L1185.9 12.8596L1185.89 12.7784L1185.79 12.618L1185.81 12.4697L1185.81 12.4193L1185.67 12.0946L1185.69 12.0135L1185.88 11.8082L1185.66 11.6291L1185.77 11.5004L1185.77 11.4798Z" fill="#020202"/>
</g>
<g id="cash_delivery">
<g id="Vector_39">
<path d="M1174 46.2344V45.4946H1177.99C1178.07 45.4187 1178.13 45.3397 1178.16 45.2575C1178.2 45.1752 1178.22 45.0804 1178.22 44.9729C1178.22 44.7136 1178.13 44.4986 1177.93 44.3279C1177.75 44.1509 1177.47 44.0623 1177.11 44.0623C1176.8 44.0623 1176.54 44.1414 1176.34 44.2995C1176.14 44.4512 1175.97 44.6725 1175.84 44.9634L1174.5 44.8401C1174.66 44.271 1174.96 43.822 1175.4 43.4932C1175.84 43.1644 1176.4 43 1177.05 43C1177.58 43 1178.03 43.0822 1178.4 43.2466C1178.78 43.4047 1179.06 43.6292 1179.25 43.9201C1179.45 44.2046 1179.55 44.5429 1179.55 44.935C1179.55 45.0488 1179.53 45.1563 1179.5 45.2575C1179.47 45.3523 1179.44 45.4313 1179.4 45.4946H1180V46.2344H1174Z" fill="#020202"/>
<path d="M1176.95 50C1176.45 50 1176.01 49.9273 1175.65 49.7818C1175.28 49.6301 1175 49.4182 1174.8 49.1463C1174.6 48.8681 1174.5 48.5425 1174.5 48.1694C1174.5 48.0619 1174.51 47.967 1174.53 47.8848C1174.55 47.7963 1174.57 47.7204 1174.6 47.6572H1174V46.9173H1180V47.6572H1175.98C1175.94 47.7204 1175.9 47.79 1175.87 47.8659C1175.84 47.9354 1175.83 48.0145 1175.83 48.103C1175.83 48.3433 1175.93 48.5425 1176.13 48.7005C1176.33 48.8523 1176.6 48.9282 1176.92 48.9282C1177.22 48.9282 1177.49 48.8618 1177.72 48.729C1177.96 48.5899 1178.14 48.4033 1178.25 48.1694L1179.68 48.2453C1179.53 48.7891 1179.21 49.2191 1178.72 49.5352C1178.24 49.8451 1177.64 50 1176.95 50Z" fill="#020202"/>
<path fill-rule="evenodd" clip-rule="evenodd" d="M1181.8 53C1183.6 53 1185 51.6 1185 49.8V40.2C1185 38.4 1183.6 37 1181.8 37H1172.2C1170.4 37 1169 38.4 1169 40.2V49.8C1169 51.6 1170.4 53 1172.2 53H1181.8ZM1181.8 51C1182.5 51 1183 50.4954 1183 49.8V40.2C1183 39.5046 1182.5 39 1181.8 39H1180V41.4963C1180 41.8376 1179.67 42.0786 1179.34 41.9706L1177.16 41.2427C1177.06 41.2085 1176.94 41.2085 1176.84 41.2427L1174.66 41.9706C1174.33 42.0786 1174 41.8376 1174 41.4963V39H1172.2C1171.5 39 1171 39.5046 1171 40.2V49.8C1171 50.4954 1171.5 51 1172.2 51H1181.8Z" fill="#020202"/>
</g>
</g>
<g id="Box 24">
<path id="Vector_40" fill-rule="evenodd" clip-rule="evenodd" d="M1176.5 62.1351C1176.81 61.9556 1177.19 61.9556 1177.5 62.1351L1186 67.0561C1186.31 67.2349 1186.5 67.5647 1186.5 67.9215V78.0784C1186.5 78.4353 1186.31 78.7651 1186 78.9439L1177.5 83.8649C1177.19 84.0443 1176.81 84.0443 1176.5 83.8649L1168 78.9439C1167.69 78.7651 1167.5 78.4353 1167.5 78.0784V67.9215C1167.5 67.5647 1167.69 67.2349 1168 67.0561L1176.5 62.1351ZM1179.97 74.6262L1183.53 72.5637V69.0637L1178.78 66.3137L1175.22 68.3762L1179.97 71.1262V74.6262ZM1172.25 77.5925V79.655L1168.69 77.5925V75.53L1172.25 77.5925Z" fill="#020202"/>
</g>
<g id="item">
<g id="Vector_41">
<path fill-rule="evenodd" clip-rule="evenodd" d="M1172 98C1171.45 98 1171 98.4477 1171 99V109C1171 109.552 1171.45 110 1172 110H1182C1182.55 110 1183 109.552 1183 109V99C1183 98.4477 1182.55 98 1182 98H1172ZM1173.5 104C1173.22 104 1173 104.224 1173 104.5V107.5C1173 107.776 1173.22 108 1173.5 108H1180.5C1180.78 108 1181 107.776 1181 107.5V104.5C1181 104.224 1180.78 104 1180.5 104H1173.5Z" fill="#020202"/>
<path fill-rule="evenodd" clip-rule="evenodd" d="M1172 92C1171.45 92 1171 92.4477 1171 93V96C1171 96.5523 1171.45 97 1172 97H1182C1182.55 97 1183 96.5523 1183 96V93C1183 92.4477 1182.55 92 1182 92H1172ZM1176 94C1176 93.4477 1176.45 93 1177 93C1177.55 93 1178 93.4477 1178 94H1179C1179.55 94 1180 94.4477 1180 95C1180 95.5523 1179.55 96 1179 96H1175C1174.45 96 1174 95.5523 1174 95C1174 94.4477 1174.45 94 1175 94H1176Z" fill="#020202"/>
<path d="M1174 105.5C1174 105.224 1174.22 105 1174.5 105H1179.5C1179.78 105 1180 105.224 1180 105.5V106.5C1180 106.776 1179.78 107 1179.5 107H1174.5C1174.22 107 1174 106.776 1174 106.5V105.5Z" fill="#020202"/>
</g>
</g>
<g id="chec_16">
<path id="Vector_42" d="M1415 26.7087C1415 26.7741 1414.99 26.8388 1414.96 26.8989C1414.93 26.9591 1414.9 27.0135 1414.85 27.0589L1409.71 32.204C1409.62 32.2978 1409.51 32.3722 1409.38 32.423C1409.26 32.4738 1409.13 32.5 1409 32.5C1408.87 32.5 1408.74 32.4738 1408.62 32.423C1408.49 32.3722 1408.38 32.2978 1408.29 32.204L1405.15 29.0614C1405.1 29.016 1405.07 28.9616 1405.04 28.9015C1405.01 28.8413 1405 28.7766 1405 28.7112C1405 28.576 1405.05 28.4464 1405.15 28.351L1405.85 27.6505C1405.9 27.6036 1405.95 27.5664 1406.01 27.541C1406.07 27.5156 1406.14 27.5025 1406.2 27.5025C1406.27 27.5025 1406.34 27.5156 1406.4 27.541C1406.46 27.5664 1406.51 27.6036 1406.56 27.6505L1409 30.0927L1413.44 25.648C1413.49 25.6011 1413.54 25.5639 1413.6 25.5385C1413.66 25.5131 1413.73 25.5 1413.8 25.5C1413.86 25.5 1413.93 25.5131 1413.99 25.5385C1414.05 25.5639 1414.1 25.6011 1414.15 25.648L1414.85 26.3484C1414.95 26.4439 1415 26.5734 1415 26.7087Z" fill="#020202"/>
</g>
<g id="close_16">
<path id="Vector_43" d="M1412.86 46.5588C1413.05 46.3635 1413.05 46.0469 1412.86 45.8517L1412.15 45.1446C1411.95 44.9493 1411.64 44.9493 1411.44 45.1446L1409 47.5858L1406.56 45.1446C1406.36 44.9493 1406.05 44.9493 1405.85 45.1446L1405.14 45.8517C1404.95 46.0469 1404.95 46.3635 1405.14 46.5588L1407.59 49L1405.14 51.4412C1404.95 51.6364 1404.95 51.953 1405.14 52.1483L1405.85 52.8554C1406.05 53.0506 1406.36 53.0507 1406.56 52.8554L1409 50.4142L1411.44 52.8554C1411.64 53.0507 1411.95 53.0507 1412.15 52.8554L1412.86 52.1483C1413.05 51.953 1413.05 51.6364 1412.86 51.4412L1410.41 49L1412.86 46.5588Z" fill="#020202"/>
</g>
<g id="plus_16">
<path id="Vector_44" d="M1430 48V44.5C1430 44.2239 1429.78 44 1429.5 44H1428.5C1428.22 44 1428 44.2239 1428 44.5V48H1424.5C1424.22 48 1424 48.2239 1424 48.5V49.5C1424 49.7761 1424.22 50 1424.5 50H1428V53.5C1428 53.7761 1428.22 54 1428.5 54H1429.5C1429.78 54 1430 53.7761 1430 53.5V50H1433.5C1433.78 50 1434 49.7761 1434 49.5V48.5C1434 48.2239 1433.78 48 1433.5 48H1430Z" fill="#020202"/>
</g>
<g id="delivery_16">
<g id="Vector_45">
<path d="M1405.5 64C1405.22 64 1405 64.2239 1405 64.5V65.5C1405 65.7761 1405.22 66 1405.5 66H1412.5C1412.78 66 1413 65.7761 1413 65.5V64.5C1413 64.2239 1412.78 64 1412.5 64H1405.5Z" fill="#020202"/>
<path d="M1407.5 68C1407.22 68 1407 68.2239 1407 68.5V69.5C1407 69.7761 1407.22 70 1407.5 70H1414.5C1414.78 70 1415 69.7761 1415 69.5V68.5C1415 68.2239 1414.78 68 1414.5 68H1407.5Z" fill="#020202"/>
<path d="M1403.5 72C1403.22 72 1403 72.2239 1403 72.5V73.5C1403 73.7761 1403.22 74 1403.5 74H1410.5C1410.78 74 1411 73.7761 1411 73.5V72.5C1411 72.2239 1410.78 72 1410.5 72H1403.5Z" fill="#020202"/>
</g>
</g>
<g id="check">
<path id="Vector_46" d="M850 41.2087C850 41.2741 849.986 41.3388 849.96 41.3989C849.935 41.4591 849.897 41.5135 849.85 41.5589L841.71 49.704C841.617 49.7978 841.506 49.8722 841.385 49.923C841.263 49.9738 841.132 50 841 50C840.868 50 840.737 49.9738 840.615 49.923C840.494 49.8722 840.383 49.7978 840.29 49.704L836.15 45.5614C836.103 45.516 836.065 45.4616 836.04 45.4015C836.014 45.3413 836 45.2766 836 45.2112C836 45.076 836.054 44.9464 836.15 44.851L836.85 44.1505C836.896 44.1036 836.952 44.0664 837.013 44.041C837.074 44.0156 837.139 44.0025 837.205 44.0025C837.271 44.0025 837.336 44.0156 837.397 44.041C837.458 44.0664 837.514 44.1036 837.56 44.1505L841 47.5927L848.44 40.148C848.486 40.1011 848.542 40.0639 848.603 40.0385C848.664 40.0131 848.729 40 848.795 40C848.861 40 848.926 40.0131 848.987 40.0385C849.048 40.0639 849.104 40.1011 849.15 40.148L849.85 40.8484C849.946 40.9439 850 41.0734 850 41.2087Z" fill="#020202"/>
</g>
<g id="check_48">
<path id="Vector_47" d="M443 17.4173C442.999 17.5482 442.972 17.6776 442.921 17.7979C442.869 17.9182 442.794 18.027 442.7 18.1178L426.42 34.408C426.234 34.5956 426.013 34.7445 425.769 34.8461C425.525 34.9477 425.264 35 425 35C424.736 35 424.475 34.9477 424.231 34.8461C423.987 34.7445 423.766 34.5956 423.58 34.408L415.3 26.1228C415.206 26.032 415.131 25.9232 415.079 25.8029C415.028 25.6826 415.001 25.5532 415 25.4224C415.001 25.1519 415.109 24.8928 415.3 24.7019L416.7 23.301C416.793 23.2072 416.904 23.1328 417.025 23.082C417.147 23.0312 417.278 23.005 417.41 23.005C417.542 23.005 417.673 23.0312 417.795 23.082C417.916 23.1328 418.027 23.2072 418.12 23.301L425 30.1854L439.88 15.296C439.973 15.2022 440.084 15.1278 440.205 15.077C440.327 15.0262 440.458 15 440.59 15C440.722 15 440.853 15.0262 440.975 15.077C441.096 15.1278 441.207 15.2022 441.3 15.296L442.7 16.6969C442.891 16.8878 442.999 17.1469 443 17.4173Z" fill="#020202"/>
</g>
<g id="assortment_48">
<g id="Vector_48">
<path fill-rule="evenodd" clip-rule="evenodd" d="M481.987 30C479.779 30 477.989 31.7909 477.989 34C477.989 36.2091 479.779 38 481.987 38C484.195 38 485.985 36.2091 485.985 34C485.985 31.7909 484.195 30 481.987 30ZM473.991 34C473.991 29.5817 477.571 26 481.987 26C486.403 26 489.983 29.5817 489.983 34C489.983 38.4183 486.403 42 481.987 42C477.571 42 473.991 38.4183 473.991 34Z" fill="#020202"/>
<path fill-rule="evenodd" clip-rule="evenodd" d="M461.077 26.9714C462.814 25.6762 465.178 25.6762 466.915 26.9714L469.978 29.2546C471.702 30.5403 472.4 32.7916 471.755 34.829L470.585 38.5232C469.938 40.5685 468.059 42 465.889 42H462.103C459.933 42 458.054 40.5685 457.407 38.5232L456.237 34.829C455.592 32.7916 456.29 30.5403 458.014 29.2546L461.077 26.9714ZM464.526 30.1788C464.207 29.9404 463.785 29.9404 463.466 30.1788L460.403 32.462C460.071 32.7098 459.908 33.1769 460.049 33.621L461.218 37.3152C461.356 37.7514 461.731 38 462.103 38H465.889C466.261 38 466.636 37.7514 466.774 37.3152L467.944 33.621C468.084 33.1769 467.921 32.7098 467.589 32.462L464.526 30.1788Z" fill="#020202"/>
<path fill-rule="evenodd" clip-rule="evenodd" d="M460.373 9.5015C462.374 7.4995 465.618 7.4995 467.619 9.5015L470.491 12.3751C472.492 14.3771 472.492 17.6229 470.491 19.6249L467.619 22.4985C465.618 24.5005 462.374 24.5005 460.373 22.4985L457.501 19.6249C455.5 17.6229 455.5 14.3771 457.501 12.3751L460.373 9.5015ZM464.792 12.3299C464.352 11.89 463.64 11.89 463.2 12.3299L460.328 15.2035C459.888 15.6434 459.888 16.3566 460.328 16.7965L463.2 19.6701C463.64 20.11 464.352 20.11 464.792 19.6701L467.664 16.7965C468.104 16.3566 468.104 15.6434 467.664 15.2035L464.792 12.3299Z" fill="#020202"/>
<path fill-rule="evenodd" clip-rule="evenodd" d="M477.601 11.0213C479.494 7.65956 484.48 7.65955 486.373 11.0213L489.369 16.3439C491.276 19.7315 488.584 23.5 484.984 23.5H478.991C475.391 23.5 472.698 19.7315 474.605 16.3439L477.601 11.0213ZM481.987 12.5C481.571 12.5 481.249 12.6927 481.085 12.9844L478.088 18.3069C477.945 18.5619 477.962 18.8172 478.11 19.0513C478.263 19.2936 478.561 19.5 478.991 19.5H484.984C485.414 19.5 485.711 19.2936 485.864 19.0513C486.013 18.8172 486.029 18.5619 485.886 18.3069L482.889 12.9844C482.725 12.6927 482.403 12.5 481.987 12.5Z" fill="#020202"/>
</g>
</g>
<g id="location_48">
<path id="Vector_49" fill-rule="evenodd" clip-rule="evenodd" d="M518.961 35.2394C519.3 35.6675 519.633 36.0883 519.955 36.5007H519.983C520.226 36.8147 520.608 37 521.014 37C521.42 37 521.801 36.8147 522.044 36.5007C522.36 36.0963 522.687 35.6838 523.019 35.2641C526.277 31.1518 530.086 26.3439 529.999 21.5921C529.895 16.6741 526.113 13 521 13C515.887 13 512.091 16.6743 512.001 21.5921C511.915 26.3349 515.709 31.1292 518.961 35.2394ZM521 26C523.209 26 525 24.2091 525 22C525 19.7909 523.209 18 521 18C518.791 18 517 19.7909 517 22C517 24.2091 518.791 26 521 26Z" fill="#020202"/>
</g>
<g id="star_48">
<path id="Vector_50" d="M567.673 13.7412C568.273 12.7529 569.727 12.7529 570.327 13.7412L573.555 19.0654C573.776 19.4293 574.141 19.6861 574.562 19.7737L580.773 21.0656C581.943 21.3089 582.401 22.711 581.593 23.5787L577.399 28.0876C577.101 28.408 576.957 28.8385 577.002 29.2705L577.64 35.3211C577.762 36.4755 576.576 37.3327 575.493 36.8741L569.611 34.3843C569.221 34.2193 568.779 34.2193 568.389 34.3843L562.507 36.8741C561.424 37.3327 560.238 36.4755 560.36 35.3211L560.998 29.2705C561.043 28.8385 560.899 28.408 560.601 28.0876L556.407 23.5787C555.599 22.711 556.057 21.3089 557.227 21.0656L563.438 19.7737C563.859 19.6861 564.224 19.4293 564.445 19.0654L567.673 13.7412Z" fill="#020202"/>
</g>
<g id="plus">
<path id="Vector_51" d="M870 44V38.5C870 38.2239 869.776 38 869.5 38H868.5C868.224 38 868 38.2239 868 38.5V44H862.5C862.224 44 862 44.2239 862 44.5V45.5C862 45.7761 862.224 46 862.5 46H868V51.5C868 51.7761 868.224 52 868.5 52H869.5C869.776 52 870 51.7761 870 51.5V46H875.5C875.776 46 876 45.7761 876 45.5V44.5C876 44.2239 875.776 44 875.5 44H870Z" fill="#020202"/>
</g>
<g id="minus">
<path id="Vector_52" d="M890.5 44C890.224 44 890 44.2239 890 44.5V45.5C890 45.7761 890.224 46 890.5 46H903.5C903.776 46 904 45.7761 904 45.5V44.5C904 44.2239 903.776 44 903.5 44H890.5Z" fill="#020202"/>
</g>
<g id="close">
<path id="Vector_53" d="M930.855 40.5588C931.051 40.3635 931.051 40.0469 930.855 39.8517L930.148 39.1446C929.953 38.9493 929.636 38.9493 929.441 39.1446L925 43.5858L920.559 39.1446C920.364 38.9493 920.047 38.9493 919.852 39.1446L919.145 39.8517C918.949 40.0469 918.949 40.3635 919.145 40.5588L923.586 45L919.145 49.4412C918.949 49.6364 918.949 49.953 919.145 50.1483L919.852 50.8554C920.047 51.0506 920.364 51.0507 920.559 50.8554L925 46.4142L929.441 50.8554C929.637 51.0507 929.953 51.0507 930.148 50.8554L930.855 50.1483C931.051 49.953 931.051 49.6364 930.855 49.4412L926.414 45L930.855 40.5588Z" fill="#020202"/>
</g>
<g id="facebook">
<path id="Vector_54" d="M816.606 73.9342L817.042 71.066H814.311V69.2071C814.293 68.9926 814.323 68.7768 814.398 68.5754C814.473 68.374 814.592 68.192 814.745 68.0427C814.899 67.8934 815.083 67.7805 815.286 67.7123C815.488 67.644 815.702 67.622 815.914 67.648H817.2V65.2095C816.477 65.0865 815.746 65.0196 815.013 65.0096C814.506 64.9716 813.997 65.0466 813.522 65.2293C813.046 65.412 812.617 65.6979 812.263 66.0668C811.909 66.4357 811.639 66.8787 811.474 67.3643C811.308 67.8499 811.25 68.3664 811.303 68.8773V71.066H808.8V73.9342H811.264V81H814.331V73.9342H816.606Z" fill="#020202"/>
</g>
<g id="nova_poshta">
<path id="Vector_55" fill-rule="evenodd" clip-rule="evenodd" d="M846.423 69.411C846.478 69.3939 846.549 69.4281 846.621 69.5223C846.621 69.5223 846.621 69.5223 849.858 72.6769C850.047 72.8652 850.047 73.1504 849.858 73.2902C849.858 73.2902 849.858 73.2902 846.621 76.4933C846.549 76.5874 846.478 76.6102 846.423 76.5817C846.369 76.5532 846.334 76.4705 846.334 76.3507V69.6164C846.334 69.4995 846.369 69.4282 846.423 69.411ZM835.577 76.589C835.522 76.6061 835.451 76.5719 835.379 76.4777C835.379 76.4777 835.379 76.4777 832.142 73.3231C831.953 73.1348 831.953 72.8496 832.142 72.7098C832.142 72.7098 832.142 72.7098 835.379 69.5067C835.451 69.4126 835.522 69.3898 835.577 69.4183C835.631 69.4468 835.666 69.5295 835.666 69.6493V76.3836C835.666 76.5005 835.631 76.5718 835.577 76.589ZM844.499 67.3835C841.293 64.1435 841.293 64.1435 841.293 64.1435C841.146 63.9522 840.865 63.9522 840.674 64.1435C837.524 67.3835 837.524 67.3835 837.524 67.3835C837.434 67.451 837.389 67.5297 837.411 67.5747C837.434 67.6309 837.501 67.6647 837.614 67.6647H838.908C839.144 67.6647 839.335 67.8561 839.335 68.0922V70.7134C839.335 70.9495 839.526 71.1409 839.763 71.1409H842.237C842.474 71.1409 842.665 70.9495 842.665 70.7134V68.0922C842.665 67.8561 842.856 67.6647 843.092 67.6647H844.352C844.465 67.6647 844.555 67.6309 844.577 67.5747C844.611 67.5297 844.589 67.451 844.499 67.3835ZM837.499 78.6165C840.705 81.8565 840.705 81.8565 840.705 81.8565C840.852 82.0478 841.133 82.0478 841.324 81.8565C844.474 78.6165 844.474 78.6165 844.474 78.6165C844.564 78.549 844.609 78.4703 844.587 78.4253C844.564 78.3691 844.497 78.3353 844.384 78.3353H843.09C842.854 78.3353 842.663 78.1439 842.663 77.9078V75.2866C842.663 75.0505 842.471 74.8591 842.235 74.8591H839.76C839.524 74.8591 839.333 75.0505 839.333 75.2866V77.9078C839.333 78.1439 839.142 78.3353 838.905 78.3353H837.645C837.533 78.3353 837.443 78.3691 837.42 78.4253C837.387 78.4703 837.409 78.549 837.499 78.6165Z" fill="#020202"/>
</g>
<g id="lifecell">
<path id="Vector_56" fill-rule="evenodd" clip-rule="evenodd" d="M876.589 68.2095C875.92 67.1692 875.109 66.3175 874.161 65.656C873.214 64.9941 872.129 64.522 870.913 64.2405C868.916 63.7793 866.976 63.9874 865.104 64.813C864.07 65.269 863.155 65.8977 862.367 66.6975C861.383 67.6968 860.672 68.8282 860.239 70.0918L860.228 70.1259C860.213 70.1704 860.199 70.2157 860.185 70.2607C859.741 71.7215 860.156 72.5288 860.809 71.8525C860.834 71.8237 860.861 71.7949 860.887 71.7661C860.897 71.7543 860.907 71.7438 860.916 71.7316C861.68 70.7852 862.896 69.9963 862.896 69.9963L862.896 69.9967C863.206 69.7842 863.527 69.5857 863.862 69.4011C864.244 69.1807 864.643 68.9783 865.016 68.8417C865.016 68.8417 865.362 68.6859 865.454 68.2112L865.46 68.185C865.46 68.1802 865.461 68.1763 865.462 68.1711C865.524 67.7762 865.954 66.6897 867.169 66.6186C867.55 66.5666 867.928 66.6338 868.262 66.79C868.848 67.0649 869.298 67.6147 869.389 68.2771C869.461 68.8037 869.334 69.3003 869.061 69.6934C869.046 69.7157 869.029 69.7384 869.011 69.7615L868.995 69.7825C868.766 70.0731 868.454 70.2982 868.081 70.4247C867.858 70.5068 867.63 70.5478 867.413 70.5539H867.412C867.276 70.5714 867.124 70.5539 866.972 70.5173C866.801 70.4828 866.644 70.4261 866.509 70.3514C866.275 70.2428 866.084 70.1202 866.014 70.0569C865.958 70.0067 865.899 69.9792 865.841 69.9653C865.712 69.9448 865.607 69.9688 865.531 70.0015L865.528 70.0024C865.486 70.0207 865.453 70.0416 865.429 70.0587C865.138 70.2978 864.861 70.5487 864.599 70.8109C863.909 71.5252 863.331 72.3355 863.059 72.736C862.916 72.9629 862.779 73.1955 862.65 73.4346C862.53 73.6558 862.42 73.8797 862.317 74.1061C862.156 74.4639 862.003 74.8488 861.867 75.2624L861.848 75.3192L861.824 75.3977L861.8 75.4749C860.964 78.2981 862.47 79.9273 863.731 78.2252C863.8 78.1174 863.871 78.0109 863.943 77.9049L863.945 77.9014C865.267 75.6469 867.98 74.0193 867.98 74.0193H867.981C868.147 73.915 868.315 73.8147 868.484 73.7182L868.485 73.7174L868.517 73.6999C868.982 73.4381 869.46 73.2025 869.952 72.9974C870.389 72.8054 870.854 72.6265 871.24 72.534C871.24 72.534 871.692 72.4179 871.813 71.8703L871.813 71.8699C871.9 71.4772 872.189 70.9021 872.842 70.5932C872.996 70.5155 873.157 70.4579 873.319 70.4226C873.494 70.3842 873.669 70.3702 873.84 70.3781L873.841 70.3776C873.953 70.3759 874.046 70.3881 874.126 70.4112C874.954 70.5687 875.634 71.239 875.732 72.1221C875.852 73.1929 875.097 74.1598 874.017 74.2933C873.478 74.3601 872.99 74.2436 872.574 73.9334C872.107 73.7418 871.748 73.8648 871.619 73.9246C871.212 74.1432 870.821 74.3863 870.447 74.6524C869.752 75.1612 869.199 75.6922 868.98 75.9113C868.5 76.4022 868.074 76.9231 867.705 77.4742L867.646 77.565L867.631 77.5894C867.251 78.1859 866.847 78.9495 866.515 79.8732C866.489 79.9448 866.464 80.0164 866.44 80.0892C866.085 81.2743 866.856 81.7464 867.747 81.9184C867.747 81.9184 868.446 82.051 869.452 81.9781C869.511 81.9733 869.564 81.9681 869.609 81.9633C869.863 81.9328 870.118 81.9061 870.37 81.8638C872.106 81.5723 873.641 80.8581 874.951 79.6978C876.601 78.237 877.595 76.4166 877.904 74.2545C878.213 72.0889 877.779 70.0591 876.589 68.2099" fill="#020202"/>
</g>
<g id="kyivstar">
<g id="Vector_57">
<path fill-rule="evenodd" clip-rule="evenodd" d="M896.96 64.45C897.59 64.45 898.105 64.9648 898.105 65.594V69.8466C898.105 70.4759 897.59 70.9907 896.96 70.9907C896.33 70.9907 895.814 70.4759 895.814 69.8466V65.594C895.814 64.9648 896.33 64.45 896.96 64.45Z" fill="#020202"/>
<path fill-rule="evenodd" clip-rule="evenodd" d="M888.058 70.8276C888.259 70.209 888.93 69.8673 889.55 70.0683L893.737 71.4269C894.356 71.6279 894.698 72.2984 894.497 72.9171C894.296 73.5357 893.624 73.8774 893.005 73.6764L888.818 72.3179C888.199 72.1168 887.856 71.4463 888.058 70.8276Z" fill="#020202"/>
<path fill-rule="evenodd" clip-rule="evenodd" d="M891.474 81.3253C890.947 80.943 890.829 80.1997 891.212 79.6735L893.799 76.1168C894.182 75.5906 894.926 75.4728 895.453 75.8552C895.98 76.2375 896.098 76.9808 895.715 77.507L893.128 81.0637C892.745 81.59 892 81.7077 891.474 81.3253Z" fill="#020202"/>
<path fill-rule="evenodd" clip-rule="evenodd" d="M902.527 81.3252C902 81.7075 901.255 81.5897 900.873 81.0635L898.285 77.5069C897.902 76.9806 898.02 76.2373 898.547 75.855C899.074 75.4727 899.818 75.5904 900.201 76.1166L902.789 79.6733C903.172 80.1995 903.054 80.9429 902.527 81.3252Z" fill="#020202"/>
<path fill-rule="evenodd" clip-rule="evenodd" d="M905.942 70.8274C906.144 71.446 905.801 72.1166 905.182 72.3176L900.995 73.6761C900.376 73.8771 899.704 73.5354 899.503 72.9168C899.301 72.2982 899.644 71.6276 900.263 71.4266L904.45 70.0681C905.069 69.8671 905.741 70.2088 905.942 70.8274Z" fill="#020202"/>
</g>
</g>
<g id="vodafone">
<path id="Vector_58" fill-rule="evenodd" clip-rule="evenodd" d="M934 73C934 77.9706 929.971 82 925 82C920.029 82 916 77.9706 916 73C916 68.0294 920.029 64 925 64C929.971 64 934 68.0294 934 73ZM920.045 72.5301C920.056 75.8984 922.613 77.9956 925.07 77.9875C928.104 77.9771 929.9 75.4828 929.892 73.2113C929.885 70.9398 928.648 69.294 925.925 68.6307C925.917 68.5826 925.914 68.534 925.914 68.4853C925.908 66.7668 927.203 65.2521 928.831 64.9144C928.678 64.8624 928.427 64.8434 928.188 64.8434C926.326 64.8497 924.276 65.6458 922.775 66.8863C921.239 68.1562 920.038 70.3025 920.045 72.5301Z" fill="#020202"/>
</g>
<g id="instagram">
<path id="Vector_59" d="M813 94.4414C815.136 94.4414 815.389 94.4496 816.233 94.4881C817.013 94.5237 817.436 94.654 817.718 94.7635C818.092 94.9087 818.358 95.082 818.638 95.362C818.918 95.6419 819.091 95.9084 819.236 96.2818C819.346 96.5637 819.476 96.9873 819.512 97.7673C819.55 98.6109 819.559 98.8639 819.559 101C819.559 103.136 819.55 103.389 819.512 104.233C819.476 105.013 819.346 105.436 819.236 105.718C819.091 106.092 818.918 106.358 818.638 106.638C818.358 106.918 818.092 107.091 817.718 107.236C817.436 107.346 817.013 107.476 816.233 107.512C815.389 107.55 815.136 107.559 813 107.559C810.864 107.559 810.611 107.55 809.767 107.512C808.987 107.476 808.564 107.346 808.282 107.236C807.908 107.091 807.642 106.918 807.362 106.638C807.082 106.358 806.909 106.092 806.764 105.718C806.654 105.436 806.524 105.013 806.488 104.233C806.45 103.389 806.441 103.136 806.441 101C806.441 98.8639 806.45 98.6109 806.488 97.7673C806.524 96.9873 806.654 96.5637 806.764 96.2818C806.909 95.9084 807.082 95.6419 807.362 95.362C807.642 95.082 807.908 94.9087 808.282 94.7635C808.564 94.654 808.987 94.5237 809.767 94.4881C810.611 94.4496 810.864 94.4414 813 94.4414ZM813 93C810.827 93 810.555 93.0092 809.702 93.0481C808.85 93.087 808.269 93.2222 807.76 93.42C807.234 93.6244 806.787 93.898 806.343 94.3427C805.898 94.7875 805.624 95.2336 805.42 95.7597C805.222 96.2686 805.087 96.8501 805.048 97.7016C805.009 98.5549 805 98.8273 805 101C805 103.173 805.009 103.445 805.048 104.298C805.087 105.15 805.222 105.731 805.42 106.24C805.624 106.766 805.898 107.213 806.343 107.657C806.787 108.102 807.234 108.376 807.76 108.58C808.269 108.778 808.85 108.913 809.702 108.952C810.555 108.991 810.827 109 813 109C815.173 109 815.445 108.991 816.298 108.952C817.15 108.913 817.731 108.778 818.24 108.58C818.766 108.376 819.213 108.102 819.657 107.657C820.102 107.213 820.376 106.766 820.58 106.24C820.778 105.731 820.913 105.15 820.952 104.298C820.991 103.445 821 103.173 821 101C821 98.8273 820.991 98.5549 820.952 97.7016C820.913 96.8501 820.778 96.2686 820.58 95.7597C820.376 95.2336 820.102 94.7875 819.657 94.3427C819.213 93.898 818.766 93.6244 818.24 93.42C817.731 93.2222 817.15 93.087 816.298 93.0481C815.445 93.0092 815.173 93 813 93ZM813 96.8919C810.731 96.8919 808.892 98.7312 808.892 101C808.892 103.269 810.731 105.108 813 105.108C815.269 105.108 817.108 103.269 817.108 101C817.108 98.7312 815.269 96.8919 813 96.8919ZM813 103.667C811.527 103.667 810.333 102.473 810.333 101C810.333 99.5272 811.527 98.3333 813 98.3333C814.473 98.3333 815.667 99.5272 815.667 101C815.667 102.473 814.473 103.667 813 103.667ZM817.27 95.7696C816.74 95.7696 816.31 96.1994 816.31 96.7296C816.31 97.2598 816.74 97.6896 817.27 97.6896C817.801 97.6896 818.23 97.2598 818.23 96.7296C818.23 96.1994 817.801 95.7696 817.27 95.7696Z" fill="#020202"/>
</g>
<g id="linkedin">
<path id="Vector_60" d="M846.633 106.633H844.262V102.92C844.262 102.035 844.246 100.895 843.029 100.895C841.794 100.895 841.605 101.86 841.605 102.856V106.633H839.235V98.9979H841.511V100.041H841.542C841.77 99.6519 842.099 99.3315 842.495 99.1143C842.89 98.8971 843.337 98.7913 843.788 98.808C846.191 98.808 846.634 100.389 846.634 102.445L846.633 106.633ZM836.56 97.9543C836.288 97.9543 836.022 97.8737 835.795 97.7226C835.569 97.5714 835.393 97.3566 835.289 97.1052C835.184 96.8538 835.157 96.5772 835.21 96.3103C835.263 96.0434 835.394 95.7983 835.587 95.6058C835.779 95.4134 836.024 95.2823 836.291 95.2292C836.558 95.1761 836.834 95.2033 837.086 95.3073C837.337 95.4114 837.552 95.5877 837.703 95.8139C837.854 96.0402 837.935 96.3061 837.935 96.5783C837.935 96.7589 837.9 96.9378 837.831 97.1048C837.762 97.2717 837.66 97.4234 837.532 97.5512C837.405 97.6789 837.253 97.7803 837.086 97.8495C836.919 97.9186 836.74 97.9543 836.56 97.9543ZM837.745 106.633H835.372V98.9979H837.745V106.633ZM847.815 93.0011H834.181C833.871 92.9976 833.573 93.1171 833.352 93.3334C833.13 93.5496 833.004 93.8449 833 94.1544V107.845C833.004 108.155 833.13 108.451 833.351 108.667C833.573 108.883 833.871 109.003 834.181 109H847.815C848.125 109.004 848.424 108.884 848.646 108.668C848.868 108.451 848.996 108.156 849 107.845V94.1534C848.996 93.8433 848.868 93.5477 848.646 93.3314C848.424 93.1152 848.125 92.996 847.815 93.0001" fill="#020202"/>
</g>
<g id="telegram">
<path id="Vector_61" fill-rule="evenodd" clip-rule="evenodd" d="M862.1 100.073C866.395 98.1916 869.259 96.9512 870.692 96.3518C874.783 94.6406 875.634 94.3433 876.188 94.3335C876.31 94.3313 876.582 94.3617 876.759 94.5057C876.908 94.6273 876.949 94.7916 876.968 94.9069C876.988 95.0222 877.012 95.2849 876.993 95.4901C876.771 97.8327 875.812 103.518 875.324 106.141C875.117 107.251 874.711 107.624 874.317 107.66C873.461 107.739 872.812 107.092 871.983 106.545C870.686 105.691 869.954 105.159 868.695 104.324C867.24 103.361 868.183 102.831 869.012 101.965C869.229 101.738 872.999 98.2906 873.072 97.9778C873.081 97.9387 873.09 97.7929 873.003 97.7159C872.917 97.6389 872.79 97.6652 872.698 97.6862C872.568 97.7159 870.497 99.0926 866.484 101.817C865.896 102.223 865.363 102.42 864.886 102.41C864.36 102.399 863.348 102.111 862.596 101.865C861.673 101.563 860.94 101.404 861.004 100.892C861.037 100.625 861.402 100.352 862.1 100.073Z" fill="#020202"/>
</g>
<g id="youtube">
<path id="Vector_62" fill-rule="evenodd" clip-rule="evenodd" d="M903.251 95.7344C903.939 95.9184 904.482 96.4605 904.666 97.1489C905 98.3967 905 101 905 101C905 101 905 103.603 904.666 104.851C904.482 105.54 903.939 106.082 903.251 106.266C902.003 106.6 897 106.6 897 106.6C897 106.6 891.997 106.6 890.749 106.266C890.061 106.082 889.518 105.54 889.334 104.851C889 103.603 889 101 889 101C889 101 889 98.3967 889.334 97.1489C889.518 96.4605 890.061 95.9184 890.749 95.7344C891.997 95.4 897 95.4 897 95.4C897 95.4 902.003 95.4 903.251 95.7344ZM899.545 101L895.364 103.364V98.6364L899.545 101Z" fill="#020202"/>
</g>
<g id="viber">
<g id="Vector_63">
<path d="M931.581 93.7557C931.136 93.343 929.336 92.0307 925.326 92.0129C925.326 92.0129 920.598 91.7266 918.293 93.8497C917.01 95.1384 916.558 97.0241 916.511 99.3619C916.463 101.7 916.401 106.081 920.607 107.269H920.611L920.608 109.082C920.608 109.082 920.581 109.816 921.063 109.965C921.645 110.147 921.986 109.589 922.542 108.988C922.847 108.658 923.268 108.173 923.586 107.802C926.462 108.045 928.674 107.49 928.926 107.407C929.506 107.218 932.793 106.795 933.327 102.415C933.879 97.8992 933.06 95.043 931.581 93.7557ZM932.068 102.091C931.617 105.749 928.952 105.979 928.46 106.137C928.251 106.204 926.309 106.69 923.865 106.53C923.865 106.53 922.045 108.735 921.476 109.309C921.387 109.398 921.283 109.434 921.213 109.417C921.115 109.393 921.089 109.276 921.09 109.106C921.091 108.863 921.105 106.094 921.105 106.094C917.547 105.102 917.755 101.373 917.795 99.4202C917.836 97.4676 918.201 95.868 919.286 94.7921C921.236 93.0188 925.252 93.2838 925.252 93.2838C928.644 93.2987 930.269 94.3243 930.646 94.6679C931.897 95.7437 932.535 98.3182 932.068 102.09V102.091Z" fill="#020202"/>
<path d="M926.976 99.4874C926.918 99.4874 926.862 99.465 926.82 99.4248C926.778 99.3846 926.753 99.3296 926.75 99.2713C926.712 98.4985 926.349 98.1201 925.609 98.0801C925.55 98.0754 925.495 98.0478 925.456 98.0031C925.418 97.9584 925.398 97.9002 925.401 97.8409C925.404 97.7816 925.43 97.7258 925.474 97.6856C925.517 97.6454 925.575 97.6238 925.634 97.6255C926.61 97.6796 927.153 98.2395 927.203 99.2486C927.204 99.2785 927.2 99.3084 927.19 99.3366C927.18 99.3647 927.165 99.3906 927.145 99.4128C927.125 99.435 927.1 99.453 927.074 99.4658C927.047 99.4786 927.017 99.4859 926.988 99.4874H926.976Z" fill="#020202"/>
<path d="M928.14 99.8792H928.135C928.075 99.8778 928.018 99.8525 927.976 99.8088C927.935 99.7652 927.912 99.7067 927.913 99.6464C927.931 98.8682 927.709 98.238 927.237 97.7199C926.764 97.2019 926.119 96.921 925.261 96.8577C925.2 96.8533 925.145 96.8252 925.105 96.7794C925.066 96.7336 925.046 96.674 925.051 96.6137C925.055 96.5534 925.083 96.4973 925.129 96.4577C925.174 96.4182 925.234 96.3985 925.294 96.4029C926.26 96.4739 927.026 96.8134 927.571 97.4117C928.116 98.01 928.387 98.7669 928.367 99.6558C928.365 99.7154 928.341 99.7721 928.299 99.8139C928.256 99.8556 928.199 99.8791 928.14 99.8792Z" fill="#020202"/>
<path d="M929.331 100.346C929.271 100.346 929.214 100.323 929.171 100.28C929.129 100.238 929.105 100.18 929.104 100.12C929.094 98.7284 928.695 97.6652 927.884 96.8706C927.083 96.0872 926.071 95.6853 924.876 95.6767C924.846 95.6766 924.816 95.6706 924.789 95.659C924.761 95.6475 924.737 95.6306 924.716 95.6094C924.673 95.5665 924.649 95.5085 924.65 95.4482C924.65 95.3878 924.674 95.3299 924.717 95.2874C924.759 95.2448 924.817 95.221 924.877 95.2213H924.879C926.195 95.231 927.312 95.6761 928.2 96.5448C929.088 97.4135 929.546 98.6177 929.558 100.118C929.558 100.178 929.535 100.236 929.493 100.279C929.451 100.322 929.393 100.346 929.333 100.347L929.331 100.346Z" fill="#020202"/>
<path d="M925.666 102.31C925.666 102.31 925.985 102.337 926.157 102.124L926.491 101.702C926.653 101.492 927.042 101.358 927.424 101.572C927.709 101.735 927.987 101.913 928.255 102.105C928.508 102.292 929.026 102.726 929.028 102.726C929.275 102.935 929.332 103.243 929.164 103.567C929.164 103.569 929.163 103.572 929.163 103.574C928.977 103.896 928.742 104.187 928.466 104.435C928.463 104.436 928.463 104.438 928.46 104.44C928.22 104.641 927.984 104.755 927.753 104.783C927.719 104.789 927.684 104.791 927.649 104.789C927.547 104.79 927.446 104.775 927.349 104.743L927.341 104.732C926.985 104.631 926.389 104.378 925.397 103.829C924.823 103.514 924.277 103.152 923.764 102.745C923.507 102.541 923.261 102.323 923.029 102.091L922.955 102.016C922.947 102.008 922.939 102 922.93 101.992C922.699 101.758 922.482 101.512 922.279 101.254C921.874 100.739 921.513 100.19 921.2 99.6141C920.653 98.6179 920.401 98.0204 920.3 97.6617L920.289 97.6542C920.258 97.5567 920.242 97.4547 920.243 97.3522C920.241 97.3175 920.244 97.2827 920.25 97.2485C920.278 97.0163 920.393 96.7794 920.592 96.5378C920.594 96.5348 920.595 96.5348 920.597 96.5316C920.844 96.2543 921.133 96.0183 921.454 95.8325C921.456 95.8325 921.459 95.8309 921.461 95.8309C921.784 95.6621 922.09 95.7193 922.298 95.966C922.3 95.9676 922.732 96.4881 922.917 96.7423C923.108 97.0118 923.285 97.2907 923.448 97.578C923.66 97.9607 923.527 98.3527 923.318 98.5142L922.897 98.8502C922.685 99.0226 922.713 99.3426 922.713 99.3426C922.713 99.3426 923.336 101.712 925.666 102.31Z" fill="#020202"/>
</g>
</g>
<g id="whattsup">
<g id="Vector_64">
<path d="M961.994 100.595C961.909 98.2959 960.932 96.1184 959.266 94.5169C957.6 92.9154 955.374 92.0136 953.053 92H953.009C951.446 91.9989 949.91 92.401 948.551 93.1669C947.193 93.9329 946.059 95.0362 945.261 96.3682C944.463 97.7003 944.029 99.2153 944.001 100.764C943.974 102.313 944.353 103.842 945.103 105.201L944.307 109.922C944.306 109.932 944.307 109.942 944.309 109.951C944.312 109.96 944.317 109.969 944.323 109.976C944.33 109.984 944.338 109.99 944.347 109.994C944.356 109.998 944.366 110 944.375 110H944.389L949.1 108.961C950.317 109.541 951.65 109.841 953.001 109.841C953.087 109.841 953.172 109.841 953.258 109.841C954.446 109.807 955.615 109.541 956.698 109.057C957.782 108.573 958.758 107.881 959.57 107.022C960.382 106.162 961.014 105.152 961.43 104.048C961.846 102.945 962.038 101.772 961.994 100.595ZM953.213 108.289C953.142 108.289 953.071 108.289 953.001 108.289C951.807 108.291 950.631 108.008 949.571 107.464L949.33 107.339L946.135 108.087L946.725 104.884L946.588 104.654C945.934 103.549 945.582 102.294 945.566 101.013C945.55 99.7322 945.871 98.4691 946.498 97.3485C947.124 96.2279 948.034 95.2883 949.139 94.6224C950.243 93.9565 951.503 93.5871 952.795 93.5507C952.867 93.5507 952.939 93.5507 953.012 93.5507C954.962 93.5564 956.833 94.3214 958.22 95.681C959.607 97.0405 960.4 98.8857 960.427 100.819C960.455 102.752 959.715 104.619 958.367 106.017C957.019 107.415 955.171 108.232 953.222 108.292L953.213 108.289Z" fill="#020202"/>
<path d="M949.871 96.614C949.76 96.6162 949.65 96.6404 949.549 96.6853C949.447 96.7303 949.356 96.7949 949.28 96.8755C949.065 97.0935 948.466 97.6183 948.431 98.7202C948.396 99.8221 949.173 100.912 949.282 101.065C949.39 101.218 950.767 103.598 953.034 104.564C954.367 105.133 954.951 105.23 955.33 105.23C955.486 105.23 955.604 105.214 955.727 105.207C956.142 105.182 957.08 104.706 957.284 104.188C957.489 103.671 957.503 103.218 957.449 103.128C957.395 103.037 957.247 102.972 957.024 102.856C956.802 102.741 955.709 102.162 955.503 102.08C955.427 102.045 955.345 102.024 955.262 102.018C955.207 102.021 955.154 102.037 955.107 102.064C955.06 102.092 955.021 102.131 954.992 102.177C954.81 102.402 954.391 102.892 954.25 103.033C954.219 103.068 954.182 103.096 954.139 103.116C954.097 103.136 954.051 103.146 954.004 103.147C953.917 103.143 953.833 103.121 953.756 103.081C953.094 102.802 952.491 102.403 951.977 101.905C951.497 101.436 951.09 100.899 950.769 100.312C950.645 100.084 950.769 99.966 950.882 99.8592C950.995 99.7524 951.116 99.605 951.233 99.4774C951.329 99.3684 951.409 99.2466 951.471 99.1155C951.502 99.0547 951.519 98.987 951.517 98.9184C951.516 98.8499 951.498 98.7827 951.464 98.7229C951.41 98.6089 951.008 97.488 950.819 97.0383C950.666 96.6538 950.483 96.6412 950.323 96.6294C950.192 96.6204 950.041 96.6158 949.891 96.6113H949.871" fill="#020202"/>
</g>
</g>
<g id="x_twitter">
<path id="Vector_65" d="M986.176 92.8182H988.936L982.906 99.7496L990 109.182H984.446L980.095 103.461L975.117 109.182H972.355L978.805 101.768L972 92.8182H977.695L981.628 98.047L986.176 92.8182ZM985.207 107.52H986.737L976.864 94.3924H975.223L985.207 107.52Z" fill="#020202"/>
</g>
<g id="pinterest">
<path id="Vector_66" d="M1000 101.001C1000.05 98.4464 1000.95 96.313 1002.71 94.6029C1004.47 92.8928 1006.56 92.0238 1009 92C1011.62 92.0468 1013.78 92.9432 1015.45 94.6893C1017.13 96.4354 1017.98 98.54 1018 101.001C1017.95 103.532 1017.05 105.66 1015.29 107.383C1013.53 109.104 1011.44 109.977 1009 110C1008.16 110 1007.31 109.87 1006.47 109.613C1006.63 109.355 1006.8 109.062 1006.96 108.734C1007.15 108.336 1007.38 107.586 1007.67 106.484C1007.74 106.18 1007.84 105.769 1007.98 105.253C1008.15 105.534 1008.43 105.791 1008.83 106.027C1009.88 106.519 1010.99 106.472 1012.17 105.886C1013.38 105.182 1014.23 104.094 1014.7 102.618C1015.12 101.071 1015.07 99.6345 1014.54 98.3111C1014.01 96.9862 1013.07 96.0322 1011.71 95.4453C1010 94.9536 1008.33 95.0061 1006.72 95.6037C1005.1 96.2014 1003.97 97.2281 1003.34 98.6804C1003.18 99.219 1003.08 99.7533 1003.04 100.281C1003.01 100.809 1003.02 101.324 1003.09 101.828C1003.16 102.332 1003.34 102.784 1003.62 103.181C1003.9 103.579 1004.28 103.886 1004.75 104.096C1004.86 104.143 1004.96 104.143 1005.03 104.096C1005.12 104.049 1005.22 103.862 1005.31 103.534C1005.4 103.207 1005.44 102.983 1005.42 102.866C1005.39 102.819 1005.34 102.736 1005.28 102.619C1004.78 101.821 1004.62 100.985 1004.78 100.106C1004.95 99.2276 1005.31 98.4824 1005.87 97.874C1006.74 97.1 1007.75 96.6787 1008.91 96.6082C1010.07 96.5376 1011.06 96.8552 1011.88 97.5572C1012.33 98.072 1012.62 98.6934 1012.74 99.4206C1012.87 100.148 1012.87 100.845 1012.74 101.512C1012.61 102.18 1012.38 102.807 1012.06 103.394C1011.47 104.308 1010.78 104.776 1009.98 104.8C1009.52 104.776 1009.13 104.595 1008.84 104.254C1008.55 103.914 1008.46 103.521 1008.58 103.077C1008.62 102.819 1008.76 102.315 1009 101.565C1009.23 100.814 1009.36 100.252 1009.39 99.8778C1009.32 98.9864 1008.9 98.5292 1008.15 98.5062C1007.57 98.5767 1007.14 98.841 1006.85 99.2968C1006.57 99.7526 1006.42 100.276 1006.4 100.861C1006.47 101.542 1006.57 102.01 1006.71 102.268C1006.46 103.322 1006.26 104.167 1006.12 104.799C1006.07 104.963 1005.94 105.467 1005.73 106.311C1005.52 107.155 1005.4 107.8 1005.38 108.244V109.229C1003.71 108.455 1002.4 107.337 1001.44 105.871C1000.48 104.406 1000 102.782 1000 101.001Z" fill="#020202"/>
</g>
<g id="tiktok">
<path id="Vector_67" d="M1041.78 95.0226C1041.16 94.4246 1040.75 93.6243 1040.6 92.7453C1040.58 92.6284 1040.57 92.5093 1040.55 92.3924V91.9945H1037.45V104.307C1037.45 105.741 1036.28 106.903 1034.84 106.903C1034.42 106.903 1034.02 106.802 1033.67 106.624C1033.24 106.407 1032.88 106.075 1032.62 105.663C1032.37 105.252 1032.24 104.779 1032.24 104.296C1032.24 102.857 1033.4 101.688 1034.84 101.688C1035.12 101.688 1035.39 101.731 1035.64 101.809V98.6576C1035.38 98.6216 1035.11 98.6036 1034.85 98.6036C1031.7 98.6104 1029.15 101.162 1029.15 104.307C1029.15 106.281 1030.15 108.018 1031.68 109.041C1032.62 109.672 1033.72 110.008 1034.85 110.005C1038 110.005 1040.55 107.454 1040.55 104.307V98.0146C1041.81 98.9114 1043.31 99.3926 1044.85 99.3904V96.3084C1044.38 96.3084 1043.91 96.232 1043.46 96.0814C1043.15 95.9757 1042.56 95.7869 1041.77 95.0226H1041.78Z" fill="#020202"/>
</g>
</g>
</svg>
