<svg width="78" height="50" viewBox="0 0 78 50" fill="none" xmlns="http://www.w3.org/2000/svg">
<path d="M77.5743 46.7372V47.4197C77.0478 47.9364 76.5938 48.5497 75.8095 48.7281C75.2761 48.85 74.7683 48.7788 74.38 48.3771C73.0074 46.9556 71.4554 45.7447 69.9102 44.5162C69.42 44.1262 68.9523 43.7002 68.4699 43.2955C68.363 43.1985 68.242 43.118 68.1111 43.0567C67.9875 43.005 67.8434 42.8412 67.7189 42.9816C67.6424 43.0694 67.6385 43.2283 67.6277 43.3716C67.514 44.8877 67.9219 46.3521 68.0503 47.8438C68.1238 48.7213 67.3924 49.5237 66.4267 49.5568C65.4168 49.5919 65.2207 49.5568 64.8992 48.6326C64.4344 47.3027 64.1491 45.9407 63.9295 44.5513C63.5971 42.4454 63.6177 40.3316 63.6628 38.214C63.6942 36.7183 63.9275 35.2257 63.9187 33.7291C63.9109 32.4363 63.6942 31.1434 63.5589 29.8526C63.4334 28.6611 63.455 27.4678 63.8766 26.3426C64.2128 25.4496 65.0649 25.1727 65.9561 25.0976C67.0434 25.0118 67.5022 25.4798 67.4807 26.5532C67.4463 28.2175 67.2846 29.875 67.2503 31.5403C67.211 33.2504 67.0757 34.9605 67.0797 36.6735C67.0797 36.966 67.0248 37.3131 67.3522 37.4369C67.6581 37.552 67.967 37.4593 68.2562 37.2419C69.2366 36.4961 70.1661 35.682 71.3122 35.1633C72.3113 34.7158 73.2623 34.7538 74.1888 35.3319C74.8751 35.7629 74.8751 36.4912 74.1222 36.9728C73.2329 37.5422 72.3025 38.0512 71.3906 38.5874C70.9217 38.8687 70.4732 39.1824 70.0484 39.5263C69.7857 39.7359 69.7994 39.8987 70.0563 40.0898C70.82 40.6573 71.5544 41.2598 72.2672 41.8877C73.1143 42.6345 73.9967 43.3404 74.8467 44.0833C75.6016 44.7424 76.3331 45.4298 77.0772 46.1015C77.2856 46.2767 77.4549 46.4932 77.5743 46.7372ZM13.6819 46.2185C12.7015 45.2435 11.6446 44.3661 10.619 43.4545C9.2827 42.263 7.91401 41.1145 6.49531 40.0187C6.28844 39.8597 6.29923 39.772 6.46688 39.6111C6.81123 39.2975 7.18974 39.0231 7.59537 38.7931C8.56894 38.2081 9.56409 37.6563 10.5416 37.0771C11.2701 36.6462 11.4505 35.9364 10.9249 35.4977C10.3994 35.0589 9.74841 34.8025 9.0523 34.8581C8.13461 34.9312 7.32869 35.33 6.6012 35.8789C5.9345 36.381 5.27172 36.887 4.59914 37.3794C4.35501 37.5588 4.08343 37.5159 3.81479 37.4028C3.54615 37.2897 3.67753 37.0654 3.67263 36.8939C3.65498 36.2933 3.67753 35.6917 3.66184 35.0911C3.62655 33.6813 3.68243 32.2725 3.78145 30.8695C3.89617 29.2403 4.00107 27.6121 3.94421 25.9809C3.93146 25.6173 3.7393 25.2897 3.26378 25.1746C2.46374 24.9796 1.77646 25.2049 1.08917 25.5568C0.685225 25.7645 0.466588 26.1048 0.339131 26.5133C-0.0824586 27.8685 -0.0118696 29.253 0.161668 30.6277C0.357756 32.211 0.466586 33.7817 0.367561 35.3856C0.268537 36.9894 0.0989212 38.5728 0.135197 40.1746C0.159268 41.9576 0.319211 43.7362 0.613653 45.4951C0.816093 46.6544 1.12088 47.7937 1.52448 48.8997C1.57006 49.0472 1.65016 49.1818 1.75822 49.2924C1.86628 49.4031 1.99921 49.4867 2.14608 49.5364C3.49223 49.9771 4.76189 48.8149 4.55208 47.4236C4.35599 46.1249 4.07559 44.8292 4.1599 43.5013C4.17167 43.316 4.06774 43.0547 4.29226 42.9777C4.47659 42.9153 4.68444 43.0362 4.85112 43.1786C5.50017 43.7333 6.14235 44.2978 6.812 44.8263C8.22089 45.9358 9.63076 47.0434 10.8916 48.3216C11.3505 48.7866 11.872 48.8412 12.478 48.6989C13.0074 48.5731 13.327 48.189 13.6819 47.8399C14.3124 47.2169 14.3124 46.8454 13.6819 46.2185ZM53.3133 14.8243C52.6878 15.4034 51.9132 15.7154 51.1328 16.0157C49.6484 16.589 48.0836 16.8552 46.5355 17.1857C45.5355 17.3963 45.5374 17.4236 45.3855 18.4931C45.2518 19.3655 45.1638 20.2441 45.1217 21.1255C45.0805 22.2516 45.3953 23.3378 45.6443 24.4297C45.8698 25.4164 46.1904 26.3231 46.7983 27.1714C47.2355 27.7827 47.1346 28.2955 46.1188 28.4545C45.3031 28.5822 44.4638 28.6056 43.6981 28.0567C43.0393 27.5857 42.8157 26.9228 42.6706 26.2257C42.4373 25.0635 42.3608 23.8779 42.2461 22.6982C42.1784 22.0011 42.202 21.3098 42.1569 20.5172C42.1892 18.9406 42.3412 17.2783 42.5304 15.613C42.6441 14.6108 42.7687 13.6065 42.8618 12.6004C42.952 11.6254 43.1089 10.666 43.2383 9.69882C43.2814 9.37805 43.1461 9.10311 43.0108 8.83109C42.8147 8.4411 42.7765 8.12716 43.0765 7.72644C43.404 7.29063 43.4687 6.72417 43.4432 6.16648C43.3697 4.41152 45.659 3.73684 46.6424 4.3189C47.0875 4.58214 47.365 4.93898 47.3679 5.484C47.3756 5.75634 47.4115 6.02717 47.4748 6.29225C47.5081 6.44337 47.5963 6.54282 47.8003 6.58474C48.7268 6.76511 49.6759 6.85481 50.573 7.16095C51.6142 7.51487 52.7035 7.74594 53.5868 8.48985C54.2173 9.01828 54.6741 9.64909 54.7928 10.4398C55.0467 12.1285 54.6085 13.6309 53.3133 14.8291V14.8243ZM50.5945 9.94939C49.9082 9.6569 49.2121 9.3332 48.4503 9.38683C47.5679 9.31565 47.265 9.5906 46.8512 10.2536C46.2826 11.1652 46.0747 12.2035 46.0041 13.2555C45.9355 14.2793 46.3502 14.68 47.3885 14.6322C49.2151 14.5493 50.8936 13.4564 51.2759 11.4021C51.3926 10.783 51.121 10.1727 50.5945 9.95037V9.94939ZM30.1514 9.72417C29.4337 9.63935 28.7101 9.51163 27.9728 9.62667C27.2355 9.74172 26.5022 9.79339 25.7639 9.88016C25.3825 9.92599 25.2453 9.74172 25.3109 9.39853C25.409 8.88666 25.3737 8.36895 25.4149 7.85709C25.4688 7.1746 25.5815 6.49212 25.6825 5.80964C25.8786 4.50804 26.3159 3.28055 26.8198 2.06963C27.061 1.49049 26.862 0.970823 26.3365 0.615932C25.5786 0.103094 24.7442 0.145998 23.9109 0.30492C23.2059 0.440441 22.7589 0.841153 22.6363 1.60456C22.5863 1.90875 22.6147 2.21295 22.549 2.51032C22.3373 3.46092 22.2235 4.42809 22.0686 5.38844C21.9431 6.16843 22.0029 6.96303 21.8794 7.74204C21.7931 8.29095 21.7421 8.84767 21.4078 9.32833C20.9088 10.044 20.1332 10.2458 19.3597 10.4603C18.5606 10.6806 17.6998 10.703 16.9625 11.1184C16.3968 11.4372 15.8526 11.8701 15.8595 12.5682C15.8673 13.2507 16.3497 13.7245 16.9919 13.9019C17.5745 14.0569 18.1898 14.0409 18.7636 13.8561C19.397 13.6732 19.9951 13.3862 20.5333 13.0069C20.746 12.8509 20.8686 12.8295 20.9254 13.1317C20.9499 13.2536 21.0578 13.3589 21.0843 13.4808C21.4107 14.9695 21.5362 16.4876 21.6647 18.0008C21.749 18.9933 21.8323 19.9926 21.8608 20.9881C21.9088 22.6455 22.0569 24.303 22.1941 25.9507C22.2706 26.8594 22.2922 27.8032 22.7412 28.6563C23.0285 29.2042 23.5687 29.4752 24.4217 29.366C24.8854 29.3066 25.3757 28.7811 25.4021 28.2604C25.4698 26.9159 25.3698 25.5734 25.2874 24.2338C25.1962 22.7596 25.0374 21.2903 24.9197 19.8181C24.8697 19.1912 24.8629 18.5614 24.809 17.9354C24.6704 16.3404 24.6086 14.743 24.6237 13.1434C24.6237 12.8441 24.7756 12.6998 25.0756 12.7017H26.6012C27.5061 12.7768 28.5758 12.6189 29.6259 12.2299C30.1837 12.0241 30.5553 11.7102 30.7436 11.1476C30.9455 10.5529 30.6906 9.78852 30.1514 9.72515V9.72417ZM61.8902 32.4899C61.1549 31.4652 60.2882 30.769 58.9234 30.9406C58.2243 31.0274 57.7282 31.4281 57.792 32.0004C57.8216 32.3494 57.9029 32.692 58.0331 33.0173C58.2547 33.5331 58.5665 33.9982 58.8234 34.4925C59.5765 35.9287 59.9004 37.5492 59.7568 39.1626C59.5773 41.445 58.7636 43.3794 56.9703 44.8428C56.2144 45.459 55.6311 45.5048 55.1889 44.525C54.4751 42.9436 54.2153 41.2549 54.0673 39.5594C53.9182 37.8474 54.1418 36.1285 54.1516 34.4116C54.1659 34.3007 54.1905 34.1913 54.2251 34.0849C54.3604 33.4083 54.081 32.5884 53.5868 32.33C52.9504 31.9975 52.2144 31.9057 51.5152 32.0716C50.4641 32.3056 50.1426 33.0632 50.0533 34.2858C49.9641 35.5084 50.0484 36.7291 50.0259 37.9517C50.0127 39.2211 50.1466 40.4878 50.4249 41.7268C50.7563 43.276 51.1436 44.7999 52.0809 46.1298C53.2849 47.837 54.8114 48.6452 56.7007 48.1714C58.7802 47.6498 60.3882 46.4165 61.3853 44.5104C62.6392 42.1188 63.0638 39.5273 63.0755 36.5253C63.158 35.085 62.7394 33.6604 61.8902 32.4909V32.4899ZM34.9918 41.5006C33.5321 40.4548 31.9278 39.6246 30.2288 39.0359C29.2317 38.6868 28.414 38.1369 27.9611 37.1512C27.7209 36.6277 27.816 36.1324 28.217 35.9452C29.3268 35.4304 30.3955 35.3719 31.5152 36.0359C32.4858 36.6121 33.427 37.2721 34.5428 37.5822C35.1526 37.7518 35.733 37.6446 36.0066 37.2838C36.5752 36.5321 36.6517 35.955 36.2536 35.3436C35.8026 34.6504 35.1752 34.1581 34.4467 33.7768C33.3682 33.2094 32.1917 32.8604 31.0632 32.4187C30.52 32.2062 29.9229 32.2325 29.3817 32.3612C27.662 32.7707 26.1747 33.5809 24.9796 34.9302C23.6275 36.4551 23.7638 37.9098 25.0982 39.3401C26.1365 40.4525 27.5003 41.0365 28.8866 41.562C29.8465 41.9267 30.7985 42.2952 31.6809 42.8295C32.9015 43.5685 33.0986 44.4519 32.2868 45.6004C32.1445 45.7763 31.9668 45.9207 31.7652 46.0245C30.8622 46.5802 29.8974 46.8796 28.8052 46.7567C27.8434 46.6475 27.3218 46.043 26.86 45.2942C26.513 44.7356 26.1737 44.5903 25.5727 44.797C24.5109 45.1636 23.9158 45.8695 24.1883 46.8357C24.3923 47.5552 24.8874 48.1724 25.4855 48.6589C26.459 49.4525 27.6022 49.7626 28.8444 49.7596C29.5543 49.7596 29.7514 49.8094 30.1416 49.7596C30.3631 49.7255 30.5877 49.705 30.8053 49.6543C33.1819 49.0937 35.0938 47.9247 36.0438 45.5721C36.7252 43.8932 36.438 42.5429 34.9918 41.5016V41.5006ZM48.4729 43.0947C48.2209 41.0161 47.6238 39.0125 47.1875 36.9748C47.1699 36.8909 47.1542 36.8275 47.0561 36.7983C46.3924 36.6033 45.7296 36.3947 45.0237 36.5633C43.7236 36.8734 42.8344 37.7655 42.0137 38.7229C41.5657 39.2455 41.2088 39.8441 40.7784 40.4554C40.5927 39.8226 40.4679 39.1736 40.4058 38.5172C40.2176 36.8041 40.3852 35.1145 40.5852 33.419C40.6695 32.6995 40.7813 31.9761 40.7107 31.2487C40.6725 30.8773 40.5548 30.4795 40.2019 30.3108C39.3263 29.8925 38.2812 30.071 37.74 30.8665C37.3332 31.4672 37.1086 32.1715 37.0929 32.8955C37.0625 34.123 37.1596 35.3427 37.2704 36.5653C37.3684 37.6231 37.2145 38.6849 37.1154 39.7466C36.9743 41.2539 36.8507 42.7691 36.8929 44.2881C36.8987 44.5614 36.8757 44.8346 36.8243 45.1032C36.5438 46.6446 36.7262 46.9624 38.0008 47.2842C38.742 47.4714 39.8313 47.0229 40.1676 46.3531C40.6578 45.3654 41.196 44.4031 41.7804 43.4652C42.4961 42.3176 43.3638 41.2949 44.3119 40.2868C44.8305 41.0853 44.9746 41.9696 45.007 42.8266C45.058 44.1838 45.0766 45.5429 45.1286 46.901C45.1629 47.8214 45.3972 48.695 46.0002 49.3911C46.4375 49.8961 47.1885 49.8162 47.4924 49.7616C48.0385 49.6329 48.5778 49.4603 48.7376 48.85C48.8356 48.4814 48.8356 48.0856 48.8474 47.7005C48.9043 46.1522 48.6611 44.6274 48.4729 43.0957V43.0947ZM21.3804 42.9075C21.1333 43.2429 20.8607 43.5598 20.596 43.8825C19.9509 44.6703 19.1018 44.9608 18.1449 44.8809C16.7027 44.9784 15.7477 44.2296 14.8918 43.2478C14.2133 42.4678 13.7859 41.5903 13.5084 40.6027C13.0515 38.9842 13.2839 37.4408 13.9006 35.9228C14.2928 34.9653 14.9653 34.1776 15.5301 33.3245C15.6801 33.0983 15.8791 32.8935 15.983 32.6488C16.5713 31.276 17.8694 31.1083 19.1626 31.4935C20.1999 31.8025 20.9372 32.5133 21.5245 33.3693C22.4726 34.7499 23.0785 36.2806 23.151 37.9517C23.2393 39.8276 22.4686 41.4353 21.3804 42.9085V42.9075ZM20.047 38.8623C19.9754 37.6457 19.5136 36.4839 18.7292 35.5474C18.4783 35.2393 18.1782 35.2734 17.9145 35.4684C16.9645 36.1724 16.236 37.0606 15.9536 38.2188C15.6967 39.2484 15.9742 40.0645 16.7331 40.4613C17.4684 40.8513 18.2626 41.1438 19.0616 40.6855C19.7528 40.2829 19.9754 39.5711 20.047 38.8623ZM42.1726 11.1535C42.2039 13.122 41.4568 14.6371 40.4185 16.041C40.045 16.5471 39.6626 17.055 39.1822 17.4635C38.4037 18.1236 37.436 18.2201 36.5213 18.0056C34.2928 17.484 33.1545 15.847 32.5711 13.783C31.9162 11.4694 32.5417 9.3839 33.8751 7.46125C34.2947 6.85579 34.7477 6.2747 35.1144 5.63414C35.933 4.20677 37.2272 4.23602 38.3557 4.67866C39.9597 5.30752 40.8156 6.63837 41.4608 8.11838C41.9029 9.13528 42.2363 10.1922 42.1726 11.1574V11.1535ZM39.0302 11.8555C39.0302 10.822 38.69 9.93379 37.9214 8.91786C37.4449 8.289 37.1939 8.2656 36.6223 8.82036C35.985 9.44045 35.4458 10.1298 35.1016 10.9604C34.5614 12.2455 35.0644 13.51 36.3252 13.8425C37.0949 14.0443 37.8939 14.2325 38.5292 13.4671C38.9391 12.9718 39.0528 12.419 39.0302 11.8555Z" fill="white"/>
</svg>
