<svg width="800" height="800" viewBox="0 0 800 800" fill="none" xmlns="http://www.w3.org/2000/svg">
<rect width="800" height="800" fill="white"/>
<path d="M600 512.183V515.705C597.284 518.372 594.943 521.537 590.897 522.457C588.146 523.086 585.526 522.719 583.524 520.646C576.444 513.31 568.438 507.06 560.468 500.72C557.94 498.708 555.527 496.509 553.039 494.421C552.488 493.92 551.864 493.504 551.188 493.188C550.551 492.921 549.808 492.076 549.166 492.8C548.771 493.253 548.751 494.073 548.695 494.813C548.109 502.637 550.212 510.195 550.875 517.894C551.254 522.422 547.482 526.563 542.5 526.734C537.291 526.915 536.28 526.734 534.621 521.964C532.224 515.101 530.752 508.072 529.62 500.901C527.905 490.033 528.012 479.124 528.244 468.195C528.406 460.477 529.61 452.773 529.564 445.049C529.524 438.377 528.406 431.705 527.708 425.043C527.061 418.894 527.172 412.736 529.347 406.929C531.081 402.32 535.476 400.891 540.073 400.503C545.681 400.061 548.048 402.476 547.937 408.016C547.76 416.605 546.925 425.159 546.748 433.753C546.546 442.579 545.848 451.404 545.868 460.245C545.868 461.755 545.585 463.546 547.274 464.185C548.852 464.779 550.445 464.301 551.937 463.179C556.994 459.329 561.788 455.128 567.7 452.451C572.853 450.141 577.759 450.338 582.538 453.321C586.078 455.546 586.078 459.304 582.194 461.79C577.607 464.728 572.808 467.355 568.105 470.122C565.685 471.574 563.372 473.193 561.181 474.968C559.826 476.05 559.897 476.89 561.222 477.876C565.161 480.805 568.949 483.914 572.626 487.155C576.995 491.009 581.546 494.652 585.931 498.486C589.825 501.888 593.598 505.435 597.436 508.902C598.511 509.806 599.384 510.923 600 512.183ZM270.441 509.506C265.384 504.474 259.932 499.945 254.642 495.241C247.75 489.092 240.69 483.165 233.372 477.509C232.305 476.689 232.361 476.236 233.225 475.406C235.002 473.787 236.954 472.371 239.046 471.184C244.068 468.165 249.201 465.317 254.243 462.328C258 460.104 258.931 456.441 256.22 454.177C253.51 451.913 250.152 450.589 246.561 450.876C241.828 451.253 237.671 453.311 233.918 456.144C230.479 458.736 227.061 461.347 223.592 463.888C222.332 464.814 220.932 464.593 219.546 464.009C218.16 463.425 218.838 462.268 218.813 461.382C218.722 458.283 218.838 455.178 218.757 452.079C218.575 444.803 218.863 437.532 219.374 430.291C219.966 421.883 220.507 413.48 220.213 405.062C220.148 403.185 219.156 401.495 216.704 400.901C212.577 399.895 209.032 401.057 205.487 402.873C203.403 403.945 202.276 405.701 201.618 407.81C199.444 414.804 199.808 421.949 200.703 429.043C201.714 437.215 202.276 445.321 201.765 453.598C201.254 461.875 200.379 470.047 200.566 478.314C200.691 487.516 201.516 496.695 203.034 505.772C204.078 511.755 205.651 517.635 207.732 523.343C207.967 524.104 208.381 524.799 208.938 525.37C209.495 525.941 210.181 526.372 210.939 526.629C217.882 528.903 224.431 522.905 223.349 515.725C222.337 509.023 220.891 502.335 221.326 495.482C221.387 494.526 220.851 493.178 222.009 492.78C222.959 492.458 224.032 493.082 224.891 493.817C228.239 496.68 231.552 499.593 235.006 502.32C242.273 508.047 249.545 513.763 256.048 520.359C258.415 522.759 261.105 523.041 264.231 522.306C266.962 521.657 268.61 519.675 270.441 517.873C273.693 514.658 273.693 512.741 270.441 509.506ZM474.861 347.484C471.634 350.473 467.639 352.083 463.614 353.633C455.957 356.592 447.886 357.965 439.901 359.671C434.743 360.758 434.753 360.899 433.969 366.419C433.279 370.921 432.825 375.455 432.608 380.004C432.396 385.816 434.019 391.421 435.304 397.057C436.467 402.149 438.121 406.828 441.256 411.206C443.512 414.361 442.991 417.008 437.752 417.828C433.544 418.487 429.215 418.608 425.265 415.775C421.867 413.344 420.714 409.923 419.966 406.325C418.762 400.327 418.368 394.209 417.776 388.12C417.427 384.523 417.548 380.955 417.316 376.864C417.483 368.728 418.266 360.149 419.242 351.555C419.829 346.382 420.471 341.2 420.952 336.007C421.417 330.975 422.226 326.024 422.894 321.032C423.116 319.377 422.418 317.958 421.72 316.554C420.709 314.542 420.512 312.921 422.059 310.853C423.748 308.604 424.082 305.681 423.951 302.803C423.571 293.745 435.38 290.263 440.452 293.267C442.748 294.626 444.179 296.468 444.194 299.28C444.234 300.686 444.419 302.084 444.746 303.452C444.918 304.232 445.373 304.745 446.425 304.961C451.204 305.892 456.099 306.355 460.726 307.935C466.097 309.761 471.715 310.954 476.272 314.793C479.524 317.52 481.88 320.776 482.492 324.857C483.802 333.571 481.541 341.325 474.861 347.509V347.484ZM460.837 322.326C457.297 320.816 453.707 319.146 449.777 319.422C445.226 319.055 443.663 320.474 441.529 323.896C438.596 328.6 437.524 333.959 437.16 339.388C436.806 344.671 438.945 346.74 444.301 346.493C453.722 346.065 462.38 340.425 464.352 329.823C464.954 326.628 463.553 323.478 460.837 322.331V322.326ZM355.391 321.163C351.689 320.726 347.957 320.066 344.154 320.66C340.351 321.254 336.568 321.521 332.76 321.968C330.793 322.205 330.085 321.254 330.424 319.483C330.929 316.841 330.747 314.169 330.96 311.528C331.238 308.005 331.82 304.483 332.34 300.961C333.352 294.244 335.607 287.909 338.207 281.659C339.451 278.67 338.424 275.988 335.714 274.157C331.804 271.51 327.501 271.732 323.202 272.552C319.566 273.251 317.26 275.319 316.628 279.259C316.37 280.829 316.517 282.399 316.178 283.934C315.085 288.839 314.499 293.831 313.7 298.787C313.052 302.813 313.361 306.913 312.724 310.934C312.279 313.767 312.016 316.64 310.291 319.12C307.717 322.814 303.717 323.855 299.727 324.962C295.605 326.099 291.165 326.215 287.362 328.359C284.444 330.004 281.637 332.238 281.673 335.841C281.713 339.363 284.201 341.808 287.514 342.724C290.519 343.524 293.693 343.442 296.652 342.488C299.919 341.544 303.005 340.062 305.78 338.105C306.878 337.3 307.51 337.189 307.803 338.749C307.93 339.378 308.486 339.922 308.622 340.55C310.306 348.234 310.954 356.068 311.616 363.878C312.051 369 312.481 374.157 312.628 379.295C312.875 387.849 313.639 396.403 314.347 404.906C314.742 409.596 314.853 414.466 317.169 418.869C318.651 421.697 321.437 423.096 325.837 422.532C328.229 422.225 330.758 419.513 330.894 416.826C331.243 409.888 330.727 402.959 330.302 396.045C329.832 388.437 329.013 380.855 328.406 373.257C328.148 370.021 328.113 366.771 327.834 363.54C327.12 355.309 326.801 347.065 326.879 338.81C326.879 337.265 327.663 336.52 329.21 336.53H337.079C341.747 336.918 347.264 336.102 352.68 334.095C355.558 333.033 357.474 331.413 358.445 328.51C359.487 325.44 358.172 321.495 355.391 321.168V321.163ZM519.101 438.654C515.308 433.366 510.837 429.773 503.798 430.659C500.192 431.106 497.633 433.174 497.962 436.128C498.115 437.929 498.534 439.697 499.206 441.376C500.349 444.038 501.957 446.438 503.282 448.989C507.167 456.401 508.837 464.765 508.096 473.091C507.171 484.87 502.974 494.853 493.724 502.406C489.825 505.586 486.816 505.822 484.535 500.766C480.854 492.604 479.514 483.889 478.75 475.139C477.981 466.303 479.134 457.432 479.185 448.572C479.258 447.999 479.385 447.435 479.564 446.886C480.262 443.394 478.821 439.162 476.272 437.829C472.989 436.113 469.193 435.639 465.586 436.495C460.165 437.703 458.506 441.613 458.046 447.922C457.586 454.232 458.021 460.532 457.904 466.842C457.836 473.393 458.527 479.93 459.963 486.325C461.672 494.32 463.669 502.185 468.504 509.048C474.714 517.858 482.588 522.03 492.333 519.584C503.06 516.892 511.353 510.527 516.496 500.69C522.964 488.347 525.154 474.973 525.215 459.48C525.64 452.047 523.481 444.695 519.101 438.659V438.654ZM380.358 485.157C372.829 479.76 364.554 475.475 355.79 472.437C350.647 470.636 346.43 467.798 344.093 462.711C342.854 460.009 343.345 457.453 345.413 456.486C351.138 453.83 356.65 453.528 362.425 456.954C367.432 459.928 372.287 463.335 378.042 464.935C381.187 465.81 384.181 465.257 385.592 463.395C388.525 459.516 388.92 456.537 386.867 453.382C384.54 449.804 381.304 447.263 377.546 445.296C371.983 442.367 365.915 440.566 360.094 438.287C357.292 437.19 354.213 437.326 351.421 437.99C342.551 440.103 334.879 444.285 328.714 451.248C321.741 459.118 322.444 466.625 329.326 474.007C334.682 479.748 341.716 482.762 348.867 485.474C353.818 487.356 358.729 489.258 363.28 492.015C369.576 495.829 370.593 500.388 366.405 506.316C365.671 507.223 364.755 507.969 363.715 508.504C359.057 511.372 354.081 512.917 348.447 512.283C343.486 511.72 340.796 508.6 338.414 504.736C336.624 501.852 334.874 501.103 331.774 502.169C326.297 504.061 323.227 507.704 324.633 512.691C325.685 516.404 328.239 519.589 331.324 522.1C336.346 526.196 342.242 527.796 348.65 527.781C352.311 527.781 353.328 528.038 355.34 527.781C356.483 527.605 357.641 527.499 358.764 527.237C371.023 524.344 380.884 518.311 385.784 506.17C389.299 497.505 387.817 490.536 380.358 485.162V485.157ZM449.894 493.384C448.594 482.656 445.514 472.316 443.264 461.8C443.173 461.367 443.092 461.04 442.586 460.889C439.163 459.883 435.744 458.806 432.103 459.677C425.397 461.277 420.81 465.881 416.577 470.822C414.266 473.519 412.425 476.608 410.205 479.763C409.247 476.497 408.604 473.148 408.284 469.76C407.313 460.919 408.177 452.199 409.209 443.449C409.644 439.736 410.22 436.002 409.856 432.249C409.659 430.332 409.052 428.279 407.232 427.408C402.716 425.25 397.325 426.17 394.533 430.276C392.435 433.376 391.276 437.011 391.195 440.747C391.039 447.082 391.539 453.377 392.111 459.687C392.617 465.146 391.823 470.626 391.312 476.105C390.584 483.884 389.946 491.703 390.164 499.543C390.194 500.954 390.075 502.363 389.81 503.749C388.364 511.705 389.304 513.345 395.878 515.005C399.702 515.971 405.32 513.657 407.055 510.2C409.583 505.103 412.36 500.137 415.374 495.296C419.065 489.374 423.541 484.095 428.431 478.893C431.106 483.014 431.85 487.577 432.017 492C432.28 499.005 432.376 506.019 432.644 513.028C432.821 517.778 434.03 522.286 437.14 525.879C439.395 528.485 443.269 528.073 444.837 527.791C447.653 527.127 450.435 526.236 451.259 523.086C451.765 521.184 451.765 519.141 451.826 517.154C452.119 509.164 450.865 501.294 449.894 493.389V493.384ZM310.15 492.418C308.875 494.149 307.469 495.784 306.104 497.45C302.776 501.515 298.397 503.015 293.461 502.602C286.022 503.105 281.096 499.241 276.681 494.174C273.182 490.149 270.977 485.62 269.546 480.523C267.189 472.17 268.388 464.205 271.569 456.371C273.592 451.43 277.061 447.364 279.974 442.961C280.747 441.794 281.774 440.737 282.31 439.474C285.344 432.39 292.04 431.524 298.71 433.512C304.061 435.107 307.864 438.775 310.893 443.193C315.783 450.318 318.909 458.217 319.283 466.842C319.738 476.523 315.763 484.82 310.15 492.423V492.418ZM303.272 471.541C302.903 465.262 300.521 459.266 296.475 454.433C295.181 452.843 293.633 453.02 292.273 454.026C287.372 457.659 283.615 462.243 282.158 468.22C280.833 473.534 282.265 477.745 286.179 479.793C289.972 481.806 294.068 483.316 298.19 480.951C301.755 478.873 302.903 475.199 303.272 471.541ZM417.397 328.54C417.558 338.699 413.705 346.518 408.349 353.764C406.423 356.375 404.45 358.997 401.972 361.105C397.957 364.512 392.965 365.01 388.247 363.903C376.752 361.211 370.881 352.763 367.872 342.11C364.494 330.17 367.72 319.407 374.598 309.485C376.762 306.36 379.099 303.361 380.99 300.055C385.213 292.689 391.888 292.84 397.709 295.124C405.983 298.37 410.397 305.238 413.725 312.876C416.006 318.124 417.725 323.579 417.397 328.56V328.54ZM401.188 332.163C401.188 326.829 399.434 322.245 395.469 317.002C393.011 313.757 391.716 313.636 388.768 316.499C385.481 319.699 382.699 323.256 380.924 327.543C378.138 334.175 380.732 340.701 387.236 342.417C391.206 343.459 395.327 344.43 398.604 340.48C400.718 337.924 401.305 335.071 401.188 332.163Z" fill="#2F3138"/>
</svg>
