<svg width="800" height="800" viewBox="0 0 800 800" fill="none" xmlns="http://www.w3.org/2000/svg">
<rect width="800" height="800" fill="white"/>
<path d="M610 495.533V499.28C607.155 502.118 604.703 505.485 600.465 506.465C597.583 507.134 594.839 506.743 592.741 504.538C585.325 496.732 576.939 490.084 568.591 483.338C565.942 481.197 563.415 478.858 560.809 476.636C560.231 476.103 559.578 475.661 558.87 475.324C558.202 475.041 557.424 474.142 556.751 474.912C556.338 475.394 556.317 476.267 556.258 477.054C555.644 485.378 557.847 493.419 558.541 501.609C558.939 506.427 554.987 510.833 549.769 511.015C544.313 511.208 543.253 511.015 541.516 505.94C539.005 498.638 537.463 491.16 536.277 483.531C534.481 471.968 534.592 460.362 534.836 448.735C535.005 440.522 536.266 432.326 536.219 424.109C536.176 417.011 535.005 409.912 534.274 402.825C533.596 396.283 533.712 389.73 535.991 383.553C537.807 378.649 542.411 377.129 547.227 376.717C553.101 376.246 555.58 378.815 555.464 384.709C555.278 393.847 554.404 402.948 554.219 412.091C554.007 421.481 553.276 430.87 553.297 440.277C553.297 441.882 553 443.788 554.77 444.468C556.422 445.1 558.091 444.591 559.654 443.397C564.951 439.302 569.973 434.832 576.165 431.984C581.564 429.527 586.702 429.736 591.708 432.91C595.417 435.276 595.417 439.275 591.348 441.92C586.543 445.046 581.516 447.841 576.589 450.785C574.055 452.329 571.632 454.052 569.337 455.94C567.918 457.091 567.992 457.985 569.38 459.035C573.506 462.15 577.474 465.458 581.325 468.906C585.902 473.006 590.67 476.883 595.263 480.962C599.342 484.58 603.294 488.355 607.314 492.043C608.44 493.005 609.355 494.194 610 495.533ZM264.787 492.685C259.49 487.332 253.779 482.514 248.238 477.509C241.017 470.967 233.622 464.661 225.957 458.644C224.839 457.771 224.898 457.289 225.804 456.406C227.664 454.684 229.709 453.177 231.901 451.915C237.161 448.703 242.538 445.672 247.82 442.492C251.755 440.126 252.73 436.229 249.891 433.82C247.052 431.411 243.534 430.003 239.773 430.308C234.814 430.71 230.46 432.9 226.529 435.913C222.927 438.67 219.346 441.449 215.712 444.152C214.393 445.137 212.926 444.901 211.474 444.281C210.023 443.659 210.733 442.429 210.706 441.486C210.611 438.189 210.733 434.886 210.648 431.588C210.457 423.847 210.759 416.112 211.294 408.408C211.914 399.463 212.481 390.522 212.173 381.567C212.105 379.57 211.066 377.771 208.497 377.14C204.174 376.069 200.461 377.305 196.747 379.238C194.565 380.378 193.384 382.247 192.695 384.49C190.417 391.93 190.799 399.532 191.736 407.08C192.795 415.774 193.384 424.399 192.849 433.205C192.314 442.011 191.397 450.705 191.593 459.5C191.723 469.29 192.588 479.055 194.178 488.713C195.272 495.079 196.919 501.334 199.099 507.407C199.346 508.217 199.779 508.955 200.363 509.563C200.946 510.171 201.664 510.63 202.458 510.903C209.731 513.323 216.591 506.941 215.458 499.302C214.399 492.172 212.883 485.057 213.339 477.766C213.402 476.748 212.841 475.314 214.054 474.891C215.05 474.548 216.173 475.212 217.073 475.994C220.58 479.04 224.05 482.139 227.668 485.041C235.28 491.133 242.898 497.214 249.711 504.233C252.19 506.786 255.008 507.086 258.282 506.304C261.142 505.614 262.869 503.504 264.787 501.588C268.193 498.167 268.193 496.127 264.787 492.685ZM478.917 320.308C475.537 323.488 471.352 325.201 467.136 326.85C459.115 329.998 450.66 331.459 442.296 333.275C436.893 334.43 436.903 334.581 436.083 340.453C435.36 345.243 434.885 350.068 434.657 354.907C434.435 361.09 436.135 367.053 437.481 373.049C438.699 378.467 440.431 383.445 443.716 388.103C446.078 391.459 445.533 394.275 440.045 395.148C435.637 395.849 431.103 395.977 426.966 392.964C423.406 390.378 422.198 386.738 421.414 382.91C420.153 376.529 419.74 370.02 419.12 363.542C418.754 359.715 418.882 355.919 418.638 351.567C418.813 342.91 419.634 333.783 420.656 324.639C421.271 319.136 421.944 313.623 422.447 308.098C422.934 302.744 423.782 297.477 424.481 292.166C424.714 290.405 423.983 288.895 423.252 287.402C422.192 285.261 421.986 283.537 423.607 281.336C425.376 278.944 425.726 275.833 425.588 272.771C425.191 263.135 437.56 259.431 442.874 262.626C445.278 264.072 446.778 266.032 446.793 269.024C446.835 270.519 447.029 272.006 447.371 273.462C447.551 274.291 448.028 274.838 449.13 275.068C454.136 276.058 459.263 276.551 464.111 278.232C469.737 280.175 475.622 281.444 480.395 285.528C483.801 288.43 486.269 291.893 486.911 296.235C488.283 305.506 485.915 313.756 478.917 320.335V320.308ZM464.227 293.542C460.519 291.936 456.758 290.159 452.642 290.453C447.874 290.063 446.237 291.572 444.002 295.212C440.93 300.218 439.806 305.919 439.425 311.695C439.054 317.316 441.295 319.516 446.905 319.254C456.774 318.799 465.843 312.798 467.909 301.519C468.539 298.119 467.072 294.763 464.227 293.542ZM353.772 292.305C349.894 291.84 345.985 291.139 342.001 291.77C338.018 292.402 334.055 292.686 330.066 293.162C328.006 293.414 327.264 292.402 327.619 290.517C328.149 287.707 327.958 284.865 328.181 282.054C328.472 278.307 329.081 274.559 329.626 270.812C330.686 263.665 333.049 256.926 335.772 250.277C337.075 247.097 335.999 244.243 333.16 242.295C329.065 239.479 324.557 239.715 320.054 240.587C316.245 241.331 313.83 243.532 313.167 247.723C312.898 249.393 313.051 251.064 312.696 252.696C311.552 257.916 310.937 263.226 310.1 268.499C309.422 272.782 309.746 277.145 309.078 281.422C308.612 284.436 308.337 287.493 306.53 290.132C303.834 294.061 299.643 295.17 295.464 296.347C291.147 297.557 286.496 297.68 282.512 299.961C279.455 301.711 276.515 304.088 276.552 307.921C276.595 311.668 279.201 314.27 282.671 315.244C285.819 316.095 289.143 316.008 292.243 314.993C295.666 313.989 298.897 312.412 301.805 310.33C302.955 309.474 303.617 309.356 303.924 311.015C304.056 311.684 304.639 312.263 304.782 312.931C306.546 321.106 307.224 329.441 307.918 337.75C308.374 343.2 308.824 348.687 308.977 354.152C309.237 363.253 310.037 372.353 310.779 381.401C311.191 386.39 311.308 391.572 313.735 396.256C315.287 399.265 318.206 400.753 322.814 400.153C325.32 399.827 327.968 396.941 328.111 394.082C328.477 386.7 327.936 379.329 327.492 371.973C326.999 363.879 326.141 355.812 325.505 347.728C325.235 344.286 325.198 340.828 324.907 337.391C324.158 328.633 323.824 319.863 323.906 311.079C323.906 309.436 324.726 308.644 326.348 308.655H334.59C339.48 309.066 345.259 308.199 350.932 306.064C353.947 304.934 355.955 303.21 356.971 300.121C358.063 296.856 356.685 292.653 353.772 292.305ZM525.258 417.305C521.285 411.679 516.602 407.857 509.228 408.799C505.451 409.275 502.771 411.476 503.115 414.618C503.276 416.534 503.714 418.415 504.418 420.202C505.615 423.033 507.3 425.587 508.688 428.301C512.757 436.186 514.507 445.085 513.731 453.943C512.762 466.475 508.365 477.097 498.676 485.132C494.592 488.515 491.44 488.766 489.051 483.387C485.194 474.704 483.79 465.432 482.99 456.122C482.185 446.722 483.393 437.284 483.446 427.857C483.523 427.248 483.656 426.647 483.844 426.064C484.574 422.348 483.065 417.846 480.395 416.427C476.956 414.602 472.98 414.098 469.201 415.009C463.523 416.294 461.785 420.453 461.303 427.166C460.821 433.879 461.277 440.582 461.155 447.295C461.083 454.265 461.807 461.22 463.311 468.023C465.101 476.529 467.194 484.896 472.258 492.198C478.763 501.572 487.011 506.01 497.219 503.408C508.455 500.544 517.142 493.772 522.53 483.306C529.305 470.175 531.599 455.946 531.663 439.463C532.108 431.554 529.846 423.727 525.258 417.305ZM379.925 466.781C372.038 461.039 363.37 456.48 354.19 453.248C348.803 451.331 344.385 448.312 341.938 442.9C340.64 440.025 341.153 437.306 343.32 436.278C349.317 433.451 355.091 433.13 361.141 436.775C366.385 439.939 371.471 443.563 377.499 445.266C380.794 446.197 383.93 445.608 385.408 443.628C388.48 439.5 388.894 436.331 386.743 432.975C384.306 429.168 380.915 426.465 376.98 424.372C371.153 421.256 364.796 419.34 358.698 416.914C355.764 415.747 352.538 415.892 349.613 416.599C340.322 418.847 332.286 423.296 325.829 430.705C318.523 439.077 319.26 447.064 326.469 454.918C332.079 461.026 339.448 464.233 346.938 467.118C352.124 469.12 357.268 471.144 362.036 474.077C368.631 478.135 369.696 482.985 365.31 489.291C364.541 490.257 363.581 491.05 362.492 491.62C357.612 494.671 352.4 496.315 346.499 495.641C341.302 495.041 338.483 491.722 335.988 487.611C334.114 484.543 332.281 483.746 329.033 484.88C323.296 486.893 320.08 490.769 321.554 496.074C322.655 500.025 325.33 503.413 328.562 506.085C333.822 510.442 339.999 512.145 346.71 512.129C350.546 512.129 351.61 512.401 353.719 512.129C354.916 511.941 356.129 511.829 357.306 511.55C370.146 508.472 380.476 502.054 385.609 489.136C389.291 479.917 387.738 472.498 379.925 466.781ZM452.764 475.533C451.402 464.12 448.176 453.119 445.819 441.93C445.723 441.47 445.639 441.122 445.109 440.962C441.523 439.891 437.942 438.745 434.128 439.672C427.103 441.374 422.299 446.272 417.864 451.529C415.444 454.399 413.516 457.685 411.19 461.042C410.187 457.567 409.512 454.004 409.177 450.4C408.16 440.994 409.066 431.716 410.146 422.407C410.602 418.456 411.206 414.484 410.825 410.491C410.618 408.451 409.982 406.267 408.075 405.341C403.345 403.044 397.698 404.024 394.774 408.392C392.576 411.69 391.362 415.557 391.278 419.532C391.113 426.272 391.637 432.969 392.236 439.682C392.766 445.49 391.934 451.32 391.399 457.15C390.636 465.426 389.969 473.746 390.196 482.086C390.228 483.586 390.104 485.086 389.826 486.561C388.311 495.025 389.296 496.77 396.183 498.536C400.187 499.564 406.073 497.102 407.89 493.424C410.539 488.001 413.447 482.718 416.604 477.568C420.471 471.267 425.159 465.651 430.282 460.116C433.084 464.5 433.862 469.355 434.037 474.061C434.313 481.513 434.414 488.975 434.694 496.433C434.88 501.486 436.146 506.283 439.404 510.105C441.766 512.878 445.824 512.439 447.467 512.139C450.417 511.433 453.33 510.485 454.194 507.134C454.724 505.11 454.724 502.937 454.787 500.822C455.095 492.321 453.781 483.943 452.764 475.533ZM306.382 474.505C305.047 476.347 303.574 478.087 302.144 479.859C298.658 484.184 294.071 485.78 288.901 485.341C281.108 485.876 275.949 481.764 271.324 476.374C267.658 472.091 265.348 467.273 263.849 461.85C261.381 452.964 262.636 444.49 265.968 436.155C268.087 430.897 271.721 426.572 274.773 421.888C275.583 420.646 276.658 419.522 277.22 418.178C280.398 410.64 287.412 409.72 294.399 411.834C300.004 413.532 303.987 417.434 307.16 422.134C312.283 429.715 315.557 438.119 315.949 447.295C316.426 457.594 312.262 466.417 306.382 474.505ZM299.177 452.295C298.791 445.614 296.295 439.235 292.058 434.094C290.701 432.402 289.081 432.589 287.655 433.659C282.522 437.524 278.587 442.402 277.061 448.761C275.673 454.414 277.172 458.895 281.272 461.074C285.245 463.215 289.536 464.822 293.853 462.305C297.588 460.094 298.791 456.186 299.177 452.295ZM418.723 300.154C418.892 310.962 414.856 319.281 409.246 326.99C407.227 329.768 405.161 332.557 402.566 334.8C398.36 338.425 393.131 338.954 388.189 337.776C376.148 334.913 369.998 325.924 366.846 314.591C363.307 301.888 366.687 290.437 373.891 279.88C376.158 276.556 378.606 273.366 380.587 269.848C385.01 262.011 392.003 262.172 398.1 264.602C406.767 268.055 411.391 275.362 414.877 283.488C417.266 289.072 419.067 294.875 418.723 300.175V300.154ZM401.745 304.008C401.745 298.333 399.907 293.457 395.754 287.878C393.179 284.425 391.823 284.297 388.734 287.343C385.291 290.748 382.378 294.533 380.518 299.093C377.6 306.149 380.317 313.092 387.129 314.918C391.288 316.026 395.605 317.059 399.038 312.857C401.252 310.137 401.866 307.102 401.745 304.008Z" fill="#2F3138"/>
<path d="M475.641 556.498C504.133 534.151 518.937 492.807 525.083 477.723C521.265 473.533 513.015 467.052 510.557 474.65C507.485 484.148 481.507 527.446 457.484 542.81C433.461 558.174 465.366 564.557 475.641 556.498Z" fill="#2F3138"/>
</svg>
